<svg width="16" height="16" viewBox="0 0 16 16" fill="none" xmlns="http://www.w3.org/2000/svg">
<path d="M6.59481 13.1774C2.96178 13.1774 0.00610352 10.2217 0.00610352 6.58871C0.00610352 2.95567 2.96178 0 6.59481 0C10.2278 0 13.1835 2.95567 13.1835 6.58871C13.1835 10.2217 10.2278 13.1774 6.59481 13.1774ZM6.59481 1.24904C3.6505 1.24904 1.25515 3.6444 1.25515 6.58871C1.25515 9.53301 3.6505 11.9284 6.59481 11.9284C9.53912 11.9284 11.9345 9.53301 11.9345 6.58871C11.9345 3.6444 9.53912 1.24904 6.59481 1.24904ZM15.811 15.8171C16.0548 15.5732 16.0548 15.1777 15.811 14.9338L13.0162 12.1391C12.7723 11.8952 12.3769 11.8952 12.133 12.1391C11.8891 12.383 11.8891 12.7785 12.133 13.0223L14.9277 15.8171C15.0497 15.939 15.2095 16 15.3694 16C15.5292 16 15.689 15.939 15.811 15.8171Z" fill="#121212"/>
</svg>
