<svg width="15" height="15" viewBox="0 0 15 15" fill="none" xmlns="http://www.w3.org/2000/svg">
<path d="M14.9624 12.8532C14.8964 12.5364 14.5862 12.333 14.2693 12.399C13.9525 12.4649 13.7491 12.7753 13.8151 13.092C13.8531 13.2745 13.8078 13.4616 13.691 13.6053C13.6233 13.6885 13.4724 13.8281 13.2223 13.8281H1.7785C1.52836 13.8281 1.37746 13.6885 1.30978 13.6053C1.19291 13.4616 1.14768 13.2745 1.18568 13.092C1.79376 10.1713 4.36999 8.03771 7.34505 7.96576C7.39659 7.96775 7.44835 7.96875 7.50039 7.96875C7.55259 7.96875 7.60457 7.96772 7.6563 7.96573C9.75197 8.01601 11.689 9.07746 12.862 10.8269C13.0422 11.0957 13.4061 11.1674 13.675 10.9872C13.9437 10.807 14.0155 10.443 13.8353 10.1743C12.8739 8.74037 11.4778 7.6977 9.88597 7.17378C10.856 6.44637 11.4848 5.28741 11.4848 3.98438C11.4848 1.7874 9.69739 0 7.50039 0C5.30338 0 3.51601 1.7874 3.51601 3.98438C3.51601 5.2882 4.14554 6.44777 5.11659 7.17513C4.2269 7.46804 3.39209 7.92381 2.66142 8.52481C1.32162 9.62687 0.390063 11.164 0.0384128 12.8532C-0.0718021 13.3825 0.060239 13.9261 0.40061 14.3447C0.739311 14.7611 1.24155 15 1.7785 15H13.2222C13.7592 15 14.2615 14.7611 14.6001 14.3447C14.9406 13.9261 15.0726 13.3825 14.9624 12.8532ZM4.68789 3.98438C4.68789 2.43354 5.94956 1.17188 7.50039 1.17188C9.05122 1.17188 10.3129 2.43354 10.3129 3.98438C10.3129 5.48745 9.12768 6.71892 7.64274 6.7933C7.59537 6.79242 7.54791 6.79198 7.50039 6.79198C7.4531 6.79198 7.40582 6.79245 7.35859 6.79333C5.87338 6.71924 4.68789 5.48766 4.68789 3.98438Z" fill="#4F4F4F"/>
</svg>
