<svg width="55" height="39" viewBox="0 0 55 39" fill="none" xmlns="http://www.w3.org/2000/svg">
<path d="M47 0.5H28H27H8C3.6 0.5 0 4.1 0 8.5V14.5C0 16.708 0.909 18.711 2.369 20.16C3.464 21.247 4 22.779 4 24.322V31.473C4 35.338 7.162 38.5 11.027 38.5H27H28H44.846C48.231 38.5 51 35.731 51 32.346V24.55C51 22.86 51.625 21.22 52.791 19.996C54.157 18.562 55 16.626 55 14.5V8.5C55 4.1 51.4 0.5 47 0.5Z" fill="#A46F3E"/>
<path d="M22.762 0.5H8C3.6 0.5 0 4.1 0 8.5V14.5C0 16.708 0.909 18.711 2.369 20.16C3.464 21.247 4 22.779 4 24.322V31.473C4 35.338 7.162 38.5 11.027 38.5H18.558C22.101 38.5 25 35.601 25 32.058V23.855C25 22.449 25.633 21.151 26.631 20.16C28.091 18.711 29 16.708 29 14.5V6.738C29 3.307 26.193 0.5 22.762 0.5Z" fill="#FBD490"/>
<path d="M46 22.5H37C36.448 22.5 36 22.053 36 21.5C36 20.947 36.448 20.5 37 20.5H46C46.552 20.5 47 20.947 47 21.5C47 22.053 46.552 22.5 46 22.5Z" fill="#704928"/>
<path d="M33 22.5H31C30.448 22.5 30 22.053 30 21.5C30 20.947 30.448 20.5 31 20.5H33C33.552 20.5 34 20.947 34 21.5C34 22.053 33.552 22.5 33 22.5Z" fill="#704928"/>
<path d="M9.50001 27C9.24401 27 8.98801 26.902 8.79301 26.707C8.40201 26.316 8.40201 25.684 8.79301 25.293L10.293 23.793C10.684 23.402 11.316 23.402 11.707 23.793C12.098 24.184 12.098 24.816 11.707 25.207L10.207 26.707C10.012 26.902 9.75601 27 9.50001 27Z" fill="#A46F3E"/>
<path d="M17.593 19.893C17.382 19.893 17.169 19.827 16.988 19.689L15.3 18.403C14.861 18.068 14.776 17.441 15.111 17.002C15.445 16.563 16.072 16.478 16.512 16.812L18.2 18.097C18.639 18.432 18.724 19.059 18.389 19.498C18.192 19.757 17.895 19.893 17.593 19.893Z" fill="#A46F3E"/>
<path d="M11.999 34.5C11.788 34.5 11.575 34.434 11.394 34.296L9.70599 33.011C9.26699 32.676 9.18199 32.049 9.51699 31.61C9.85099 31.171 10.478 31.085 10.918 31.42L12.606 32.705C13.045 33.04 13.13 33.667 12.795 34.106C12.599 34.364 12.301 34.5 11.999 34.5Z" fill="#A46F3E"/>
<path d="M17.139 30.445C16.708 30.445 16.31 30.165 16.181 29.73C16.024 29.201 16.325 28.644 16.854 28.486L18.887 27.882C19.417 27.732 19.973 28.027 20.131 28.556C20.289 29.085 19.987 29.642 19.458 29.8L17.425 30.404C17.33 30.432 17.233 30.445 17.139 30.445Z" fill="#A46F3E"/>
<path d="M5.32697 9.00001C5.07097 9.00001 4.81497 8.90201 4.61997 8.70701C4.22897 8.31601 4.22897 7.68401 4.61997 7.29301L6.11997 5.79301C6.51097 5.40201 7.14297 5.40201 7.53397 5.79301C7.92497 6.18401 7.92497 6.81601 7.53397 7.20701L6.03397 8.70701C5.83897 8.90201 5.58297 9.00001 5.32697 9.00001Z" fill="#A46F3E"/>
<path d="M7.82602 16.5001C7.61502 16.5001 7.40202 16.4341 7.22102 16.2961L5.53302 15.0111C5.09402 14.6761 5.00902 14.0491 5.34402 13.6101C5.67802 13.1701 6.30502 13.0851 6.74502 13.4201L8.43302 14.7051C8.87202 15.0401 8.95702 15.6671 8.62202 16.1061C8.42602 16.3641 8.12802 16.5001 7.82602 16.5001Z" fill="#A46F3E"/>
<path d="M24.019 15.903C23.54 15.903 23.116 15.557 23.034 15.069L22.681 12.977C22.589 12.433 22.956 11.916 23.5 11.825C24.049 11.739 24.561 12.1 24.652 12.645L25.005 14.737C25.097 15.281 24.73 15.798 24.186 15.889C24.13 15.898 24.074 15.903 24.019 15.903Z" fill="#A46F3E"/>
<path d="M12.966 12.445C12.535 12.445 12.137 12.165 12.008 11.73C11.851 11.201 12.152 10.644 12.681 10.486L14.714 9.88198C15.244 9.72698 15.801 10.027 15.958 10.556C16.115 11.085 15.814 11.642 15.285 11.8L13.252 12.404C13.157 12.432 13.061 12.445 12.966 12.445Z" fill="#A46F3E"/>
<path d="M20.978 8.26804C20.857 8.26804 20.735 8.24704 20.616 8.20104L18.638 7.43304C18.123 7.23304 17.867 6.65404 18.068 6.13804C18.267 5.62304 18.847 5.36804 19.362 5.56804L21.34 6.33604C21.855 6.53604 22.111 7.11504 21.91 7.63104C21.756 8.02504 21.378 8.26804 20.978 8.26804Z" fill="#A46F3E"/>
<path d="M46.609 5.896C47.195 4.222 47.28 2.276 45.608 0.783C45.394 0.592 45.105 0.5 44.819 0.5H43.613C42.621 0.5 42.044 1.617 42.622 2.422C43.322 3.397 43.937 4.536 44.29 5.815C44.605 6.955 46.218 7.012 46.609 5.896Z" fill="#775131"/>
<path d="M37.217 5.896C37.803 4.222 37.888 2.276 36.216 0.783C36.002 0.592 35.713 0.5 35.427 0.5H34.221C33.229 0.5 32.652 1.617 33.23 2.422C33.93 3.397 34.545 4.536 34.898 5.815C35.213 6.955 36.826 7.012 37.217 5.896Z" fill="#775131"/>
</svg>
