<svg width="55" height="55" viewBox="0 0 55 55" fill="none" xmlns="http://www.w3.org/2000/svg">
<path d="M47 8.5H28H27H8C3.6 8.5 0 12.1 0 16.5V22.5C0 24.708 0.909 26.711 2.369 28.16C3.464 29.247 4 30.779 4 32.322V39.473C4 43.338 7.162 46.5 11.027 46.5H27H28H44.846C48.231 46.5 51 43.731 51 40.346V32.55C51 30.86 51.625 29.22 52.791 27.996C54.157 26.562 55 24.626 55 22.5V16.5C55 12.1 51.4 8.5 47 8.5Z" fill="#A46F3E"/>
<path d="M22.762 8.5H8C3.6 8.5 0 12.1 0 16.5V22.5C0 24.708 0.909 26.711 2.369 28.16C3.464 29.247 4 30.779 4 32.322V39.473C4 43.338 7.162 46.5 11.027 46.5H18.558C22.101 46.5 25 43.601 25 40.058V31.855C25 30.449 25.633 29.151 26.631 28.16C28.091 26.711 29 24.708 29 22.5V14.738C29 11.307 26.193 8.5 22.762 8.5Z" fill="#FBD490"/>
<path d="M46 30.5H37C36.448 30.5 36 30.053 36 29.5C36 28.947 36.448 28.5 37 28.5H46C46.552 28.5 47 28.947 47 29.5C47 30.053 46.552 30.5 46 30.5Z" fill="#704928"/>
<path d="M33 30.5H31C30.448 30.5 30 30.053 30 29.5C30 28.947 30.448 28.5 31 28.5H33C33.552 28.5 34 28.947 34 29.5C34 30.053 33.552 30.5 33 30.5Z" fill="#704928"/>
<path d="M9.50001 35C9.24401 35 8.98801 34.902 8.79301 34.707C8.40201 34.316 8.40201 33.684 8.79301 33.293L10.293 31.793C10.684 31.402 11.316 31.402 11.707 31.793C12.098 32.184 12.098 32.816 11.707 33.207L10.207 34.707C10.012 34.902 9.75601 35 9.50001 35Z" fill="#A46F3E"/>
<path d="M17.593 27.893C17.382 27.893 17.169 27.827 16.988 27.689L15.3 26.403C14.861 26.068 14.776 25.441 15.111 25.002C15.445 24.563 16.072 24.478 16.512 24.812L18.2 26.097C18.639 26.432 18.724 27.059 18.389 27.498C18.192 27.757 17.895 27.893 17.593 27.893Z" fill="#A46F3E"/>
<path d="M11.999 42.5C11.788 42.5 11.575 42.434 11.394 42.296L9.70599 41.011C9.26699 40.676 9.18199 40.049 9.51699 39.61C9.85099 39.171 10.478 39.085 10.918 39.42L12.606 40.705C13.045 41.04 13.13 41.667 12.795 42.106C12.599 42.364 12.301 42.5 11.999 42.5Z" fill="#A46F3E"/>
<path d="M17.139 38.445C16.708 38.445 16.31 38.165 16.181 37.73C16.024 37.201 16.325 36.644 16.854 36.486L18.887 35.882C19.417 35.732 19.973 36.027 20.131 36.556C20.289 37.085 19.987 37.642 19.458 37.8L17.425 38.404C17.33 38.432 17.233 38.445 17.139 38.445Z" fill="#A46F3E"/>
<path d="M5.32697 17C5.07097 17 4.81497 16.902 4.61997 16.707C4.22897 16.316 4.22897 15.684 4.61997 15.293L6.11997 13.793C6.51097 13.402 7.14297 13.402 7.53397 13.793C7.92497 14.184 7.92497 14.816 7.53397 15.207L6.03397 16.707C5.83897 16.902 5.58297 17 5.32697 17Z" fill="#A46F3E"/>
<path d="M7.82602 24.5001C7.61502 24.5001 7.40202 24.4341 7.22102 24.2961L5.53302 23.0111C5.09402 22.6761 5.00902 22.0491 5.34402 21.6101C5.67802 21.1701 6.30502 21.0851 6.74502 21.4201L8.43302 22.7051C8.87202 23.0401 8.95702 23.6671 8.62202 24.1061C8.42602 24.3641 8.12802 24.5001 7.82602 24.5001Z" fill="#A46F3E"/>
<path d="M24.019 23.903C23.54 23.903 23.116 23.557 23.034 23.069L22.681 20.977C22.589 20.433 22.956 19.916 23.5 19.825C24.049 19.739 24.561 20.1 24.652 20.645L25.005 22.737C25.097 23.281 24.73 23.798 24.186 23.889C24.13 23.898 24.074 23.903 24.019 23.903Z" fill="#A46F3E"/>
<path d="M12.966 20.445C12.535 20.445 12.137 20.165 12.008 19.73C11.851 19.201 12.152 18.644 12.681 18.486L14.714 17.882C15.244 17.727 15.801 18.027 15.958 18.556C16.115 19.085 15.814 19.642 15.285 19.8L13.252 20.404C13.157 20.432 13.061 20.445 12.966 20.445Z" fill="#A46F3E"/>
<path d="M20.978 16.268C20.857 16.268 20.735 16.247 20.616 16.201L18.638 15.433C18.123 15.233 17.867 14.654 18.068 14.138C18.267 13.623 18.847 13.368 19.362 13.568L21.34 14.336C21.855 14.536 22.111 15.115 21.91 15.631C21.756 16.025 21.378 16.268 20.978 16.268Z" fill="#A46F3E"/>
<path d="M46.609 13.896C47.195 12.222 47.28 10.276 45.608 8.783C45.394 8.592 45.105 8.5 44.819 8.5H43.613C42.621 8.5 42.044 9.617 42.622 10.422C43.322 11.397 43.937 12.536 44.29 13.815C44.605 14.955 46.218 15.012 46.609 13.896Z" fill="#775131"/>
<path d="M37.217 13.896C37.803 12.222 37.888 10.276 36.216 8.783C36.002 8.592 35.713 8.5 35.427 8.5H34.221C33.229 8.5 32.652 9.617 33.23 10.422C33.93 11.397 34.545 12.536 34.898 13.815C35.213 14.955 36.826 15.012 37.217 13.896Z" fill="#775131"/>
</svg>
