<svg width="70" height="70" viewBox="0 0 70 70" fill="none" xmlns="http://www.w3.org/2000/svg">
<path d="M6.05341 49.3356L44.6483 10.7412L63.9455 30.0384L25.3506 68.6333L6.05341 49.3356Z" fill="#E2F1A1"/>
<path d="M59.571 34.4134L29.7262 64.2583C27.3101 61.8422 23.3922 61.8422 20.9761 64.2583L10.4285 53.7106C12.8451 51.2945 12.8451 47.3772 10.4285 44.9606L40.2739 15.1157C42.6899 17.5318 46.6073 17.5318 49.0239 15.1157L59.571 25.6634C57.1549 28.0795 57.1549 31.9968 59.571 34.4134Z" fill="#CBE558"/>
<path d="M6.05341 39.9621L44.6478 1.36719L63.9455 20.6649L25.3506 59.2593L6.05341 39.9621Z" fill="#E2F1A1"/>
<path d="M59.5523 25.0585L29.7449 54.8659C27.3181 52.4392 23.3837 52.4392 20.9574 54.8659L10.4471 44.3556C12.8739 41.9294 12.8739 37.995 10.4471 35.5682L40.2546 5.76074C42.6814 8.18751 46.6158 8.18751 49.0426 5.76074L59.5523 16.271C57.1261 18.6973 57.1261 22.6317 59.5523 25.0585Z" fill="#CBE558"/>
<path d="M41.656 30.3132C41.656 33.9897 38.676 36.9697 35 36.9697C31.3236 36.9697 28.3435 33.9897 28.3435 30.3132C28.3435 26.6373 31.3236 23.6572 35 23.6572C38.676 23.6572 41.656 26.6373 41.656 30.3132Z" fill="#E2F1A1"/>
<path d="M64.9127 29.0715L61.1929 25.3513L64.9127 21.6316C65.169 21.3752 65.3132 21.0275 65.3132 20.6649C65.3132 20.3023 65.169 19.9546 64.9127 19.6983L45.6155 0.400545C45.3591 0.144196 45.0115 0 44.6483 0C44.2857 0 43.938 0.144196 43.6816 0.400545L32.6357 11.447C32.1016 11.9806 32.1016 12.8463 32.6357 13.3803C33.1692 13.9144 34.0349 13.9144 34.569 13.3803L40.3438 7.60608C41.5999 8.4766 43.0878 8.9471 44.6488 8.9471C46.2094 8.9471 47.6972 8.4766 48.9539 7.60608L57.7087 16.3609C55.9266 18.9415 55.9266 22.3883 57.7087 24.9689L29.6551 53.0225C27.0745 51.2404 23.6277 51.2404 21.0471 53.0225L12.2923 44.2671C13.1628 43.011 13.6333 41.5231 13.6333 39.9621C13.6333 38.4016 13.1628 36.9131 12.2923 35.657L26.8283 21.121C27.3624 20.5869 27.3624 19.7212 26.8283 19.1872C26.2948 18.6536 25.4291 18.6536 24.895 19.1872L5.08676 38.9954C4.83041 39.2518 4.68622 39.5995 4.68622 39.9621C4.68622 40.3247 4.83041 40.6724 5.08676 40.9287L8.80649 44.649L5.08676 48.3687C4.83041 48.6251 4.68622 48.9727 4.68622 49.3354C4.68622 49.698 4.83041 50.0457 5.08676 50.302L24.3839 69.5997C24.651 69.8662 25.0008 69.9997 25.3511 69.9997C25.7009 69.9997 26.0507 69.8662 26.3178 69.5997L35.3039 60.6136C35.8379 60.0796 35.8379 59.2139 35.3039 58.6798C34.7698 58.1463 33.9041 58.1463 33.37 58.6798L29.6556 62.3942C28.3995 61.5232 26.9116 61.0526 25.3511 61.0526C23.7901 61.0526 22.3022 61.5232 21.0461 62.3942L12.2907 53.6388C13.1559 52.387 13.6007 50.9311 13.6264 49.4684L19.9908 55.8327L19.9913 55.8333C19.9918 55.8333 19.9918 55.8333 19.9918 55.8338L24.3845 60.2259C24.6515 60.493 25.0013 60.6265 25.3511 60.6265C25.7009 60.6265 26.0507 60.493 26.3178 60.2259L30.7104 55.8333H30.7109L56.3693 30.1738C56.396 31.6852 56.8622 33.1229 57.7077 34.3427L41.1043 50.9456C40.5702 51.4796 40.5702 52.3453 41.1043 52.8794C41.3713 53.1464 41.7211 53.2799 42.0709 53.2799C42.4207 53.2799 42.7711 53.1464 43.0376 52.8794L64.9127 31.0043C65.4467 30.4708 65.4467 29.6051 64.9127 29.0715ZM44.6483 6.21272C43.8237 6.21272 43.0312 6.0071 42.3273 5.62205L44.6483 3.30049L46.9699 5.62205C46.266 6.0071 45.4734 6.21272 44.6483 6.21272ZM59.6928 18.345L62.0127 20.6649L59.6928 22.9843C58.9082 21.5434 58.9082 19.7858 59.6928 18.345ZM10.3083 37.6411C10.6939 38.345 10.8989 39.1375 10.8989 39.9621C10.8989 40.7867 10.6939 41.5798 10.3083 42.2836L7.98724 39.9621L10.3083 37.6411ZM25.3511 63.7876C26.1757 63.7876 26.9688 63.9932 27.6721 64.3782L25.3511 66.6998L23.0301 64.3782C23.7335 63.9932 24.5265 63.7876 25.3511 63.7876ZM7.98724 49.3359L10.3067 47.016C11.0917 48.4574 11.0917 50.2144 10.3067 51.6553L7.98724 49.3359ZM25.3511 57.326L23.0317 55.0066C24.4726 54.2215 26.2296 54.2215 27.6705 55.0066L25.3511 57.326ZM59.6912 32.3592C59.3061 31.6553 59.1005 30.8628 59.1005 30.0382C59.1005 29.2136 59.3061 28.4205 59.6912 27.7166L62.0127 30.0382L59.6912 32.3592Z" fill="black"/>
<path d="M40.6733 24.6399C37.5448 21.5119 32.4547 21.5119 29.3262 24.6399C26.1982 27.7685 26.1982 32.8586 29.3262 35.9871C30.8904 37.5508 32.9449 38.3332 34.9995 38.3332C37.0545 38.3332 39.1091 37.5508 40.6733 35.9871C43.8018 32.8586 43.8018 27.7685 40.6733 24.6399ZM38.74 34.0533C36.6775 36.1158 33.322 36.1153 31.26 34.0533C29.198 31.9913 29.198 28.6358 31.26 26.5732C32.2913 25.5425 33.6456 25.0266 35 25.0266C36.3544 25.0266 37.7088 25.5425 38.74 26.5732C40.802 28.6358 40.802 31.9913 38.74 34.0533Z" fill="black"/>
<path d="M44.3604 22.8867L48.0209 19.2257C48.555 18.6922 48.555 17.8265 48.0209 17.2924C47.4868 16.7589 46.6217 16.7584 46.0876 17.2924L42.4266 20.9529C41.8925 21.4869 41.8925 22.3526 42.4266 22.8867C42.6936 23.1537 43.0434 23.2872 43.3933 23.2872C43.7431 23.2872 44.0934 23.1537 44.3604 22.8867Z" fill="black"/>
<path d="M25.6396 37.7404L21.9786 41.4008C21.445 41.9349 21.445 42.8006 21.9786 43.3347C22.2456 43.6017 22.5954 43.7352 22.9452 43.7352C23.2956 43.7352 23.6454 43.6017 23.9124 43.3347L27.5728 39.6737C28.1069 39.1402 28.1069 38.2744 27.5728 37.7404C27.0388 37.2063 26.1736 37.2063 25.6396 37.7404Z" fill="black"/>
<path d="M66.7188 59.8833H64.5004C63.7452 59.8833 63.1332 60.4953 63.1332 61.2505C63.1332 62.0057 63.7452 62.6177 64.5004 62.6177H66.7188C67.474 62.6177 68.086 62.0057 68.086 61.2505C68.086 60.4953 67.474 59.8833 66.7188 59.8833Z" fill="black"/>
<path d="M57.8465 59.8833H55.7813C55.0262 59.8833 54.4141 60.4953 54.4141 61.2505C54.4141 62.0057 55.0262 62.6177 55.7813 62.6177H57.8465C58.6017 62.6177 59.2137 62.0057 59.2137 61.2505C59.2137 60.4953 58.6017 59.8833 57.8465 59.8833Z" fill="black"/>
<path d="M61.2501 54.4146C60.495 54.4146 59.8829 55.0266 59.8829 55.7817V57.7823C59.8829 58.5375 60.495 59.1495 61.2501 59.1495C62.0053 59.1495 62.6173 58.5375 62.6173 57.7823V55.7817C62.6173 55.0266 62.0053 54.4146 61.2501 54.4146Z" fill="black"/>
<path d="M61.2501 63.7407C60.495 63.7407 59.8829 64.3533 59.8829 65.1079V66.7192C59.8829 67.4743 60.495 68.0864 61.2501 68.0864C62.0053 68.0864 62.6173 67.4743 62.6173 66.7192V65.1079C62.6173 64.3528 62.0053 63.7407 61.2501 63.7407Z" fill="black"/>
<path d="M12.0002 10.1172H14.2187C14.9738 10.1172 15.5859 9.50517 15.5859 8.75001C15.5859 7.99484 14.9738 7.38281 14.2187 7.38281H12.0002C11.245 7.38281 10.633 7.99484 10.633 8.75001C10.633 9.50517 11.245 10.1172 12.0002 10.1172Z" fill="black"/>
<path d="M6.71353 8.75001C6.71353 7.99484 6.1015 7.38281 5.34634 7.38281H3.28113C2.52597 7.38281 1.91394 7.99484 1.91394 8.75001C1.91394 9.50517 2.52597 10.1172 3.28113 10.1172H5.34634C6.1015 10.1172 6.71353 9.50517 6.71353 8.75001Z" fill="black"/>
<path d="M8.74988 6.64904C9.50504 6.64904 10.1171 6.037 10.1171 5.28184V3.28126C10.1171 2.52609 9.50504 1.91406 8.74988 1.91406C7.99472 1.91406 7.38269 2.52609 7.38269 3.28126V5.28184C7.38269 6.037 7.99472 6.64904 8.74988 6.64904Z" fill="black"/>
<path d="M8.74988 15.5859C9.50504 15.5859 10.1171 14.9738 10.1171 14.2187V12.6074C10.1171 11.8528 9.50504 11.2402 8.74988 11.2402C7.99472 11.2402 7.38269 11.8528 7.38269 12.6074V14.2187C7.38269 14.9738 7.99472 15.5859 8.74988 15.5859Z" fill="black"/>
<path d="M38.2059 54.4146C37.8465 54.4146 37.4935 54.5609 37.2393 54.8151C36.9851 55.0693 36.8387 55.4223 36.8387 55.7817C36.8387 56.1412 36.9851 56.4942 37.2393 56.7484C37.4935 57.0026 37.8465 57.1489 38.2059 57.1489C38.5654 57.1489 38.9184 57.0026 39.1726 56.7484C39.4268 56.4942 39.5731 56.1412 39.5731 55.7817C39.5731 55.4223 39.4268 55.0693 39.1726 54.8151C38.9184 54.5609 38.5654 54.4146 38.2059 54.4146Z" fill="black"/>
<path d="M29.7347 17.6475C30.0941 17.6475 30.4471 17.5017 30.7013 17.2469C30.9571 16.9927 31.1019 16.6402 31.1019 16.2803C31.1019 15.9209 30.9571 15.5684 30.7013 15.3142C30.4471 15.0594 30.0957 14.9131 29.7347 14.9131C29.3753 14.9131 29.0222 15.0594 28.768 15.3142C28.5138 15.5684 28.3675 15.9209 28.3675 16.2803C28.3675 16.6402 28.5138 16.9927 28.768 17.2469C29.0239 17.5017 29.3753 17.6475 29.7347 17.6475Z" fill="black"/>
</svg>
