<svg width="15" height="15" viewBox="0 0 15 15" fill="none" xmlns="http://www.w3.org/2000/svg">
<path d="M12.7849 2.00718C11.3708 0.712821 9.49394 0 7.50035 0C5.50676 0 3.62997 0.712821 2.21578 2.00718C0.787152 3.31473 0.000355229 5.05736 0.000355229 6.91405C0.000355229 8.36204 0.473851 9.73396 1.3735 10.9035L0.0430701 14.1944C-0.0463147 14.4155 0.00721069 14.6687 0.178451 14.8347C0.290072 14.9429 0.437084 15 0.586439 15C0.666214 15 0.746663 14.9837 0.822659 14.9502L4.59188 13.2887C5.513 13.6467 6.49023 13.8281 7.50035 13.8281C8.76472 13.8281 10.0148 13.5326 11.1156 12.9736C11.4041 12.827 11.5192 12.4744 11.3726 12.1858C11.2261 11.8973 10.8734 11.7822 10.5849 11.9287C9.64778 12.4047 8.5812 12.6562 7.50035 12.6562C6.5613 12.6562 5.65705 12.4736 4.81275 12.1134C4.66362 12.0498 4.49482 12.0508 4.34646 12.1162L1.67033 13.2958L2.58926 11.0227C2.67109 10.8203 2.63362 10.5892 2.49197 10.423C1.62859 9.41014 1.17223 8.19675 1.17223 6.91405C1.17223 3.7478 4.01101 1.17187 7.50035 1.17187C10.9897 1.17187 13.8285 3.7478 13.8285 6.91405C13.8285 8.00436 13.4902 9.0652 12.85 9.98184C12.6647 10.2471 12.7296 10.6124 12.9949 10.7977C13.2602 10.983 13.6256 10.9181 13.8108 10.6528C14.589 9.5384 15.0003 8.24556 15.0003 6.91405C15.0003 5.05736 14.2136 3.31473 12.7849 2.00718Z" fill="#4F4F4F"/>
</svg>
