<svg width="16" height="16" viewBox="0 0 16 16" fill="none" xmlns="http://www.w3.org/2000/svg">
<g clip-path="url(#clip0_22_1024)">
<path d="M15.4452 11.2329L13.5026 9.30625C13.2575 9.06319 12.8618 9.06478 12.6188 9.30988C12.3757 9.55497 12.3773 9.95069 12.6224 10.1938L14.412 11.9688H13.6493C11.8444 11.9688 10.179 11.1878 9.08013 9.82622C8.86335 9.55756 8.46985 9.5156 8.20125 9.73238C7.93263 9.94916 7.89063 10.3426 8.10741 10.6113C9.44475 12.2684 11.4647 13.2188 13.6493 13.2188H14.349L12.6224 14.9313C12.3773 15.1743 12.3757 15.57 12.6188 15.8151C12.741 15.9383 12.9017 16 13.0625 16C13.2216 16 13.3808 15.9396 13.5026 15.8188L15.4452 13.8921C15.803 13.5373 16 13.065 16 12.5625C16 12.06 15.803 11.5878 15.4452 11.2329Z" fill="#121212"/>
<path d="M15.4452 2.10791L13.5026 0.181251C13.2575 -0.0618112 12.8618 -0.0602174 12.6187 0.184876C12.3757 0.42997 12.3773 0.825689 12.6224 1.06875L14.349 2.78125H13.6493C11.0972 2.78125 8.73459 4.1266 7.48328 6.29222L7.21841 6.75069L6.79103 6.01097C5.53975 3.84535 3.17706 2.5 0.625 2.5C0.279813 2.5 0 2.77981 0 3.125C0 3.47019 0.279813 3.75 0.625 3.75C2.73206 3.75 4.68003 4.85597 5.70869 6.63631L6.49656 8L5.70866 9.36369C4.68003 11.1441 2.73206 12.25 0.625 12.25C0.279813 12.25 0 12.5298 0 12.875C0 13.2202 0.279813 13.5 0.625 13.5C3.17706 13.5 5.53972 12.1547 6.79103 9.98903L7.75416 8.32209C7.75766 8.31625 7.76106 8.31034 7.76438 8.30438L8.56563 6.91756C9.59428 5.13722 11.5423 4.03125 13.6493 4.03125H14.412L12.6224 5.80625C12.3773 6.04931 12.3757 6.44503 12.6187 6.69013C12.741 6.81331 12.9017 6.875 13.0625 6.875C13.2216 6.875 13.3808 6.81463 13.5026 6.69375L15.4452 4.7671C15.803 4.41225 16 3.94003 16 3.4375C16 2.93497 15.803 2.46278 15.4452 2.10791Z" fill="#121212"/>
</g>
<defs>
<clipPath id="clip0_22_1024">
<rect width="16" height="16" fill="white"/>
</clipPath>
</defs>
</svg>
