<svg width="194" height="135" viewBox="0 0 194 135" fill="none" xmlns="http://www.w3.org/2000/svg">
<g clip-path="url(#clip0_50_1121)">
<g opacity="0.17">
<g opacity="0.17">
<path opacity="0.17" d="M122.088 135C161.801 135 193.995 134.349 193.995 133.545C193.995 132.741 161.801 132.09 122.088 132.09C82.3753 132.09 50.1816 132.741 50.1816 133.545C50.1816 134.349 82.3753 135 122.088 135Z" fill="#174D6A"/>
</g>
</g>
<path d="M127.212 111.893L126.108 115.323L121.444 116.022L122.753 110.197L127.212 111.893Z" fill="#F7D2AF"/>
<path d="M140.355 111.816L139.015 115.287L134.397 116.022L136.015 109.996L140.355 111.816Z" fill="#F7D2AF"/>
<path d="M141.777 53.3347L147.086 53.7718L144.87 57.1703L138.247 56.5071L141.777 53.3347Z" fill="#F7D2AF"/>
<path d="M108.414 39.7913C109.151 41.812 115.377 53.5042 117.748 55.0621C120.119 56.62 139.752 57.489 140.216 57.165C141.272 55.4991 143.298 52.8975 143.298 52.8975C143.298 52.8975 126.129 49.7148 122.109 48.4807C118.089 47.2467 117.037 31.8577 116.357 30.0118C115.254 27.0297 103.26 25.6774 108.414 39.7913Z" fill="#B0284B"/>
<path d="M134.314 115.698L133.592 118.526L149.828 118.783C147.612 115.261 140.138 114.459 140.138 114.459L134.314 115.698Z" fill="#952D4B"/>
<path d="M114.749 90.9358C114.749 90.9358 121.145 87.6605 119.723 80.2411C119.3 78.0251 118.15 75.5776 116.785 75.5776H72.4582C69.6388 75.5776 68.5461 81.9019 68.5461 84.9046H95.4615L114.749 90.9358Z" fill="#174D6A"/>
<path d="M77.0557 132.928C85.8232 132.928 92.9307 125.838 92.9307 117.091C92.9307 108.345 85.8232 101.255 77.0557 101.255C68.2882 101.255 61.1807 108.345 61.1807 117.091C61.1807 125.838 68.2882 132.928 77.0557 132.928Z" fill="#174D6A"/>
<path d="M68.108 116.963C68.0358 121.894 71.9839 125.951 76.9268 126.017C81.8697 126.089 85.9364 122.151 86.0034 117.22C86.0756 112.289 82.1274 108.232 77.1845 108.166C72.2417 108.094 68.1801 112.032 68.108 116.963Z" fill="#FAFAFA"/>
<path d="M70.3346 116.994C70.2831 120.701 73.2467 123.745 76.9629 123.801C80.6791 123.853 83.7304 120.896 83.7871 117.189C83.8387 113.482 80.875 110.438 77.1588 110.382C73.4426 110.33 70.3862 113.287 70.3346 116.994Z" fill="#DDDDDD"/>
<path d="M173.131 132.928C181.898 132.928 189.006 125.838 189.006 117.091C189.006 108.345 181.898 101.255 173.131 101.255C164.363 101.255 157.256 108.345 157.256 117.091C157.256 125.838 164.363 132.928 173.131 132.928Z" fill="#174D6A"/>
<path d="M164.183 116.963C164.111 121.894 168.059 125.951 173.002 126.017C177.945 126.089 182.011 122.151 182.078 117.22C182.151 112.289 178.202 108.232 173.259 108.166C168.317 108.094 164.255 112.032 164.183 116.963Z" fill="#FAFAFA"/>
<path d="M166.409 116.994C166.358 120.701 169.322 123.745 173.038 123.801C176.754 123.853 179.805 120.896 179.862 117.189C179.914 113.482 176.95 110.438 173.234 110.382C169.517 110.33 166.461 113.287 166.409 116.994Z" fill="#DDDDDD"/>
<path d="M160.941 104.993C160.992 105.029 165.08 110.906 165.652 111.739C167.023 113.734 168.363 115.688 169.523 117.379C170.605 118.958 172.435 119.554 173.615 118.711C174.733 117.914 174.878 116.104 173.955 114.551L167.863 104.304C166.863 102.617 163.662 97.6455 162.023 97.2341L163.064 100.489L160.941 104.993Z" fill="#6189B5"/>
<path d="M58.7737 103.214C58.083 105.764 56.9645 108.181 55.8512 110.577C55.4492 111.451 55.042 112.325 54.506 113.127C53.8462 114.109 53.0061 114.958 52.3721 115.955C53.2483 116.526 54.4235 116.197 55.3513 115.718C59.0262 113.816 61.3972 109.662 61.1601 105.538C61.1189 104.792 60.9849 104.026 60.5674 103.409" fill="#174D6A"/>
<path d="M165.25 93.9489C165.25 93.9489 183.295 91.8305 187.573 102.88C187.779 103.42 187.299 103.97 186.732 103.841C169.414 99.9029 155.838 114.33 155.838 114.33L165.25 93.9489Z" fill="#F9A035"/>
<path d="M99.3838 110.006C99.2962 110.053 88.8538 110.664 87.3796 110.742C83.8438 110.922 80.3905 111.086 77.3959 111.23C74.6023 111.364 72.4427 113.878 72.5612 116.85V116.855C72.6746 119.667 74.793 121.914 77.432 122.027L94.8327 122.758C97.6933 122.876 106.327 122.809 108.115 120.428L103.286 118.644L99.3838 110.006Z" fill="#6189B5"/>
<path d="M158.755 51.0002C158.755 51.0002 162.338 51.7715 162.817 56.8618C163.296 61.9469 158.781 63.9059 158.781 63.9059L158.755 51.0002Z" fill="white"/>
<path d="M158.601 64.1834L158.575 50.7791L158.791 50.8253C158.828 50.8356 159.745 51.0361 160.724 51.8897C161.621 52.6661 162.745 54.1571 162.997 56.8462C163.25 59.5405 162.111 61.3606 161.111 62.4198C160.028 63.5613 158.9 64.0549 158.853 64.0754L158.601 64.1834ZM158.936 51.2418L158.962 63.6127C159.348 63.4019 160.121 62.934 160.858 62.1525C162.234 60.6974 162.832 58.9235 162.636 56.8719C162.394 54.3165 161.343 52.9026 160.503 52.1673C159.869 51.6171 159.255 51.3498 158.936 51.2418Z" fill="#FFB551"/>
<path d="M151.913 42.2334C151.969 39.5362 150.914 37.327 149.556 37.2988C148.199 37.2707 147.053 39.4343 146.997 42.1315C146.941 44.8287 147.995 47.0379 149.353 47.0661C150.711 47.0942 151.857 44.9306 151.913 42.2334Z" fill="#174D6A"/>
<path d="M55.6296 102.134L55.8306 99.8049L106.78 105.903C109.733 106.273 111.79 109.214 111.269 112.335L111.032 113.749L56.8305 105.353C55.2069 105.106 55.4801 103.872 55.6296 102.134Z" fill="#FFB551"/>
<path d="M154.658 64.5229L159.028 65.0731C159.343 65.1142 159.626 64.8828 159.647 64.5692C159.647 64.5692 159.652 49.7354 159.137 49.5143C155.529 47.9718 146.576 51.7921 146.576 51.7921C144.576 51.9721 142.953 53.674 142.803 55.7461C142.803 55.7615 142.803 55.7769 142.803 55.7923L142.782 63.0215C142.782 63.0987 142.798 63.1758 142.829 63.2478C146.555 64.019 150.287 64.7132 154.05 65.2068C153.967 64.8417 154.261 64.4715 154.658 64.5229Z" fill="#F9A035"/>
<path d="M166.94 87.1618C166.662 86.2055 158.632 72.9913 154.117 65.3508C154.086 65.2994 154.065 65.2479 154.055 65.1965C150.292 64.7029 146.566 64.0088 142.834 63.2375C142.855 63.2838 142.88 63.325 142.911 63.361C143.092 63.582 143.458 64.0345 143.942 64.6721C145.906 67.2532 149.818 72.8371 151.163 77.9016C153.178 85.4599 153.627 92.5555 153.477 99.471C153.338 105.764 147.401 115.878 146.334 117.642C146.236 117.806 146.055 117.909 145.859 117.909H118.753C118.506 117.909 118.295 117.75 118.222 117.513C117.826 116.171 116.449 111.518 114.429 104.921C112.635 99.07 114.527 95.0337 114.697 92.0259C114.754 90.9821 114.609 90.0669 114.032 89.2391C107.672 80.1331 70.2882 84.5087 69.0306 84.6578C69.01 84.663 68.9893 84.663 68.9687 84.6681C56.0625 87.7377 55.3616 101.204 55.3513 103.898C55.3513 104.165 55.5471 104.397 55.81 104.443L97.1366 111.425C97.3118 111.456 100.415 117.709 100.415 117.709C101.827 120.691 103.105 122.506 104.801 123.601C106.486 124.691 108.435 125.226 110.409 125.262C116.089 125.354 137.778 125.344 140.752 125.19C144.803 124.979 147.978 125.56 151.751 123.339C155.524 121.123 166.435 104.135 167.363 97.8051C168.162 92.3806 167.409 88.7609 166.94 87.1618Z" fill="#FFB551"/>
<path d="M148.859 46.676C148.906 46.7685 148.947 46.8611 148.988 46.9536C148.937 46.8354 149.019 47.0359 149.024 47.0513C149.086 47.2159 149.143 47.3855 149.194 47.5552C149.287 47.874 149.359 48.1928 149.406 48.5218C149.385 48.3727 149.416 48.6144 149.416 48.6195C149.426 48.7069 149.431 48.7943 149.437 48.8869C149.447 49.0514 149.452 49.216 149.452 49.3805C149.452 49.5605 149.447 49.7353 149.431 49.9152C149.426 49.9924 149.421 50.0695 149.411 50.1415C149.406 50.1929 149.4 50.2443 149.395 50.2957C149.406 50.2289 149.406 50.2237 149.395 50.2803C149.344 50.6196 149.272 50.9539 149.174 51.2881C149.132 51.432 149.081 51.5811 149.029 51.7251C148.993 51.8228 148.957 51.9153 148.921 52.0079C148.973 51.8896 148.885 52.085 148.88 52.1056C148.741 52.4038 148.586 52.6969 148.406 52.9745C148.184 53.319 148.102 53.427 147.828 53.7252C147.55 54.0337 147.524 54.5119 147.828 54.8152C148.112 55.098 148.643 55.1237 148.921 54.8152C151.096 52.4141 151.601 48.8149 150.194 45.9047C150.014 45.5294 149.478 45.4317 149.138 45.6271C148.751 45.843 148.674 46.3006 148.859 46.676Z" fill="#174D6A"/>
<path d="M54.9853 104.973C54.9853 104.973 57.5006 91.198 65.9123 89.82C74.324 88.442 99.5024 87.7736 103.141 92.6839C106.78 97.5942 106.27 113.415 106.27 113.415L54.9853 104.973Z" fill="#F9A035"/>
<path d="M80.6945 84.9919C80.3904 84.0098 80.1482 82.9866 79.7565 82.0354C79.5452 81.5161 79.2771 81.0225 78.8339 80.6626C78.3958 80.313 77.9113 80.0867 77.3752 79.9171C76.432 79.624 75.4785 79.3617 74.5301 79.079C73.5766 78.7962 72.623 78.5339 71.6437 78.3488C70.2624 78.0918 68.8759 78.0352 67.4791 77.9992C66.3297 77.9684 65.1803 77.9529 64.0309 77.9375C61.2219 77.9067 58.418 77.9015 55.6089 77.9118C52.6813 77.9221 49.7537 77.9426 46.8261 77.9786C44.4964 78.0043 42.1718 78.0403 39.8421 78.0969C39.6256 78.102 39.4092 78.1072 39.1875 78.1123C38.6515 78.1277 38.1361 78.5751 38.1618 79.1355C38.1876 79.6754 38.6154 80.1741 39.1875 80.1587C41.3575 80.1021 43.5326 80.0662 45.7025 80.0404C48.5425 80.0045 51.3824 79.9787 54.2276 79.9633C57.0676 79.9479 59.9024 79.9479 62.7424 79.9736C64.9071 79.989 67.0771 80.0045 69.2419 80.1073C69.4841 80.1176 69.7264 80.1381 69.9634 80.1587C70.0923 80.169 70.216 80.1844 70.3397 80.1998C70.3758 80.205 70.5407 80.2307 70.35 80.1998C70.4119 80.2101 70.4737 80.2204 70.5356 80.2256C71.0252 80.3027 71.5149 80.4004 71.9994 80.5135C72.9374 80.7346 73.86 81.0122 74.7878 81.2899C75.262 81.4338 75.7362 81.5727 76.2104 81.7115C76.4268 81.7732 76.6433 81.8298 76.8598 81.8966C76.968 81.9326 77.0711 81.9686 77.1742 82.0097C76.9732 81.9326 77.2412 82.0457 77.3031 82.0817C77.3495 82.1074 77.3958 82.1383 77.4422 82.1691C77.602 82.2617 77.4628 82.1845 77.4319 82.1537C77.5144 82.2257 77.5917 82.3028 77.6639 82.3902C77.535 82.2411 77.669 82.4108 77.7102 82.4879C77.736 82.5342 77.7618 82.5856 77.7876 82.6319C77.8082 82.6781 77.8752 82.8581 77.7979 82.6524C77.9577 83.1049 78.0968 83.5574 78.236 84.015C78.3906 84.5189 78.5452 85.0279 78.705 85.5318C78.8648 86.0408 79.4266 86.4213 79.9678 86.2465C80.4935 86.0819 80.8595 85.5369 80.6945 84.9919Z" fill="#9C9B9B"/>
<path d="M57.1862 80.3284C57.8562 82.1691 58.3459 84.0767 58.6242 86.0202C58.6345 86.0871 58.6448 86.1488 58.65 86.2156C58.6345 86.1077 58.6345 86.1128 58.65 86.231C58.6706 86.3853 58.6912 86.5395 58.7118 86.6938C58.7479 86.9457 58.784 87.1977 58.8613 87.4393C58.9953 87.8815 59.1912 88.2106 59.5004 88.5499C59.9592 89.0692 60.5777 89.5937 61.2478 89.7994C61.758 89.9588 62.3869 89.6091 62.5106 89.0847C62.6394 88.5294 62.3405 87.9946 61.7941 87.825C61.6601 87.7838 62.0621 87.9741 61.8457 87.8455C61.7993 87.8198 61.7529 87.7941 61.7116 87.7684C61.6446 87.7273 61.5828 87.681 61.5158 87.6347C61.3302 87.5062 61.6962 87.789 61.5209 87.6347C61.4024 87.5319 61.2838 87.4342 61.1756 87.3262C61.0777 87.2337 60.99 87.0949 60.8818 87.0126C60.9849 87.1514 61.0055 87.1771 60.9437 87.0948C60.9282 87.0691 60.9076 87.0434 60.8921 87.0177C60.8509 86.9612 60.7478 86.884 60.9076 87.0691C60.7942 86.9355 60.7736 86.5961 60.7426 86.4264C60.7323 86.3647 60.722 86.303 60.7117 86.2362C60.722 86.3339 60.7272 86.3493 60.7169 86.2722C60.6962 86.1025 60.6705 85.9328 60.6499 85.7632C60.6189 85.5369 60.588 85.3107 60.5519 85.0845C60.2633 83.2746 59.7994 81.5007 59.1706 79.7834C58.9902 79.2795 58.4644 78.8888 57.9078 79.0687C57.4078 79.2332 56.9903 79.7937 57.1862 80.3284Z" fill="#9C9B9B"/>
<path d="M74.3085 47.7199V75.9785C74.3085 77.192 73.2571 78.1792 71.9633 78.1792H40.1978C38.9041 78.1792 37.8527 77.192 37.8527 75.9785V47.7199C37.8527 46.5065 38.9041 45.5193 40.1978 45.5193H71.9633C73.2571 45.5193 74.3085 46.5065 74.3085 47.7199Z" fill="#F9A035"/>
<path d="M74.3085 47.7199V50.4913H37.8527V47.7199C37.8527 46.5065 38.9041 45.5193 40.1978 45.5193H71.9633C73.2571 45.5193 74.3085 46.5065 74.3085 47.7199Z" fill="#174D6A"/>
<path d="M74.3085 99.3578C76.8238 99.6149 79.339 99.872 81.8543 100.124C82.4986 100.191 83.1429 100.258 83.7871 100.319C83.9933 100.34 84.1737 100.129 84.1737 99.9337C84.1737 99.7074 83.9933 99.5686 83.7871 99.5481C81.2719 99.291 78.7566 99.0339 76.2413 98.782C75.5971 98.7151 74.9528 98.6483 74.3085 98.5866C74.1023 98.566 73.9219 98.7768 73.9219 98.9722C73.9219 99.1984 74.0972 99.3321 74.3085 99.3578Z" fill="#174D6A"/>
<path d="M73.6797 101.018C76.195 101.276 78.7102 101.533 81.2255 101.785C81.8698 101.851 82.5141 101.918 83.1583 101.98C83.3645 102.001 83.5449 101.79 83.5449 101.594C83.5449 101.368 83.3645 101.229 83.1583 101.209C80.6431 100.952 78.1278 100.695 75.6126 100.443C74.9683 100.376 74.324 100.309 73.6797 100.247C73.4735 100.227 73.2932 100.437 73.2932 100.633C73.2932 100.859 73.4684 100.998 73.6797 101.018Z" fill="#174D6A"/>
<path d="M73.0509 102.679C75.5661 102.936 78.0814 103.193 80.5967 103.445C81.2409 103.512 81.8852 103.579 82.5295 103.641C82.7357 103.661 82.9161 103.45 82.9161 103.255C82.9161 103.029 82.7357 102.89 82.5295 102.869C80.0142 102.612 77.499 102.355 74.9837 102.103C74.3394 102.036 73.6952 101.97 73.0509 101.908C72.8447 101.887 72.6643 102.098 72.6643 102.294C72.6643 102.52 72.8396 102.659 73.0509 102.679Z" fill="#174D6A"/>
<path d="M64.1908 90.3291C64.4227 90.2108 64.6701 90.1286 64.9227 90.0514C65.1701 89.9743 65.4278 89.9126 65.6803 89.8509C66.1906 89.7326 66.7009 89.6401 67.2163 89.5475C68.2471 89.3727 69.278 89.2442 70.314 89.1208C71.35 89.0077 72.3911 88.91 73.4271 88.8277C74.4683 88.7454 75.5094 88.6837 76.5506 88.6272C77.0712 88.6015 77.5918 88.5758 78.1123 88.5552C78.6329 88.5346 79.1535 88.5192 79.6741 88.5038C80.7152 88.4781 81.7615 88.4627 82.8027 88.4575C83.8438 88.4575 84.8901 88.4729 85.9313 88.4986C86.9724 88.5244 88.0188 88.5706 89.0599 88.6272C90.1011 88.694 91.1474 88.7763 92.1834 88.8894C92.4411 88.9151 92.7039 88.946 92.9617 88.9768L93.7399 89.0745C94.2554 89.1414 94.7708 89.2031 95.2914 89.275C96.3274 89.4139 97.3685 89.5733 98.3942 89.8201C98.9096 89.9486 99.4199 90.0926 99.9147 90.2828C100.415 90.473 100.899 90.6941 101.363 90.9666C102.286 91.5065 103.11 92.2366 103.713 93.121C103.868 93.3369 104.002 93.5683 104.131 93.7997C104.193 93.918 104.26 94.0311 104.311 94.1545L104.399 94.3344L104.481 94.5144C104.538 94.6326 104.584 94.756 104.636 94.8794C104.682 95.0028 104.734 95.1262 104.775 95.2496L104.842 95.4347L104.904 95.6198C104.945 95.7432 104.981 95.8718 105.017 95.9952C105.301 97.0081 105.481 98.0364 105.6 99.075C105.662 99.5943 105.703 100.109 105.739 100.628C105.775 101.147 105.796 101.666 105.821 102.186C105.77 101.666 105.713 101.152 105.651 100.638C105.59 100.124 105.517 99.6098 105.435 99.0956C105.265 98.0724 105.053 97.0595 104.734 96.0826C104.574 95.5941 104.394 95.116 104.172 94.6532L104.09 94.4835L104.002 94.3139C103.945 94.2007 103.878 94.0928 103.816 93.9797C103.682 93.7637 103.548 93.5478 103.399 93.3472L103.342 93.2701L103.286 93.1981L103.167 93.049C103.085 92.9513 103.002 92.8588 102.914 92.7662C102.744 92.5811 102.564 92.4063 102.373 92.2418C101.992 91.9127 101.574 91.6248 101.136 91.378C100.693 91.1312 100.229 90.9307 99.7498 90.761C99.2704 90.5913 98.7808 90.4525 98.2808 90.3394C97.2809 90.108 96.2604 89.9692 95.2295 89.8458L93.6781 89.6607L92.905 89.563C92.6473 89.5321 92.3895 89.5013 92.1318 89.4756C91.101 89.3676 90.0701 89.2905 89.0341 89.2288C86.9621 89.1002 84.885 89.0437 82.8078 89.0282C81.7667 89.018 80.7307 89.018 79.6895 89.0334C79.1689 89.0385 78.6484 89.0488 78.133 89.0591C77.6124 89.0694 77.0918 89.0797 76.5764 89.0951C76.0558 89.1105 75.5352 89.1259 75.0198 89.1465L73.4632 89.2133C72.4272 89.2648 71.3861 89.3265 70.3501 89.4036C69.3141 89.4807 68.2781 89.5733 67.2472 89.6967C66.7318 89.7584 66.2164 89.8303 65.7061 89.9178C65.4484 89.9589 65.1958 90.0103 64.9433 90.072C64.6856 90.1594 64.433 90.2262 64.1908 90.3291Z" fill="#174D6A"/>
<path d="M56.4543 97.8975C55.5884 97.7227 55.0832 96.355 55.3255 94.8433C55.5626 93.3316 56.4594 92.2467 57.3202 92.4216L56.4543 97.8975Z" fill="#C20E1A"/>
<path d="M56.5058 91.8817L58.6809 91.9331C58.6809 91.9331 57.3202 97.6763 56.48 98.2213C55.6399 98.7663 55.9079 97.7843 55.9079 97.7843L57.248 92.8843L56.3924 92.2981C56.2069 92.1747 56.2893 91.8765 56.5058 91.8817Z" fill="#9C9B9B"/>
<path d="M167.61 93.4089C167.925 94.792 167.992 96.242 167.842 97.6714C167.765 98.3861 167.636 99.0956 167.445 99.7898C167.353 100.139 167.239 100.484 167.116 100.823C167.054 100.993 166.987 101.163 166.914 101.327C166.878 101.409 166.842 101.492 166.806 101.574L166.693 101.816C166.095 103.106 165.43 104.366 164.703 105.584C163.971 106.803 163.188 107.991 162.296 109.096C162.972 107.847 163.631 106.602 164.276 105.348C164.92 104.093 165.543 102.834 166.131 101.559L166.239 101.322C166.275 101.245 166.311 101.163 166.342 101.085C166.409 100.926 166.476 100.767 166.538 100.607C166.662 100.283 166.775 99.9594 166.878 99.6252C167.079 98.962 167.239 98.2884 167.358 97.5994C167.605 96.2317 167.672 94.8229 167.61 93.4089Z" fill="#174D6A"/>
<path d="M156.57 103.841C155.699 106.937 150.385 119.75 146.21 120.063C141.736 120.105 128.268 120.007 118.377 119.75C114.944 119.657 113.357 110.726 112.161 106.777C110.069 99.8823 110.027 91.7584 114.697 92.0258C114.527 95.0337 112.635 99.0699 114.429 104.921C116.455 111.518 117.831 116.176 118.223 117.513C118.29 117.75 118.506 117.909 118.753 117.909H145.859C146.055 117.909 146.231 117.806 146.334 117.642C147.401 115.878 153.338 105.764 153.477 99.4709C153.627 92.5554 153.178 85.4598 151.163 77.9015C149.813 72.837 145.401 66.2402 142.855 63.2734C145.56 64.3223 150.452 68.0861 152.653 73.1609C156.255 81.4904 158.425 97.2292 156.57 103.841Z" fill="#F9A035"/>
<path d="M142.834 63.2373C143.782 63.3144 144.726 63.4378 145.669 63.5664C146.607 63.7001 147.545 63.8492 148.483 64.0137C149.416 64.1782 150.349 64.3531 151.282 64.5484C152.21 64.7438 153.137 64.9495 154.06 65.1963C153.112 65.1192 152.168 64.9958 151.225 64.8672C150.287 64.7335 149.349 64.5844 148.411 64.4199C147.478 64.2554 146.545 64.0805 145.612 63.8852C144.679 63.6898 143.751 63.4841 142.834 63.2373Z" fill="#174D6A"/>
<path d="M157.075 49.3086C156.853 53.3242 156.89 57.3553 157.173 61.371C157.256 62.5124 157.353 63.6539 157.477 64.7953C157.513 65.1192 158.029 65.1244 157.993 64.7953C157.565 60.7951 157.39 56.7692 157.462 52.7432C157.482 51.5966 157.524 50.4552 157.591 49.3086C157.606 48.9795 157.091 48.9795 157.075 49.3086Z" fill="#174D6A"/>
<path d="M169.301 96.8692C174.357 96.3705 179.697 97.0081 183.965 99.9542C185.052 100.705 186.037 101.6 186.882 102.612C186.99 102.741 187.171 102.556 187.062 102.432C183.846 98.5763 178.862 96.7715 173.95 96.4939C172.399 96.4065 170.847 96.4579 169.301 96.6121C169.136 96.6276 169.136 96.8847 169.301 96.8692Z" fill="#174D6A"/>
<path d="M116.419 122.341C120.568 122.408 124.717 122.439 128.871 122.444C133.005 122.454 137.139 122.444 141.272 122.439C142.319 122.439 143.365 122.434 144.411 122.434C145.375 122.434 146.349 122.47 147.318 122.429C148.282 122.387 149.189 121.961 149.962 121.405C151.792 120.094 153.168 118.182 154.354 116.3C155.127 115.066 155.854 113.785 156.467 112.464C156.477 112.443 156.488 112.423 156.498 112.397C156.585 112.207 156.549 111.986 156.359 111.868C156.194 111.77 155.915 111.816 155.828 112.006C155.333 113.091 154.751 114.14 154.137 115.163C153.029 117.025 151.761 118.896 150.096 120.32C149.4 120.917 148.607 121.431 147.72 121.606C147.524 121.647 147.328 121.657 147.086 121.657C146.571 121.657 146.055 121.657 145.545 121.657C144.514 121.657 143.489 121.657 142.458 121.662C138.376 121.668 134.293 121.678 130.211 121.673C126.129 121.668 122.047 121.647 117.965 121.59C117.449 121.585 116.934 121.575 116.424 121.565C115.919 121.56 115.919 122.331 116.419 122.341Z" fill="#174D6A"/>
<path d="M124.531 12.6073C124.346 17.7901 122.892 26.3922 117.697 26.3922C112.496 26.3922 108.285 22.1863 108.285 17.0035C108.285 11.8206 109.852 6.33447 115.048 6.33447C120.243 6.33447 124.743 6.74581 124.531 12.6073Z" fill="#F7D2AF"/>
<path d="M115.274 65.8752C115.274 65.8752 137.035 65.1965 142.787 68.3946C151.184 73.0684 140.592 113.41 140.592 113.41L133.711 114.325L135.025 96.931L136.649 79.0791C136.649 79.0791 119.372 74.796 114.749 75.1817C110.13 75.5673 103.25 74.2561 103.559 72.5594C103.868 70.8678 115.274 65.8752 115.274 65.8752Z" fill="#174D6A"/>
<path d="M95.6522 70.369C95.6522 70.369 93.7967 76.4053 98.7447 77.1766C103.693 77.9478 128.871 77.7936 128.871 77.7936C128.871 77.7936 122.717 99.6972 120.398 113.991C123.588 113.441 128.381 112.834 128.381 112.834C128.381 112.834 140.87 80.2205 141.427 76.5596C141.978 72.9501 143.519 64.6103 116.723 65.9985C116.723 65.9985 106.44 67.2634 95.6522 70.369Z" fill="#6189B5"/>
<path d="M121.078 115.698L120.356 118.526L136.592 118.783C134.376 115.261 126.902 114.459 126.902 114.459L121.078 115.698Z" fill="#E23656"/>
<path d="M100.94 30.706C97.2809 36.7167 91.9411 53.4272 93.7606 72.0966C96.2346 78.2666 106.517 67.5257 117.681 65.8289C117.681 63.3609 113.398 53.4529 116.645 37.2206C118.295 28.9579 114.944 26.3716 111.254 25.8214C107.146 25.2096 103.09 27.1737 100.94 30.706Z" fill="#E23656"/>
<path d="M108.661 19.6514C109.007 22.9061 107.708 26.3356 107.708 26.3356C107.708 26.3356 110.357 29.2252 114.408 30.4643C114.455 28.2534 115.042 24.0218 115.042 24.0218C115.042 24.0218 111.574 22.8392 108.661 19.6514Z" fill="#F7D2AF"/>
<path d="M136.84 55.4736C136.84 55.4736 136.118 60.0908 133.139 60.4713C133.139 60.4765 131.928 58.5483 136.84 55.4736Z" fill="#322B80"/>
<path d="M134.762 56.0544L139.953 56.8206L137.855 60.8105L131.232 59.9878L134.762 56.0544Z" fill="#F7D2AF"/>
<path d="M102.523 42.1822C103.26 44.2029 109.486 55.895 111.857 57.453C114.228 59.0109 132.675 60.8002 133.139 60.4763C132.52 58.4196 136.917 55.422 136.917 55.422C136.917 55.422 122.532 52.9746 118.511 51.7406C114.491 50.5066 111.141 34.2486 110.46 32.4027C109.357 29.4205 97.3686 28.0683 102.523 42.1822Z" fill="#FA3C65"/>
<path d="M121.995 16.8339C122.155 17.6102 122.248 18.3969 122.258 19.1887C122.264 19.5538 122.315 20.0628 121.825 20.1091C121.439 20.1451 121.016 20.0114 120.666 19.852C120.516 19.7852 120.382 20.0063 120.537 20.0731C121.114 20.3353 122.351 20.7004 122.501 19.7595C122.573 19.2864 122.511 18.762 122.47 18.289C122.423 17.7748 122.346 17.2709 122.243 16.767C122.212 16.6076 121.959 16.6745 121.995 16.8339Z" fill="#174D6A"/>
<path d="M116.81 21.5076C117.924 22.2994 119.212 22.8136 120.563 22.9987C120.887 23.045 121.026 22.5462 120.702 22.5051C119.387 22.32 118.15 21.8316 117.073 21.0654C116.795 20.8701 116.537 21.3174 116.81 21.5076Z" fill="#174D6A"/>
<path d="M116.728 21.4715C116.79 21.3121 116.903 21.1732 117.047 21.0807C117.186 20.9881 117.058 20.767 116.918 20.8596C116.712 20.9933 116.568 21.1784 116.48 21.4046C116.419 21.5589 116.666 21.6257 116.728 21.4715Z" fill="#174D6A"/>
<path d="M138.736 62.1167C141.721 61.5459 144.705 60.9547 147.684 60.3531C148.169 60.2554 148.669 59.8286 148.911 59.4122C149.168 58.9751 149.277 58.3273 149.117 57.8337C148.957 57.3401 148.648 56.8619 148.174 56.61C147.669 56.3426 147.158 56.2912 146.591 56.4043C143.612 57.0059 140.633 57.5972 137.644 58.1679C137.159 58.2604 136.659 58.6975 136.417 59.1088C136.159 59.5458 136.051 60.1937 136.211 60.6873C136.371 61.1809 136.68 61.6591 137.154 61.911C137.669 62.1784 138.169 62.2246 138.736 62.1167Z" fill="#174D6A"/>
<path d="M138.623 56.9491C138.2 57.0931 137.798 57.3245 137.51 57.6638C137.221 58.0032 136.556 58.6767 136.762 58.6818C137.149 58.687 138.736 58.8001 139.082 58.9698C139.422 59.1292 139.556 59.957 139.829 60.2141C139.911 60.2912 139.994 60.3683 140.051 60.4609C140.102 60.5534 140.133 60.6614 140.174 60.7591C140.36 61.1755 140.875 61.4069 141.308 61.2732C141.581 61.1858 141.813 60.975 142.102 60.9596C142.396 60.939 142.71 61.1241 142.963 60.9802C143.19 60.8516 143.267 60.4968 143.53 60.466C143.669 60.4506 143.793 60.5328 143.921 60.5791C144.2 60.6717 144.53 60.5534 144.72 60.3272C144.911 60.1009 144.973 59.7873 144.932 59.4942C145.045 59.705 145.158 59.9261 145.344 60.0804C145.53 60.2346 145.792 60.3169 146.014 60.2192C146.174 60.1472 146.277 59.993 146.354 59.8387C146.633 59.2577 146.576 58.5636 146.385 57.9466C146.205 57.3656 145.911 56.8257 145.53 56.3527C145.401 56.1933 145.241 56.0699 145.086 55.9311C144.293 55.2267 143.865 55.6226 143.303 55.8334C142.746 56.0442 142.066 55.8334 141.484 55.9516C141.2 56.0082 140.989 56.5326 140.7 56.5429C140.303 56.5532 139.937 56.3218 139.566 56.4555C139.211 56.5789 138.623 56.9491 138.623 56.9491Z" fill="#F7D2AF"/>
<path d="M115.078 19.7079C115.078 19.7079 121.042 18.2014 123.944 17.8672C126.041 21.1116 123.201 28.6956 118.851 27.369C117.702 27.0194 115.377 26.2996 114.821 25.4357C113.305 23.1014 115.078 19.7079 115.078 19.7079Z" fill="#00D1D3"/>
<path d="M116.042 19.8983C115.728 19.8366 115.46 19.6926 115.182 19.5435C114.862 19.3738 114.548 19.2041 114.228 19.0396C113.61 18.7105 112.986 18.3815 112.367 18.0524C111.929 17.821 111.537 18.4843 111.976 18.7208C112.625 19.0653 113.274 19.4098 113.924 19.7543C114.527 20.0731 115.156 20.5101 115.831 20.6438C116.321 20.7415 116.532 19.996 116.042 19.8983Z" fill="#00D1D3"/>
<path d="M115.058 24.8085C114.197 24.3303 113.414 23.7442 112.651 23.1272C112.305 22.8495 111.893 22.577 111.625 22.2171C111.362 21.8623 111.295 21.3995 111.239 20.9728C111.213 20.7671 111.079 20.5872 110.852 20.5872C110.666 20.5872 110.44 20.7671 110.465 20.9728C110.532 21.4715 110.599 21.9754 110.842 22.4227C111.099 22.8958 111.543 23.2197 111.955 23.5539C112.816 24.248 113.692 24.9319 114.666 25.4718C115.104 25.7186 115.496 25.0501 115.058 24.8085Z" fill="#00D1D3"/>
<path d="M116.14 21.6928C117.537 22.1812 118.991 22.4846 120.465 22.6028C120.63 22.6183 120.63 22.3612 120.465 22.3458C119.011 22.2275 117.583 21.9241 116.207 21.446C116.047 21.3894 115.98 21.6413 116.14 21.6928Z" fill="#174D6A"/>
<path d="M115.924 23.0297C117.367 24.0014 118.98 24.6904 120.686 25.0555C120.846 25.0915 120.918 24.8447 120.753 24.8087C119.073 24.4488 117.48 23.7701 116.053 22.8086C115.919 22.716 115.79 22.9371 115.924 23.0297Z" fill="#174D6A"/>
<path d="M123.408 22.4022C123.774 22.3405 124.124 22.2428 124.464 22.0988C124.614 22.0371 124.547 21.7852 124.397 21.852C124.057 21.996 123.707 22.0937 123.341 22.1554C123.176 22.1811 123.248 22.433 123.408 22.4022Z" fill="#174D6A"/>
<path d="M125.923 10.8026C125.505 13.1729 115.64 12.1754 114.161 12.8336C112.78 15.9494 115.46 23.1324 109.192 22.8341C107.095 22.8341 101.878 17.096 101.878 10.818C101.878 4.54005 106.306 0.838046 113.311 0.0667939C119.573 -0.617049 125.557 3.86135 125.923 10.8026Z" fill="#174D6A"/>
<path d="M125.789 9.59937C125.928 9.64564 128.294 12.4222 128.294 12.4222C128.294 12.4222 120.717 13.9492 115.929 13.3939C111.141 12.8386 111.594 12.0519 111.594 12.0519L125.789 9.59937Z" fill="#F9A035"/>
<path fill-rule="evenodd" clip-rule="evenodd" d="M119.449 15.7334C119.872 15.7334 120.212 16.1602 120.212 16.6846C120.212 17.2091 119.872 17.6358 119.449 17.6358C119.027 17.6358 118.686 17.2091 118.686 16.6846C118.681 16.1602 119.027 15.7334 119.449 15.7334Z" fill="#174D6A"/>
<path fill-rule="evenodd" clip-rule="evenodd" d="M123.887 15.5176C124.253 15.5176 124.547 15.8981 124.547 16.3608C124.547 16.8287 124.253 17.2041 123.887 17.2041C123.521 17.2041 123.227 16.8236 123.227 16.3608C123.227 15.8981 123.521 15.5176 123.887 15.5176Z" fill="#174D6A"/>
<path d="M117.8 15.3529C117.656 15.3529 117.516 15.2861 117.429 15.1575C117.29 14.9519 117.346 14.6794 117.552 14.5405C118.114 14.1652 119.042 13.8361 119.846 13.9544C120.088 13.9904 120.258 14.2166 120.222 14.4583C120.186 14.6999 119.96 14.8696 119.717 14.8336C119.238 14.7616 118.537 14.9467 118.047 15.2758C117.97 15.3324 117.888 15.3529 117.8 15.3529Z" fill="#174D6A"/>
<path d="M124.526 15.1011C124.433 15.1011 124.341 15.0702 124.258 15.0137C124.016 14.8337 123.583 14.7 123.248 14.7103C123.001 14.7155 122.8 14.5201 122.794 14.2784C122.789 14.0316 122.985 13.8311 123.227 13.8259C123.676 13.8157 124.33 13.9648 124.789 14.3093C124.985 14.4584 125.026 14.736 124.877 14.9314C124.794 15.0394 124.665 15.1011 124.526 15.1011Z" fill="#174D6A"/>
<path d="M63.1238 96.8125C63.397 96.4269 63.6186 96.1235 63.8867 95.8048C64.031 95.6351 64.1805 95.4706 64.3402 95.3163C64.4176 95.2392 64.5 95.1621 64.5825 95.0901C64.6237 95.0541 64.665 95.0181 64.7062 94.9821C64.8196 94.8895 64.567 95.0746 64.7784 94.9255C65.1598 94.653 65.4948 94.4936 65.9174 94.3754C66.4174 94.2366 66.9277 94.1646 67.4431 94.0977C67.8554 94.0412 68.0822 93.5116 67.9843 93.1465C67.8606 92.6992 67.4483 92.5501 67.0308 92.6066C65.9329 92.7558 64.8402 92.9614 63.9279 93.635C63.0517 94.2828 62.4126 95.1466 61.7837 96.0207C61.5415 96.3601 61.7219 96.8794 62.0621 97.0747C62.4538 97.3164 62.8816 97.1519 63.1238 96.8125Z" fill="white"/>
<path d="M70.649 93.8972C71.051 93.8972 71.4427 93.5425 71.4221 93.126C71.4015 92.7095 71.082 92.3547 70.649 92.3547C70.247 92.3547 69.8553 92.7095 69.8759 93.126C69.8965 93.5476 70.216 93.8972 70.649 93.8972Z" fill="white"/>
<path d="M183.32 98.823C181.511 97.6147 179.599 96.5092 177.393 96.2984C176.991 96.2573 176.604 96.6789 176.62 97.0697C176.641 97.5221 176.96 97.7998 177.393 97.8409C177.584 97.8615 177.738 97.8821 177.981 97.9335C178.228 97.9849 178.47 98.0466 178.713 98.1237C179.192 98.2728 179.548 98.4219 179.98 98.6327C180.877 99.0698 181.717 99.6096 182.542 100.16C182.887 100.391 183.398 100.227 183.599 99.8821C183.82 99.4965 183.666 99.0543 183.32 98.823Z" fill="white"/>
<path d="M174.301 97.3936C174.703 97.3936 175.094 97.0388 175.074 96.6223C175.053 96.2058 174.734 95.8511 174.301 95.8511C173.899 95.8511 173.507 96.2058 173.527 96.6223C173.548 97.0439 173.868 97.3936 174.301 97.3936Z" fill="white"/>
<path d="M152.838 51.8845C152.787 51.9051 152.802 51.8999 152.895 51.8691C152.952 51.8537 153.003 51.8382 153.06 51.828C153.178 51.8022 153.297 51.7817 153.416 51.7611C153.663 51.7148 153.916 51.6737 154.163 51.6326C154.653 51.5555 155.127 51.4886 155.616 51.4269C156.018 51.3806 156.41 51.1081 156.39 50.6557C156.374 50.2803 156.044 49.833 155.616 49.8844C154.993 49.9616 154.374 50.0438 153.756 50.1415C153.178 50.2341 152.596 50.306 152.06 50.5528C151.679 50.7277 151.586 51.2727 151.782 51.6069C152.008 51.9976 152.457 52.0593 152.838 51.8845Z" fill="white"/>
<path d="M104.971 9.21383C105.002 8.95674 104.94 9.35265 104.987 9.09557C105.002 9.0133 105.017 8.93618 105.033 8.85391C105.064 8.70994 105.105 8.56598 105.146 8.42201C105.193 8.27804 105.239 8.13922 105.296 8.00039C105.255 8.10322 105.347 7.88213 105.347 7.88727C105.383 7.81529 105.419 7.73816 105.456 7.66618C105.76 7.08517 106.043 6.72525 106.528 6.28307C106.837 6.00028 106.811 5.47582 106.528 5.19303C106.218 4.88453 105.744 4.91024 105.435 5.19303C104.28 6.24193 103.605 7.67646 103.425 9.21383C103.378 9.61488 103.811 10.0005 104.198 9.98508C104.657 9.96451 104.92 9.64573 104.971 9.21383Z" fill="white"/>
<path d="M108.069 4.84329C108.471 4.84329 108.862 4.48851 108.842 4.07203C108.821 3.65556 108.502 3.30078 108.069 3.30078C107.667 3.30078 107.275 3.65556 107.296 4.07203C107.316 4.49365 107.636 4.84329 108.069 4.84329Z" fill="white"/>
<path d="M40.4555 48.1414C41.9245 48.1414 43.3934 48.1414 44.8624 48.1414C45.2644 48.1414 45.6561 47.7866 45.6355 47.3701C45.6149 46.9537 45.2953 46.5989 44.8624 46.5989C43.3934 46.5989 41.9245 46.5989 40.4555 46.5989C40.0535 46.5989 39.6618 46.9537 39.6824 47.3701C39.6979 47.7917 40.0226 48.1414 40.4555 48.1414Z" fill="white"/>
<path d="M47.1303 48.1877C47.5323 48.1877 47.924 47.833 47.9034 47.4165C47.8828 47 47.5632 46.6453 47.1303 46.6453C46.7282 46.6453 46.3365 47 46.3571 47.4165C46.3778 47.8381 46.6973 48.1877 47.1303 48.1877Z" fill="white"/>
<path d="M105.904 36.259L48.2126 35.7962L105.904 35.3335V36.259Z" fill="#E0E0E0"/>
<path d="M90.8124 39.344L33.1211 38.8812L90.8124 38.4185V39.344Z" fill="#E0E0E0"/>
<path d="M100.683 69.2635L42.9863 68.8007L100.683 68.3379V69.2635Z" fill="#E0E0E0"/>
<path d="M86.6117 114.922L28.9152 114.459L86.6117 113.996V114.922Z" fill="#E0E0E0"/>
<path d="M63.9537 55.7153L6.25723 55.2525L63.9537 54.7898V55.7153Z" fill="#E0E0E0"/>
<path d="M57.6964 63.7002L0 63.2374L57.6964 62.7747V63.7002Z" fill="#E0E0E0"/>
</g>
<defs>
<clipPath id="clip0_50_1121">
<rect width="194" height="135" fill="white"/>
</clipPath>
</defs>
</svg>
