<svg width="58" height="52" viewBox="0 0 58 52" fill="none" xmlns="http://www.w3.org/2000/svg">
<path d="M42.766 45.504C44.628 45.771 46.635 45.649 48.673 45.053C53.255 43.712 56.66 40.086 57.259 36.118C57.578 34.005 57.139 32.049 56.154 30.401C55.449 29.221 55.484 27.757 56.29 26.602C57.376 25.044 58 23.214 58 21.247C58 16.957 54.994 13.071 50.577 11.254C48.505 10.402 46.904 8.75002 46.288 6.79502C44.988 2.67202 42.043 0.74802 37.821 0.13102C34.016 -0.42498 30.57 0.831021 28.754 3.20102C27.689 4.59102 25.444 5.18002 23.144 4.61902C21.78 4.28602 20.323 4.09602 18.8 4.08302C12.405 4.02802 6.949 7.33302 6.037 12.092C5.725 13.72 5.947 15.317 6.597 16.8C7.703 19.326 6.689 22.024 4.09 23.922C1.57 25.763 0 28.265 0 31.013C0 34.298 5.326 36.919 9.847 38.483C13.273 39.669 15.358 41.982 15.84 44.663C15.846 44.699 15.853 44.734 15.86 44.77C16.726 49.222 21.623 52.201 27.389 51.989C31.997 51.82 36.007 49.832 38.443 47.127C39.508 45.945 41.23 45.284 42.766 45.504Z" fill="#FAF5E5"/>
<path d="M36.5 39C43.4036 39 49 33.4036 49 26.5C49 19.5964 43.4036 14 36.5 14C29.5964 14 24 19.5964 24 26.5C24 33.4036 29.5964 39 36.5 39Z" fill="#F8B600"/>
<path d="M34 19.374C33.572 19.374 33.1769 19.098 33.0439 18.668C32.8819 18.141 33.178 17.581 33.706 17.418C34.607 17.141 35.548 17 36.5 17C37.053 17 37.5 17.447 37.5 18C37.5 18.553 37.053 19 36.5 19C35.747 19 35.0049 19.111 34.2939 19.33C34.1959 19.36 34.097 19.374 34 19.374Z" fill="#F4C45B"/>
<path d="M28 27.5001C27.447 27.5001 27 27.0531 27 26.5001C27 23.6931 28.231 21.0461 30.379 19.2351C30.802 18.8791 31.432 18.9341 31.788 19.3551C32.143 19.7771 32.09 20.4081 31.668 20.7641C29.973 22.1941 29 24.2841 29 26.5001C29 27.0531 28.553 27.5001 28 27.5001Z" fill="#F4C45B"/>
<path d="M9.99897 14C9.81097 14 9.62197 13.947 9.45297 13.837C8.99097 13.535 8.85997 12.916 9.16297 12.453C10.442 10.493 12.161 9.02402 14.27 8.08502C14.776 7.86202 15.366 8.08802 15.59 8.59302C15.814 9.09702 15.587 9.68902 15.082 9.91302C13.33 10.692 11.901 11.915 10.836 13.547C10.646 13.841 10.325 14 9.99897 14Z" fill="white"/>
<path d="M21.0011 9C20.9551 9 20.9091 8.997 20.8621 8.99C20.8411 8.988 19.9401 8.871 18.651 8.995C18.094 9.047 17.6121 8.646 17.5591 8.097C17.5051 7.547 17.9081 7.058 18.4571 7.005C20.0081 6.855 21.0931 7.004 21.1391 7.01C21.6861 7.087 22.0671 7.593 21.9901 8.14C21.9201 8.64 21.4911 9 21.0011 9Z" fill="white"/>
<path d="M24.239 47.966C21.144 47.966 18.439 45.748 17.905 42.654C17.811 42.11 18.176 41.592 18.72 41.499C19.263 41.404 19.782 41.77 19.875 42.314C20.271 44.605 22.396 46.194 24.726 45.939L24.875 45.922C25.429 45.853 25.923 46.242 25.991 46.79C26.059 47.338 25.671 47.838 25.123 47.906L24.96 47.925C24.719 47.953 24.478 47.966 24.239 47.966Z" fill="white"/>
<path d="M17.96 41.0001C17.623 41.0001 17.295 40.8301 17.106 40.5221C16.384 39.3431 15.487 38.7731 15.478 38.7671C15.006 38.4791 14.858 37.8641 15.147 37.3931C15.435 36.9211 16.052 36.7711 16.521 37.0621C16.575 37.0941 17.83 37.8741 18.811 39.4771C19.1 39.9491 18.952 40.5641 18.481 40.8521C18.318 40.9521 18.138 41.0001 17.96 41.0001Z" fill="white"/>
<path d="M43.2218 35.1249C46.6598 32.8148 48.3232 29.2699 46.9372 27.2071C45.5511 25.1444 41.6405 25.3448 38.2025 27.6549C34.7646 29.965 33.1011 33.5099 34.4872 35.5726C35.8732 37.6354 39.7839 37.435 43.2218 35.1249Z" fill="#F79B21"/>
</svg>
