<svg width="15" height="13" viewBox="0 0 15 13" fill="none" xmlns="http://www.w3.org/2000/svg">
<path d="M14.4141 7.54004C14.7377 7.54004 15 7.27771 15 6.9541V3.11621C15 1.82387 13.9486 0.772461 12.6562 0.772461H2.34375C1.05141 0.772461 0 1.82387 0 3.11621V9.88379C0 11.1761 1.05141 12.2275 2.34375 12.2275H12.6562C13.9486 12.2275 15 11.1761 15 9.88379C15 9.56018 14.7377 9.29785 14.4141 9.29785C14.0904 9.29785 13.8281 9.56018 13.8281 9.88379C13.8281 10.53 13.3024 11.0557 12.6562 11.0557H2.34375C1.69758 11.0557 1.17188 10.53 1.17188 9.88379V3.24037L6.26235 6.40575C6.64406 6.64309 7.07203 6.76177 7.5 6.76177C7.92797 6.76177 8.35594 6.64309 8.73765 6.40575L13.8281 3.24037V6.9541C13.8281 7.27771 14.0904 7.54004 14.4141 7.54004ZM8.11881 5.41057C7.73713 5.6479 7.26287 5.64793 6.88119 5.41057L1.66081 2.16441C1.85323 2.02596 2.08913 1.94434 2.34375 1.94434H12.6562C12.9109 1.94434 13.1468 2.02599 13.3392 2.16444L8.11881 5.41057Z" fill="white"/>
</svg>
