<svg width="44" height="55" viewBox="0 0 44 55" fill="none" xmlns="http://www.w3.org/2000/svg">
<path d="M6.21698 19.913C5.88198 19.913 5.55398 19.744 5.36498 19.437C4.75098 18.442 3.60398 17.291 2.28698 17.333C1.72698 17.303 1.27298 16.915 1.25698 16.364C1.23998 15.811 1.67398 15.35 2.22598 15.333C4.33298 15.27 6.12998 16.867 7.06698 18.388C7.35698 18.858 7.21098 19.474 6.74098 19.764C6.57798 19.865 6.39598 19.913 6.21698 19.913Z" fill="#436B1C"/>
<path d="M26.684 6.59697C26.55 4.64897 24.931 3.10897 22.949 3.10897C22.943 3.10897 22.938 3.10997 22.932 3.10997C22.967 2.81497 22.947 2.50297 22.852 2.17797C22.584 1.26397 21.78 0.561969 20.834 0.448969C20.058 0.356969 19.346 0.634969 18.847 1.12797C18.372 0.698969 17.75 0.430969 17.06 0.430969C15.581 0.430969 14.383 1.62997 14.383 3.10797C14.383 3.11297 14.384 3.11697 14.384 3.12197C12.587 3.25797 11.17 4.75697 11.17 6.58897C11.17 6.86897 11.207 7.13997 11.269 7.40097C9.12999 7.48997 7.42199 9.24797 7.42199 11.409C7.42199 12.141 7.62099 12.825 7.96299 13.416C7.30599 13.956 6.88599 14.775 6.88599 15.692C6.88599 16.53 7.24099 17.281 7.80299 17.816C10.215 15.845 12.749 22.437 15.733 27.7C16.724 29.448 27.431 27.586 28.284 28.672C29.256 27.798 29.884 12.578 29.911 11.241C29.953 9.09597 28.591 7.26597 26.684 6.59697Z" fill="#88C057"/>
<path d="M28.053 26.533L28.766 26.106C30.086 25.314 31.734 25.314 33.053 26.106L33.766 26.533C35.086 27.325 36.734 27.325 38.053 26.533L40.068 25.637C40.364 24.811 40.57 24.213 40.652 23.948C42.532 17.901 43.743 11.534 43.908 5.18299C43.974 2.62899 41.862 -1.35401 38.353 0.455993C34.904 2.23399 32.434 9.05299 30.698 12.291C28.232 16.892 26.282 21.896 24.893 26.995C25.951 27.262 27.089 27.111 28.053 26.533Z" fill="#EEAF4B"/>
<path d="M2.05498 25.506L3.39998 26.313C4.94498 27.24 6.87498 27.24 8.41998 26.313L8.76598 26.105C10.086 25.313 11.734 25.313 13.053 26.105L13.766 26.532C14.541 26.997 15.429 27.181 16.297 27.1C16.937 25.033 16.722 22.449 15.73 20.7C12.394 14.815 9.61898 16.014 6.94898 18.569C6.43698 19.059 5.81098 19.418 5.12898 19.613C2.20098 20.45 0.0399784 21.819 1.26898 25.547C1.48598 25.389 1.78798 25.346 2.05498 25.506Z" fill="#ED3F32"/>
<path d="M30.592 24.356C30.486 24.356 30.377 24.339 30.271 24.303C29.748 24.125 29.468 23.557 29.646 23.034C30.313 21.072 32.455 20.022 34.414 20.682C35.333 20.995 36.334 20.501 36.646 19.582C36.823 19.059 37.389 18.777 37.915 18.956C38.438 19.134 38.718 19.702 38.54 20.225C37.874 22.188 35.734 23.242 33.772 22.577C32.854 22.265 31.853 22.76 31.54 23.677C31.397 24.095 31.008 24.356 30.592 24.356Z" fill="#A46F3E"/>
<path d="M32.957 17.389C32.851 17.389 32.742 17.372 32.636 17.336C32.113 17.158 31.833 16.59 32.011 16.067C32.334 15.116 33.008 14.347 33.908 13.903C34.808 13.459 35.827 13.392 36.779 13.715C37.7 14.029 38.699 13.534 39.011 12.614C39.188 12.09 39.756 11.809 40.279 11.988C40.802 12.166 41.082 12.734 40.904 13.257C40.238 15.221 38.098 16.273 36.136 15.61C35.691 15.458 35.213 15.489 34.792 15.697C34.371 15.905 34.056 16.264 33.904 16.71C33.763 17.127 33.374 17.389 32.957 17.389Z" fill="#A46F3E"/>
<path d="M35.323 10.421C35.217 10.421 35.108 10.404 35.001 10.368C34.478 10.19 34.198 9.62197 34.376 9.09897C34.96 7.37697 36.839 6.45297 38.561 7.03497C38.891 7.14697 39.243 7.12497 39.554 6.97197C39.865 6.81897 40.098 6.55297 40.21 6.22397C40.387 5.70097 40.954 5.41997 41.479 5.59797C42.002 5.77597 42.282 6.34397 42.104 6.86697C41.82 7.70197 41.229 8.37697 40.439 8.76597C39.648 9.15597 38.753 9.21297 37.918 8.92997C37.24 8.69897 36.5 9.06397 36.27 9.74297C36.128 10.159 35.739 10.421 35.323 10.421Z" fill="#A46F3E"/>
<path d="M18.37 14.095C17.425 15.352 15.934 16.84 16.508 19.468L18.052 26.533H18.053L18.766 26.106C20.086 25.314 21.734 25.314 23.053 26.106L23.766 26.533C24.346 26.881 24.893 26.996 24.893 26.996C25.935 23.173 27.292 19.403 28.945 15.817C28.171 13.881 26.518 13.233 25.318 12.57C25.311 12.566 25.304 12.562 25.298 12.559C24.539 12.124 24.492 11.085 25.063 10.423C25.288 10.162 25.392 9.80302 25.314 9.44302L25.193 8.89102C25.06 8.28302 24.454 7.89502 23.847 8.02802L17.77 9.35402C17.162 9.48702 16.774 10.093 16.907 10.7L17.028 11.252C17.108 11.62 17.362 11.905 17.684 12.044C18.423 12.363 18.874 13.188 18.496 13.899C18.46 13.966 18.418 14.031 18.37 14.095Z" fill="#DAE7EF"/>
<path d="M24.746 10.899L17.867 12.402C17.108 12.568 16.35 12.082 16.184 11.323L16.085 10.871C15.919 10.112 16.405 9.35399 17.164 9.18799L24.043 7.68499C24.802 7.51899 25.56 8.00499 25.726 8.76399L25.825 9.21599C25.991 9.97599 25.505 10.733 24.746 10.899Z" fill="white"/>
<path d="M41.816 25.3321L40.071 50.3611C39.943 52.8601 37.88 54.8201 35.378 54.8201H7.30699C4.80499 54.8201 2.74199 52.8601 2.61399 50.3611L0.910989 26.1531C0.881989 25.5841 1.49899 25.2131 1.98799 25.5061L3.33299 26.3131C4.87799 27.2401 6.80799 27.2401 8.35299 26.3131L8.69899 26.1051C10.019 25.3131 11.667 25.3131 12.986 26.1051L13.699 26.5331C15.019 27.3251 16.667 27.3251 17.986 26.5331L18.699 26.1051C20.019 25.3131 21.667 25.3131 22.986 26.1051L23.699 26.5331C25.019 27.3251 26.667 27.3251 27.986 26.5331L28.699 26.1051C30.019 25.3131 31.667 25.3131 32.986 26.1051L33.699 26.5331C35.019 27.3251 36.667 27.3251 37.986 26.5331L41.373 25.0281C41.588 24.9321 41.828 25.0971 41.816 25.3321Z" fill="#FBD490"/>
<path d="M12.91 42H5.91C5.358 42 4.91 41.553 4.91 41C4.91 40.447 5.358 40 5.91 40H12.91C13.462 40 13.91 40.447 13.91 41C13.91 41.553 13.462 42 12.91 42Z" fill="#E0B877"/>
<path d="M14.91 46H5.91C5.358 46 4.91 45.553 4.91 45C4.91 44.447 5.358 44 5.91 44H14.91C15.462 44 15.91 44.447 15.91 45C15.91 45.553 15.462 46 14.91 46Z" fill="#E0B877"/>
<path d="M16.91 50H5.91C5.358 50 4.91 49.553 4.91 49C4.91 48.447 5.358 48 5.91 48H16.91C17.462 48 17.91 48.447 17.91 49C17.91 49.553 17.462 50 16.91 50Z" fill="#E0B877"/>
<path d="M22.91 50H20.91C20.358 50 19.91 49.553 19.91 49C19.91 48.447 20.358 48 20.91 48H22.91C23.462 48 23.91 48.447 23.91 49C23.91 49.553 23.462 50 22.91 50Z" fill="#E0B877"/>
</svg>
