<svg width="16" height="14" viewBox="0 0 16 14" fill="none" xmlns="http://www.w3.org/2000/svg">
<path d="M14.7397 1.47418C13.9536 0.678153 12.8697 0.239746 11.6875 0.239746C9.62075 0.239746 8.55216 1.30318 8.01966 2.19528C8.01303 2.20634 8.00647 2.21743 8 2.2285C7.99353 2.21743 7.98697 2.20634 7.98034 2.19528C7.44784 1.30318 6.37925 0.239746 4.3125 0.239746C3.13034 0.239746 2.04641 0.678152 1.26031 1.47422C0.435813 2.30918 0 3.45215 0 4.77956C0 7.59825 2.50566 9.46709 4.71631 11.1159C5.81784 11.9375 6.85828 12.7135 7.51312 13.5271C7.63175 13.6745 7.81078 13.7602 8 13.7602C8.18922 13.7602 8.36825 13.6745 8.48691 13.5272C8.82372 13.1087 9.29191 12.6637 9.96041 12.1268C10.2295 11.9107 10.2724 11.5172 10.0563 11.2481C9.84016 10.9791 9.44675 10.9361 9.17762 11.1522C8.706 11.531 8.32025 11.8736 8.00028 12.1992C7.29378 11.479 6.39956 10.812 5.46366 10.114C3.39209 8.56887 1.25 6.97115 1.25 4.77956C1.25 2.84256 2.50934 1.48975 4.3125 1.48975C5.48497 1.48975 6.35072 1.93084 6.88562 2.80075C7.31031 3.49128 7.37637 4.21006 7.37681 4.2145C7.40187 4.54009 7.67331 4.79287 7.99984 4.79287C8.32644 4.79287 8.59784 4.54284 8.62291 4.21725C8.62356 4.21006 8.68962 3.49128 9.11431 2.80075C9.64928 1.93084 10.515 1.48975 11.6875 1.48975C13.4907 1.48975 14.75 2.84256 14.75 4.77956C14.75 6.59325 13.2734 7.99944 11.6777 9.24884C11.4059 9.46162 11.3581 9.85447 11.5709 10.1262C11.7836 10.398 12.1765 10.4458 12.4483 10.233C13.2073 9.63869 14.1694 8.83553 14.8771 7.89237C15.6327 6.8854 16 5.86719 16 4.77956C16 3.45215 15.5642 2.30918 14.7397 1.47418Z" fill="#86BC42"/>
</svg>
