<svg width="55" height="55" viewBox="0 0 55 55" fill="none" xmlns="http://www.w3.org/2000/svg">
<g clip-path="url(#clip0_49_181)">
<path d="M11.217 19.913C10.882 19.913 10.554 19.744 10.365 19.437C9.75098 18.442 8.60398 17.291 7.28698 17.333C6.72698 17.303 6.27298 16.915 6.25698 16.364C6.23998 15.811 6.67398 15.35 7.22598 15.333C9.33298 15.27 11.13 16.867 12.067 18.388C12.357 18.858 12.211 19.474 11.741 19.764C11.578 19.865 11.396 19.913 11.217 19.913Z" fill="#436B1C"/>
<path d="M31.684 6.59697C31.55 4.64897 29.931 3.10897 27.949 3.10897C27.943 3.10897 27.938 3.10997 27.932 3.10997C27.967 2.81497 27.947 2.50297 27.852 2.17797C27.584 1.26397 26.78 0.561969 25.834 0.448969C25.058 0.356969 24.346 0.634969 23.847 1.12797C23.372 0.698969 22.75 0.430969 22.06 0.430969C20.581 0.430969 19.383 1.62997 19.383 3.10797C19.383 3.11297 19.384 3.11697 19.384 3.12197C17.587 3.25797 16.17 4.75697 16.17 6.58897C16.17 6.86897 16.207 7.13997 16.269 7.40097C14.13 7.48997 12.422 9.24797 12.422 11.409C12.422 12.141 12.621 12.825 12.963 13.416C12.306 13.956 11.886 14.775 11.886 15.692C11.886 16.53 12.241 17.281 12.803 17.816C15.215 15.845 17.749 22.437 20.733 27.7C21.724 29.448 32.431 27.586 33.284 28.672C34.256 27.798 34.884 12.578 34.911 11.241C34.953 9.09597 33.591 7.26597 31.684 6.59697Z" fill="#88C057"/>
<path d="M33.053 26.533L33.766 26.106C35.086 25.314 36.734 25.314 38.053 26.106L38.766 26.533C40.086 27.325 41.734 27.325 43.053 26.533L45.068 25.637C45.364 24.811 45.57 24.213 45.652 23.948C47.532 17.901 48.743 11.534 48.908 5.18299C48.974 2.62899 46.862 -1.35401 43.353 0.455993C39.904 2.23399 37.434 9.05299 35.698 12.291C33.232 16.892 31.282 21.896 29.893 26.995C30.951 27.262 32.089 27.111 33.053 26.533Z" fill="#EEAF4B"/>
<path d="M7.05498 25.506L8.39998 26.313C9.94498 27.24 11.875 27.24 13.42 26.313L13.766 26.105C15.086 25.313 16.734 25.313 18.053 26.105L18.766 26.532C19.541 26.997 20.429 27.181 21.297 27.1C21.937 25.033 21.722 22.449 20.73 20.7C17.394 14.815 14.619 16.014 11.949 18.569C11.437 19.059 10.811 19.418 10.129 19.613C7.20098 20.45 5.03998 21.819 6.26898 25.547C6.48598 25.389 6.78798 25.346 7.05498 25.506Z" fill="#ED3F32"/>
<path d="M35.592 24.356C35.486 24.356 35.377 24.339 35.271 24.303C34.748 24.125 34.468 23.557 34.646 23.034C35.313 21.072 37.455 20.022 39.414 20.682C40.333 20.995 41.334 20.501 41.646 19.582C41.823 19.059 42.389 18.777 42.915 18.956C43.438 19.134 43.718 19.702 43.54 20.225C42.874 22.188 40.734 23.242 38.772 22.577C37.854 22.265 36.853 22.76 36.54 23.677C36.397 24.095 36.008 24.356 35.592 24.356Z" fill="#A46F3E"/>
<path d="M37.957 17.389C37.851 17.389 37.742 17.372 37.636 17.336C37.113 17.158 36.833 16.59 37.011 16.067C37.334 15.116 38.008 14.347 38.908 13.903C39.808 13.459 40.827 13.392 41.779 13.715C42.7 14.029 43.699 13.534 44.011 12.614C44.188 12.09 44.756 11.809 45.279 11.988C45.802 12.166 46.082 12.734 45.904 13.257C45.238 15.221 43.098 16.273 41.136 15.61C40.691 15.458 40.213 15.489 39.792 15.697C39.371 15.905 39.056 16.264 38.904 16.71C38.763 17.127 38.374 17.389 37.957 17.389Z" fill="#A46F3E"/>
<path d="M40.323 10.421C40.217 10.421 40.108 10.404 40.001 10.368C39.478 10.19 39.198 9.62197 39.376 9.09897C39.96 7.37697 41.839 6.45297 43.561 7.03497C43.891 7.14697 44.243 7.12497 44.554 6.97197C44.865 6.81897 45.098 6.55297 45.21 6.22397C45.387 5.70097 45.954 5.41997 46.479 5.59797C47.002 5.77597 47.282 6.34397 47.104 6.86697C46.82 7.70197 46.229 8.37697 45.439 8.76597C44.648 9.15597 43.753 9.21297 42.918 8.92997C42.24 8.69897 41.5 9.06397 41.27 9.74297C41.128 10.159 40.739 10.421 40.323 10.421Z" fill="#A46F3E"/>
<path d="M23.37 14.095C22.425 15.352 20.934 16.84 21.508 19.468L23.052 26.533H23.053L23.766 26.106C25.086 25.314 26.734 25.314 28.053 26.106L28.766 26.533C29.346 26.881 29.893 26.996 29.893 26.996C30.935 23.173 32.292 19.403 33.945 15.817C33.171 13.881 31.518 13.233 30.318 12.57C30.311 12.566 30.304 12.562 30.298 12.559C29.539 12.124 29.492 11.085 30.063 10.423C30.288 10.162 30.392 9.80302 30.314 9.44302L30.193 8.89102C30.06 8.28302 29.454 7.89502 28.847 8.02802L22.77 9.35402C22.162 9.48702 21.774 10.093 21.907 10.7L22.028 11.252C22.108 11.62 22.362 11.905 22.684 12.044C23.423 12.363 23.874 13.188 23.496 13.899C23.46 13.966 23.418 14.031 23.37 14.095Z" fill="#DAE7EF"/>
<path d="M29.746 10.899L22.867 12.402C22.108 12.568 21.35 12.082 21.184 11.323L21.085 10.871C20.919 10.112 21.405 9.35399 22.164 9.18799L29.043 7.68499C29.802 7.51899 30.56 8.00499 30.726 8.76399L30.825 9.21599C30.991 9.97599 30.505 10.733 29.746 10.899Z" fill="white"/>
<path d="M46.816 25.3321L45.071 50.3611C44.943 52.8601 42.88 54.8201 40.378 54.8201H12.307C9.80499 54.8201 7.74199 52.8601 7.61399 50.3611L5.91099 26.1531C5.88199 25.5841 6.49899 25.2131 6.98799 25.5061L8.33299 26.3131C9.87799 27.2401 11.808 27.2401 13.353 26.3131L13.699 26.1051C15.019 25.3131 16.667 25.3131 17.986 26.1051L18.699 26.5331C20.019 27.3251 21.667 27.3251 22.986 26.5331L23.699 26.1051C25.019 25.3131 26.667 25.3131 27.986 26.1051L28.699 26.5331C30.019 27.3251 31.667 27.3251 32.986 26.5331L33.699 26.1051C35.019 25.3131 36.667 25.3131 37.986 26.1051L38.699 26.5331C40.019 27.3251 41.667 27.3251 42.986 26.5331L46.373 25.0281C46.588 24.9321 46.828 25.0971 46.816 25.3321Z" fill="#FBD490"/>
<path d="M17.91 42H10.91C10.358 42 9.91 41.553 9.91 41C9.91 40.447 10.358 40 10.91 40H17.91C18.462 40 18.91 40.447 18.91 41C18.91 41.553 18.462 42 17.91 42Z" fill="#E0B877"/>
<path d="M19.91 46H10.91C10.358 46 9.91 45.553 9.91 45C9.91 44.447 10.358 44 10.91 44H19.91C20.462 44 20.91 44.447 20.91 45C20.91 45.553 20.462 46 19.91 46Z" fill="#E0B877"/>
<path d="M21.91 50H10.91C10.358 50 9.91 49.553 9.91 49C9.91 48.447 10.358 48 10.91 48H21.91C22.462 48 22.91 48.447 22.91 49C22.91 49.553 22.462 50 21.91 50Z" fill="#E0B877"/>
<path d="M27.91 50H25.91C25.358 50 24.91 49.553 24.91 49C24.91 48.447 25.358 48 25.91 48H27.91C28.462 48 28.91 48.447 28.91 49C28.91 49.553 28.462 50 27.91 50Z" fill="#E0B877"/>
</g>
<defs>
<clipPath id="clip0_49_181">
<rect width="54.819" height="54.819" fill="white"/>
</clipPath>
</defs>
</svg>
