<svg width="20" height="18" viewBox="0 0 20 18" fill="none" xmlns="http://www.w3.org/2000/svg">
<path d="M18.4246 2.09274C17.442 1.0977 16.0871 0.54969 14.6094 0.54969C12.0259 0.54969 10.6902 1.87899 10.0246 2.9941C10.0163 3.00793 10.0081 3.0218 10 3.03563C9.99191 3.0218 9.98371 3.00793 9.97543 2.9941C9.3098 1.87899 7.97406 0.54969 5.39062 0.54969C3.91293 0.54969 2.55801 1.0977 1.57539 2.09278C0.544766 3.13649 0 4.5652 0 6.22446C0 9.74782 3.13207 12.0839 5.89539 14.1449C7.2723 15.1719 8.57285 16.1419 9.39141 17.1589C9.53969 17.3432 9.76348 17.4503 10 17.4503C10.2365 17.4503 10.4603 17.3432 10.6086 17.159C11.0296 16.6359 11.6149 16.0797 12.4505 15.4085C12.7869 15.1383 12.8405 14.6466 12.5704 14.3102C12.3002 13.9738 11.8084 13.9201 11.472 14.1903C10.8825 14.6638 10.4003 15.092 10.0004 15.499C9.11723 14.5987 7.99945 13.765 6.82957 12.8925C4.24012 10.9611 1.5625 8.96395 1.5625 6.22446C1.5625 3.80321 3.13668 2.11219 5.39062 2.11219C6.85621 2.11219 7.9384 2.66356 8.60703 3.75094C9.13789 4.6141 9.22047 5.51258 9.22102 5.51813C9.25234 5.92512 9.59164 6.2411 9.9998 6.2411C10.408 6.2411 10.7473 5.92856 10.7786 5.52157C10.7795 5.51258 10.862 4.6141 11.3929 3.75094C12.0616 2.66356 13.1438 2.11219 14.6094 2.11219C16.8633 2.11219 18.4375 3.80321 18.4375 6.22446C18.4375 8.49157 16.5917 10.2493 14.5971 11.8111C14.2574 12.077 14.1976 12.5681 14.4636 12.9078C14.7295 13.2475 15.2206 13.3073 15.5604 13.0413C16.5092 12.2984 17.7118 11.2944 18.5964 10.1155C19.5409 8.85676 20 7.58399 20 6.22446C20 4.5652 19.4552 3.13649 18.4246 2.09274Z" fill="black"/>
</svg>
