<svg width="20" height="20" viewBox="0 0 20 20" fill="none" xmlns="http://www.w3.org/2000/svg">
<path d="M19.998 16.1154C19.9701 15.3417 19.6479 14.6198 19.0907 14.0825C17.9996 13.0304 17.0855 12.4231 16.2138 12.1712C15.0128 11.8241 13.9003 12.1397 12.9075 13.1093C12.906 13.1108 12.9046 13.1122 12.9031 13.1137L11.8468 14.1621C11.1867 13.79 9.90312 12.9729 8.51632 11.5862L8.41351 11.4834C7.02648 10.0964 6.20948 8.81259 5.83773 8.15322L6.88616 7.09693C6.88765 7.09545 6.88913 7.09396 6.89062 7.09244C7.86019 6.0997 8.17581 4.98728 7.82874 3.78615C7.57683 2.91455 6.96952 2.00041 5.91741 0.909353C5.38015 0.352205 4.65823 0.0299394 3.8846 0.00204881C3.1105 -0.0258809 2.36769 0.243572 1.79159 0.760682L1.76917 0.780838C1.75878 0.790174 1.74862 0.799822 1.7387 0.809705C0.591867 1.95654 -0.00930517 3.56205 0.00010889 5.45271C0.0161636 8.66451 1.78136 12.3375 4.72195 15.278C5.27644 15.8325 5.90663 16.3813 6.59499 16.9091C6.93738 17.1716 7.42777 17.1069 7.6903 16.7645C7.95288 16.422 7.88812 15.9317 7.5457 15.6691C6.91152 15.1828 6.3332 14.6795 5.82679 14.1733C3.1707 11.5172 1.57659 8.25427 1.56257 5.44494C1.55534 3.98884 1.99335 2.77349 2.82941 1.92873L2.83538 1.92334C3.40323 1.41361 4.26296 1.44463 4.79273 1.99396C6.81534 4.09154 6.6689 5.08181 5.77515 5.9983L4.32694 7.45736C4.09984 7.68619 4.03659 8.03103 4.16773 8.32556C4.20448 8.40814 5.0939 10.3735 7.30894 12.5885L7.41179 12.6912C9.62656 14.906 11.5919 15.7954 11.6745 15.8322C11.969 15.9634 12.3139 15.9001 12.5427 15.673L14.0018 14.2247C14.9184 13.331 15.9087 13.1846 18.0061 15.2072C18.5555 15.7369 18.5865 16.5967 18.0769 17.1644L18.0713 17.1706C17.2335 17.9998 16.031 18.4375 14.5908 18.4375C14.5789 18.4375 14.5671 18.4375 14.5551 18.4374C13.4039 18.4317 12.0709 18.1161 10.7001 17.5248C10.304 17.3539 9.84421 17.5365 9.67335 17.9328C9.50245 18.329 9.68507 18.7886 10.0813 18.9595C11.6657 19.643 13.1683 19.993 14.5474 19.9999C14.562 19.9999 14.5766 20 14.5912 20C16.4628 20 18.0524 19.3992 19.1904 18.2613C19.2003 18.2514 19.2099 18.2413 19.2192 18.2308L19.2395 18.2083C19.7566 17.6322 20.026 16.889 19.998 16.1154Z" fill="#121212"/>
</svg>
