<svg width="12" height="12" viewBox="0 0 12 12" fill="none" xmlns="http://www.w3.org/2000/svg">
<path d="M5.6875 3.17676C5.16276 3.17676 4.67188 3.31217 4.21484 3.58301C3.77474 3.83691 3.41927 4.19238 3.14844 4.64941C2.89453 5.08952 2.76758 5.57194 2.76758 6.09668C2.76758 6.62142 2.89453 7.1123 3.14844 7.56934C3.41927 8.00944 3.77474 8.36491 4.21484 8.63574C4.67188 8.88965 5.16276 9.0166 5.6875 9.0166C6.21224 9.0166 6.69466 8.88965 7.13477 8.63574C7.5918 8.36491 7.94727 8.00944 8.20117 7.56934C8.47201 7.1123 8.60742 6.62142 8.60742 6.09668C8.60742 5.57194 8.47201 5.08952 8.20117 4.64941C7.94727 4.19238 7.5918 3.83691 7.13477 3.58301C6.69466 3.31217 6.21224 3.17676 5.6875 3.17676ZM5.6875 8.00098C5.16276 8.00098 4.71419 7.81478 4.3418 7.44238C3.9694 7.06999 3.7832 6.62142 3.7832 6.09668C3.7832 5.57194 3.9694 5.12337 4.3418 4.75098C4.71419 4.37858 5.16276 4.19238 5.6875 4.19238C6.21224 4.19238 6.66081 4.37858 7.0332 4.75098C7.4056 5.12337 7.5918 5.57194 7.5918 6.09668C7.5918 6.62142 7.4056 7.06999 7.0332 7.44238C6.66081 7.81478 6.21224 8.00098 5.6875 8.00098ZM9.41992 3.0498C9.40299 3.236 9.32682 3.39681 9.19141 3.53223C9.07292 3.66764 8.92057 3.73535 8.73438 3.73535C8.54818 3.73535 8.38737 3.66764 8.25195 3.53223C8.11654 3.39681 8.04883 3.236 8.04883 3.0498C8.04883 2.86361 8.11654 2.7028 8.25195 2.56738C8.38737 2.43197 8.54818 2.36426 8.73438 2.36426C8.92057 2.36426 9.08138 2.43197 9.2168 2.56738C9.35221 2.7028 9.41992 2.86361 9.41992 3.0498ZM11.3496 3.73535C11.3158 3.24447 11.2396 2.82129 11.1211 2.46582C10.9688 2.04264 10.7318 1.67871 10.4102 1.37402C10.1055 1.05241 9.74154 0.81543 9.31836 0.663086C8.96289 0.544596 8.53971 0.476888 8.04883 0.459961C7.57487 0.426107 6.78776 0.40918 5.6875 0.40918C4.58724 0.40918 3.79167 0.426107 3.30078 0.459961C2.82682 0.476888 2.41211 0.544596 2.05664 0.663086C1.63346 0.81543 1.26107 1.05241 0.939453 1.37402C0.634766 1.67871 0.40625 2.04264 0.253906 2.46582C0.135417 2.82129 0.0592448 3.24447 0.0253906 3.73535C0.00846354 4.20931 0 4.99642 0 6.09668C0 7.19694 0.00846354 7.99251 0.0253906 8.4834C0.0592448 8.95736 0.135417 9.37207 0.253906 9.72754C0.40625 10.1507 0.634766 10.5231 0.939453 10.8447C1.26107 11.1494 1.63346 11.3695 2.05664 11.5049C2.41211 11.6403 2.82682 11.7165 3.30078 11.7334C3.79167 11.7673 4.58724 11.7842 5.6875 11.7842C6.78776 11.7842 7.57487 11.7673 8.04883 11.7334C8.53971 11.7165 8.96289 11.6488 9.31836 11.5303C9.74154 11.3779 10.1055 11.1494 10.4102 10.8447C10.7318 10.5231 10.9688 10.1507 11.1211 9.72754C11.2396 9.37207 11.3073 8.95736 11.3242 8.4834C11.3581 7.99251 11.375 7.19694 11.375 6.09668C11.375 4.99642 11.3665 4.20931 11.3496 3.73535ZM10.1309 9.44824C9.92773 9.95605 9.5638 10.32 9.03906 10.54C8.76823 10.6416 8.3112 10.7093 7.66797 10.7432C7.3125 10.7601 6.78776 10.7686 6.09375 10.7686H5.28125C4.60417 10.7686 4.07943 10.7601 3.70703 10.7432C3.08073 10.7093 2.6237 10.6416 2.33594 10.54C1.82812 10.3369 1.46419 9.97298 1.24414 9.44824C1.14258 9.16048 1.07487 8.70345 1.04102 8.07715C1.02409 7.70475 1.01562 7.18001 1.01562 6.50293V5.69043C1.01562 5.01335 1.02409 4.48861 1.04102 4.11621C1.07487 3.47298 1.14258 3.01595 1.24414 2.74512C1.44727 2.22038 1.8112 1.85645 2.33594 1.65332C2.6237 1.55176 3.08073 1.48405 3.70703 1.4502C4.07943 1.43327 4.60417 1.4248 5.28125 1.4248H6.09375C6.77083 1.4248 7.29557 1.43327 7.66797 1.4502C8.3112 1.48405 8.76823 1.55176 9.03906 1.65332C9.5638 1.85645 9.92773 2.22038 10.1309 2.74512C10.2324 3.01595 10.3001 3.47298 10.334 4.11621C10.3509 4.47168 10.3594 4.99642 10.3594 5.69043V6.50293C10.3594 7.18001 10.3509 7.70475 10.334 8.07715C10.3001 8.70345 10.2324 9.16048 10.1309 9.44824Z" fill="white"/>
</svg>
