<svg width="51" height="61" viewBox="0 0 51 61" fill="none" xmlns="http://www.w3.org/2000/svg">
<path opacity="0.2" d="M50.0054 60.0073C50.0054 59.4959 39.506 59.0747 26.5698 59.0747C13.6336 59.0747 3.13416 59.4959 3.13416 60.0073C3.13416 60.5187 13.6336 60.9399 26.5698 60.9399C39.5361 60.9399 50.0054 60.5187 50.0054 60.0073Z" fill="#5D5D5D"/>
<path d="M26.9007 12.7754C37.0993 12.7754 45.3724 21.0486 45.3724 31.2471V49.7188H26.9007C16.7022 49.7188 8.42899 41.4457 8.42899 31.2471V12.7754H26.9007Z" fill="#86BC42"/>
<path opacity="0.3" d="M42.725 21.7402C41.1907 23.5152 40.2581 25.8317 40.2581 28.3588C40.2581 32.1193 42.3038 35.3985 45.3424 37.1734V31.2469C45.3424 27.7872 44.4097 24.5381 42.725 21.7402Z" fill="#86BC42"/>
<path d="M35.4747 14.9111C32.5866 16.5658 30.6612 19.6644 30.6612 23.2445C30.6612 28.5393 34.9633 32.8413 40.2581 32.8413C42.1233 32.8413 43.8682 32.2998 45.3423 31.3672V31.2469C45.3423 24.147 41.3411 17.9797 35.4747 14.9111Z" fill="#86BC42"/>
<path opacity="0.5" d="M20.9741 16.355C16.2208 16.355 11.8586 18.0096 8.42899 20.8074V31.2768C8.42899 41.4753 16.7022 49.7485 26.9007 49.7485H35.7455C38.9645 46.1985 40.92 41.5054 40.92 36.3309C40.92 25.29 31.9849 16.355 20.9741 16.355Z" fill="#FFD96A"/>
<path d="M45.3423 49.6884L26.9007 49.7185C16.7022 49.7185 8.42899 41.4454 8.42899 31.2468V12.8052L45.3423 49.6884Z" fill="#86BC42"/>
<path opacity="0.3" d="M11.287 19.3936C11.287 33.4128 22.6588 44.7546 36.648 44.7546C37.8514 44.7546 39.0247 44.6643 40.1679 44.5139L11.5277 15.9038C11.3772 17.047 11.287 18.2203 11.287 19.3936Z" fill="#86BC42"/>
<path opacity="0.3" d="M45.3423 49.7185L8.57941 12.9556C12.9115 19.4237 17.9055 25.982 22.9898 31.3972C26.9609 35.609 38.423 45.0254 45.3423 49.7185Z" fill="#86BC42"/>
<path opacity="0.3" d="M20.4928 24.8389L8.42899 12.8052V31.2769C8.42899 39.4297 13.7238 46.3491 21.0343 48.7859C17.9055 45.6271 15.9801 41.2949 15.9801 36.5416C15.9801 32.029 17.6949 27.9375 20.4928 24.8389Z" fill="#86BC42"/>
<path opacity="0.3" d="M36.9188 41.2949C33.79 45.1156 29.0367 47.5825 23.7118 47.5825C20.1618 47.5825 16.8526 46.4995 14.1149 44.6343C17.4242 47.7931 21.9067 49.7486 26.8706 49.7486H45.3423V49.7185L36.9188 41.2949Z" fill="#86BC42"/>
<path opacity="0.3" d="M9.51202 23.8461C9.51202 20.8678 10.0235 17.9797 10.9861 15.3323L8.42899 12.8052V31.2769C8.42899 41.4755 16.7022 49.7486 26.9007 49.7486H45.3724V49.7185L43.5373 47.8834C40.8598 48.8461 38.0018 49.3575 34.9934 49.3575C20.9139 49.3274 9.51202 37.9255 9.51202 23.8461Z" fill="#FFD96A"/>
<path d="M45.0415 53.2986C46.3351 52.9376 47.6889 53.7198 48.0198 55.0134C48.3808 56.3071 47.5986 57.6608 46.2749 57.9918C44.9813 58.3528 43.6275 57.5706 43.2966 56.277C42.9657 54.9834 43.7479 53.6596 45.0415 53.2986ZM44.5601 51.4635C42.2436 52.0953 40.8598 54.4418 41.4915 56.7583C42.0932 59.0748 44.4699 60.4587 46.7864 59.8269C49.1028 59.1951 50.4867 56.8185 49.855 54.5321C49.2533 52.2156 46.8766 50.8618 44.5601 51.4635Z" fill="white"/>
<path opacity="0.5" d="M47.6287 57.1192C47.2978 57.5404 46.8465 57.8713 46.305 58.0217C45.0114 58.3827 43.6576 57.6005 43.3267 56.3069C43.086 55.3442 43.4169 54.3815 44.139 53.8099C43.778 53.2985 43.4771 52.7269 43.1763 52.1553C41.7322 53.1781 41.0102 55.0133 41.4916 56.8183C42.0932 59.1348 44.4699 60.5187 46.7864 59.8869C47.8694 59.5861 48.7419 58.9242 49.3135 58.0518C48.7419 57.7509 48.1703 57.4501 47.6287 57.1192Z" fill="white"/>
<path d="M9.30142 53.2985C10.595 52.9676 11.9488 53.7498 12.2798 55.0434C12.6107 56.337 11.8285 57.6908 10.5349 58.0218C9.24125 58.3527 7.88746 57.5705 7.55654 56.2769C7.22561 54.9833 8.0078 53.6295 9.30142 53.2985ZM8.82007 51.4634C6.50359 52.0651 5.11971 54.4417 5.7214 56.7582C6.32308 59.0747 8.69974 60.4586 11.0162 59.8569C13.3327 59.2552 14.7166 56.8786 14.145 54.5621C13.5132 52.2456 11.1366 50.8617 8.82007 51.4634Z" fill="white"/>
<path opacity="0.5" d="M11.8586 57.1496C11.5276 57.5707 11.0764 57.9017 10.5349 58.022C9.24125 58.3529 7.88746 57.5707 7.55653 56.2771C7.31585 55.3144 7.67687 54.3517 8.3688 53.7801C8.00779 53.2687 7.70695 52.6971 7.43619 52.1255C5.99215 53.1183 5.24004 54.9534 5.72139 56.7585C6.32308 59.0749 8.69973 60.4588 11.0162 59.8571C12.0992 59.5864 13.0018 58.8944 13.5433 58.022C12.9416 57.7813 12.4001 57.4805 11.8586 57.1496Z" fill="white"/>
<path d="M9.60226 11.5117C9.03066 11.5117 8.54931 11.0303 8.54931 10.4587C8.54931 7.99182 7.85738 6.1266 6.53367 4.89314C4.39769 2.8775 1.17868 3.08809 1.14859 3.08809C0.576992 3.14826 0.0655599 2.69699 0.0053914 2.12539C-0.0547771 1.55379 0.396486 1.04236 0.968087 0.98219C1.14859 0.98219 5.11971 0.681348 7.94763 3.29868C9.75268 4.95331 10.6552 7.36005 10.6552 10.4286C10.6552 11.0303 10.2039 11.5117 9.60226 11.5117Z" fill="white"/>
</svg>
