<svg width="51" height="60" viewBox="0 0 51 60" fill="none" xmlns="http://www.w3.org/2000/svg">
<path opacity="0.2" d="M50.0054 59.0357C50.0054 58.5243 39.506 58.1031 26.5698 58.1031C13.6336 58.1031 3.13416 58.5243 3.13416 59.0357C3.13416 59.5472 13.6336 59.9684 26.5698 59.9684C39.5361 59.9684 50.0054 59.5472 50.0054 59.0357Z" fill="#5D5D5D"/>
<path d="M26.9007 11.8036C37.0993 11.8036 45.3724 20.0768 45.3724 30.2753V48.747H26.9007C16.7022 48.747 8.42899 40.4739 8.42899 30.2753V11.8036H26.9007Z" fill="#86BC42"/>
<path opacity="0.3" d="M42.725 20.7687C41.1907 22.5436 40.2581 24.8601 40.2581 27.3872C40.2581 31.1477 42.3038 34.4269 45.3424 36.2019V30.2753C45.3424 26.8156 44.4097 23.5665 42.725 20.7687Z" fill="#86BC42"/>
<path d="M35.4747 13.9395C32.5866 15.5941 30.6612 18.6928 30.6612 22.2728C30.6612 27.5677 34.9633 31.8697 40.2581 31.8697C42.1233 31.8697 43.8682 31.3282 45.3423 30.3956V30.2752C45.3423 23.1754 41.3411 17.0081 35.4747 13.9395Z" fill="#86BC42"/>
<path opacity="0.5" d="M20.9741 15.3835C16.2208 15.3835 11.8586 17.0381 8.42899 19.836V30.3053C8.42899 40.5038 16.7022 48.777 26.9007 48.777H35.7455C38.9645 45.2271 40.92 40.5339 40.92 35.3594C40.92 24.3185 31.9849 15.3835 20.9741 15.3835Z" fill="#FFD96A"/>
<path d="M45.3423 48.7169L26.9007 48.747C16.7022 48.747 8.42899 40.4738 8.42899 30.2752V11.8336L45.3423 48.7169Z" fill="#86BC42"/>
<path opacity="0.3" d="M11.287 18.422C11.287 32.4413 22.6588 43.783 36.648 43.783C37.8514 43.783 39.0247 43.6928 40.1679 43.5423L11.5277 14.9322C11.3772 16.0754 11.287 17.2487 11.287 18.422Z" fill="#86BC42"/>
<path opacity="0.3" d="M45.3423 48.747L8.57941 11.984C12.9115 18.4521 17.9055 25.0105 22.9898 30.4257C26.9609 34.6375 38.423 44.0538 45.3423 48.747Z" fill="#86BC42"/>
<path opacity="0.3" d="M20.4928 23.8673L8.42899 11.8336V30.3053C8.42899 38.4581 13.7238 45.3775 21.0343 47.8143C17.9055 44.6555 15.9801 40.3234 15.9801 35.5701C15.9801 31.0574 17.6949 26.966 20.4928 23.8673Z" fill="#86BC42"/>
<path opacity="0.3" d="M36.9188 40.3234C33.79 44.1441 29.0367 46.611 23.7118 46.611C20.1618 46.611 16.8526 45.528 14.1149 43.6628C17.4242 46.8216 21.9067 48.7771 26.8706 48.7771H45.3423V48.747L36.9188 40.3234Z" fill="#86BC42"/>
<path opacity="0.3" d="M9.51202 22.8745C9.51202 19.8962 10.0235 17.0081 10.9861 14.3607L8.42899 11.8336V30.3053C8.42899 40.5039 16.7022 48.7771 26.9007 48.7771H45.3724V48.747L43.5373 46.9118C40.8598 47.8745 38.0018 48.386 34.9934 48.386C20.9139 48.3559 9.51202 36.9539 9.51202 22.8745Z" fill="#FFD96A"/>
<path d="M45.0415 52.327C46.3351 51.966 47.6889 52.7482 48.0198 54.0418C48.3808 55.3354 47.5986 56.6892 46.2749 57.0202C44.9813 57.3812 43.6275 56.599 43.2966 55.3054C42.9657 54.0117 43.7479 52.688 45.0415 52.327ZM44.5601 50.4919C42.2436 51.1236 40.8598 53.4702 41.4915 55.7867C42.0932 58.1032 44.4699 59.4871 46.7864 58.8553C49.1028 58.2235 50.4867 55.8469 49.855 53.5605C49.2533 51.244 46.8766 49.8902 44.5601 50.4919Z" fill="#41544A"/>
<path opacity="0.5" d="M47.6287 56.1476C47.2978 56.5688 46.8465 56.8998 46.305 57.0502C45.0114 57.4112 43.6576 56.629 43.3267 55.3354C43.086 54.3727 43.4169 53.41 44.139 52.8384C43.778 52.3269 43.4771 51.7553 43.1763 51.1837C41.7322 52.2066 41.0102 54.0418 41.4916 55.8468C42.0932 58.1633 44.4699 59.5472 46.7864 58.9154C47.8694 58.6146 48.7419 57.9527 49.3135 57.0803C48.7419 56.7794 48.1703 56.4786 47.6287 56.1476Z" fill="#41544A"/>
<path d="M9.30142 52.327C10.595 51.9961 11.9488 52.7783 12.2798 54.0719C12.6107 55.3655 11.8285 56.7193 10.5349 57.0502C9.24125 57.3811 7.88746 56.599 7.55654 55.3053C7.22561 54.0117 8.0078 52.6579 9.30142 52.327ZM8.82007 50.4919C6.50359 51.0935 5.11971 53.4702 5.7214 55.7867C6.32308 58.1032 8.69974 59.487 11.0162 58.8854C13.3327 58.2837 14.7166 55.907 14.145 53.5905C13.5132 51.2741 11.1366 49.8902 8.82007 50.4919Z" fill="#41544A"/>
<path opacity="0.5" d="M11.8586 56.1778C11.5276 56.599 11.0764 56.9299 10.5349 57.0502C9.24125 57.3812 7.88746 56.599 7.55653 55.3054C7.31585 54.3427 7.67687 53.38 8.3688 52.8084C8.00779 52.2969 7.70695 51.7253 7.43619 51.1537C5.99215 52.1465 5.24004 53.9816 5.72139 55.7867C6.32308 58.1032 8.69973 59.4871 11.0162 58.8854C12.0992 58.6146 13.0018 57.9227 13.5433 57.0502C12.9416 56.8096 12.4001 56.5087 11.8586 56.1778Z" fill="#41544A"/>
<path d="M9.60226 10.54C9.03066 10.54 8.54931 10.0586 8.54931 9.48705C8.54931 7.02014 7.85738 5.15492 6.53367 3.92146C4.39769 1.90582 1.17868 2.11641 1.14859 2.11641C0.576992 2.17658 0.0655599 1.72531 0.0053914 1.15371C-0.0547771 0.582111 0.396486 0.0706792 0.968087 0.0105107C1.14859 0.0105107 5.11971 -0.290332 7.94763 2.327C9.75268 3.98163 10.6552 6.38837 10.6552 9.45696C10.6552 10.0586 10.2039 10.54 9.60226 10.54Z" fill="#41544A"/>
</svg>
