<svg width="33" height="57" viewBox="0 0 33 57" fill="none" xmlns="http://www.w3.org/2000/svg">
<path d="M14 57L0 51V18L14 23V57Z" fill="#C6C6C6"/>
<path d="M33 52L14 57V23L33 18V52Z" fill="#E6E6E6"/>
<path d="M26 4L7 8V4L26 0V4Z" fill="#E2E2E2"/>
<path d="M14 23L0 18L7 8L14 23Z" fill="#D1D1D1"/>
<path d="M33 18L14 23L7 8L26 4L33 18Z" fill="#EAEAEA"/>
<path d="M33 37L14 52V37L33 21V37Z" fill="#3DABEF"/>
<path d="M0 46L14 52V37L0 31V46Z" fill="#2B9DD6"/>
<path d="M22.2151 16.875C19.9981 17.455 19.2591 15.452 18.9101 14.122C18.5621 12.792 18.2261 10.683 20.4431 10.103C22.6601 9.52298 23.3991 11.526 23.7471 12.856C24.0951 14.186 24.4321 16.295 22.2151 16.875Z" fill="white"/>
<path d="M22 4.84202L24 4.42102V0.421021L22 0.842021V4.84202Z" fill="#EDEDED"/>
<path d="M18 5.684L20 5.263V1.263L18 1.684V5.684Z" fill="#EDEDED"/>
<path d="M14 6.52598L16 6.10498V2.10498L14 2.52598V6.52598Z" fill="#EDEDED"/>
<path d="M10 7.36802L12 6.94702V2.94702L10 3.36802V7.36802Z" fill="#EDEDED"/>
</svg>
