<svg width="51" height="50" viewBox="0 0 51 50" fill="none" xmlns="http://www.w3.org/2000/svg">
<path d="M48.9528 17.2393C48.8883 17.0149 48.7822 16.7984 48.6329 16.601C48.5223 16.4549 48.3953 16.3287 48.2563 16.2232C47.8804 15.7577 47.45 15.3339 46.9708 14.9634L29.2937 1.29993C29.2412 1.2593 29.1867 1.22151 29.1304 1.18645C26.5858 -0.395483 23.4242 -0.395483 20.8796 1.18645C20.8233 1.22141 20.7688 1.2593 20.7164 1.29993L3.03934 14.9634C1.1394 16.432 0.00512695 18.7421 0.00512695 21.1432V42.189C0.00522463 46.496 3.50983 50 7.8177 50H31.8411C32.9198 50 33.7942 49.1258 33.7942 48.0472C33.7942 46.9686 32.9199 46.0944 31.8411 46.0944H7.8177C5.66381 46.0944 3.91146 44.3423 3.91146 42.1888V21.1432C3.91146 19.9427 4.47865 18.7876 5.42852 18.0532L23.0191 4.45657C24.2522 3.72756 25.7581 3.72756 26.9911 4.45657L44.0347 17.6303L26.999 30.5156C25.7606 31.2516 24.2452 31.2508 23.0073 30.5133L11.4295 21.8462C10.5661 21.1997 9.34198 21.3757 8.69549 22.239C8.04899 23.1023 8.2249 24.3261 9.08833 24.9726L20.7402 33.695C20.7853 33.7287 20.8317 33.7605 20.8794 33.7903C22.1518 34.5814 23.5783 34.9768 25.0049 34.9768C26.4314 34.9768 27.8581 34.5813 29.1304 33.7903C29.1809 33.7588 29.23 33.7251 29.2774 33.6893L46.0947 20.9693C46.0973 21.0271 46.0987 21.085 46.0987 21.1431V25.1996C46.0987 26.2782 46.9731 27.1525 48.0519 27.1525C49.1306 27.1525 50.0049 26.2783 50.0049 25.1996V21.1431C50.005 19.7645 49.6309 18.4158 48.9528 17.2393Z" fill="white"/>
<path d="M49.4319 37.4199L43.6646 31.664C42.5299 30.5295 40.6834 30.5295 39.5497 31.6628L33.7814 37.4199C33.018 38.1819 33.0169 39.4182 33.779 40.1815C34.5411 40.9449 35.7777 40.9459 36.5411 40.1839L39.6534 37.0777V48.047C39.6534 49.1255 40.5278 49.9998 41.6066 49.9998C42.6854 49.9998 43.5598 49.1256 43.5598 48.047V37.0777L46.6721 40.1839C47.0533 40.5644 47.5527 40.7546 48.052 40.7546C48.5523 40.7546 49.0528 40.5634 49.4343 40.1814C50.1964 39.4182 50.1952 38.1818 49.4319 37.4199Z" fill="white"/>
</svg>
