<svg width="122" height="114" viewBox="0 0 122 114" fill="none" xmlns="http://www.w3.org/2000/svg">
<path d="M33.8 26.0001C33.8 26.3001 33.8 26.8001 33.9 27.4001C33.9 28.0001 33.9 28.5001 34 28.8001C34 29.2001 34 29.6001 34 30.2001C34 30.7001 34 31.2001 34 31.6001C34 32.0001 34 32.4001 34 33.0001C34 33.5001 34 34.0001 33.9 34.4001C33.9 34.8001 33.8 35.3001 33.8 35.7001C33.7 36.2001 33.7 36.6001 33.6 37.1001C33.5 37.8001 33.3 38.4001 33.1 39.1001C32.9 39.7001 32.6 40.4001 32.2 41.0001C31.8 41.6001 31.4 42.1001 30.9 42.5001C30.4 42.9001 29.9 43.1001 29.2 43.3001C28.6 43.5001 27.8 43.4001 27.1 43.2001C26.4 43.0001 25.8 42.7001 25.3 42.3001C24.8 41.9001 24.4 41.4001 24.1 40.8001C23.8 40.2001 23.6 39.6001 23.4 39.1001C23.2 38.6001 23.1 37.9001 22.9 37.1001C22.3 33.7001 22 30.3001 22.1 26.8001C22.1 26.7001 22.2 24.8001 22.4 21.1001C22.4 21.1001 22.4 20.9001 22.4 20.7001C22.4 20.5001 22.4 20.3001 22.4 20.3001C22.4 20.2001 22.4 20.1001 22.4 19.9001C22.4 19.7001 22.4 19.5001 22.5 19.4001C22.5 19.3001 22.5 19.2001 22.6 19.0001C22.6 18.8001 22.7 18.7001 22.7 18.6001C22.7 18.5001 22.8 18.4001 22.8 18.2001C22.8 18.1001 22.9 17.9001 22.9 17.8001C23 17.7001 23 17.5001 23.1 17.4001C23.5 16.7001 24 16.2001 24.7 15.8001C25.4 15.5001 26.1 15.3001 26.9 15.4001C27.2 15.2001 27.5 15.1001 27.9 15.1001C28.3 15.2001 28.6 15.2001 28.9 15.4001C29.2 15.5001 29.5 15.8001 29.9 16.1001C30.2 16.4001 30.5 16.7001 30.8 17.0001C31 17.3001 31.2 17.5001 31.5 17.8001C32.3 18.9001 32.9 20.1001 33.2 21.5001C33.5 22.6001 33.7 24.1001 33.8 26.0001ZM30.9 39.0001C31.4 37.6001 31.7 35.9001 31.9 33.9001C32 31.9001 32 30.2001 31.8 28.7001C31.8 28.4001 31.8 27.7001 31.7 26.7001C31.7 25.7001 31.7 25.0001 31.6 24.5001C31.6 24.0001 31.5 23.4001 31.3 22.6001C31.2 21.8001 31 21.2001 30.8 20.6001C30.5 19.9001 30 19.1001 29.4 18.3001C29.2 18.1001 29 17.9001 28.8 17.7001C28.5 17.8001 28.3 17.8001 28.1 17.6001C27.9 17.5001 27.7 17.4001 27.6 17.3001C27.3 17.4001 27 17.4001 26.6 17.2001C26.2 17.2001 25.8 17.3001 25.4 17.6001C25.1 17.8001 24.9 18.2001 24.7 18.6001C24.6 18.9001 24.5 19.3001 24.5 19.8001C24.5 20.2001 24.4 20.6001 24.4 20.9001C24.4 21.2001 24.4 21.6001 24.3 22.2001C24.3 22.7001 24.3 23.1001 24.3 23.3001C24.1 28.0001 24.1 31.6001 24.5 34.1001C24.8 36.6001 25.2 38.3001 25.5 39.2001C26 40.5001 26.8 41.2001 28 41.3001C29.4 41.2001 30.3 40.5001 30.9 39.0001Z" fill="#053E48"/>
<path d="M41.7 36.8C42 38 42.2 39.1 42.5 40.1C42.7 41.1 43 42 43.4 42.8C43.6 43.3 43.4 43.7001 43 44C42.5 44.2001 42.1 44.2001 41.7 43.9001C41.4 43.6001 41.2 43.4 41.1 43.3C40.8 43 40.7 42.6 41 42.1C40.7 41 40.3 39.5001 39.8 37.4001C39.4 35.4001 39 34.0001 38.9 33.4001C38.8 32.8001 38.5 32 38.2 30.9C37.9 29.8 37.7 28.9 37.5 28.4C37.5 28.5 37.5 28.7 37.5 28.9C37.5 29.1 37.5 29.2 37.5 29.4C37.5 29.6 37.5 29.7 37.5 29.9C37.5 31.2 37.5 33.2001 37.6 35.9001C37.7 38.6001 37.7 40.6001 37.7 41.9001C37.7 42.3001 37.5 42.6 37.2 42.8C36.9 43 36.5 43 36.2 42.8C35.9 42.6 35.7 42.3001 35.7 41.9001C35.7 40.7001 35.7 38.6 35.6 35.7001C35.5 32.8001 35.5 30.7 35.6 29.4C35.8 24.2 36 20.3 36 17.7C35.8 17.5 35.7 17.3 35.7 17C35.7 16.7 35.9 16.5 36.1 16.3C36.9 15.8 37.8 15.6 38.7 15.7C39.6 15.8 40.4 16.2 41.2 16.7C41.9 17.2 42.5 17.9 43 18.7C43.4 19.6 43.6 20.4 43.5 21.3C43.4 22.5 42.9 23.5 42.1 24.1C41.3 24.7 40.3 25.2 38.9 25.5L39 25.9C39 26 39.1 26.3 39.2 26.6C39.3 26.9 39.3 27.1 39.4 27.3C39.5 27.8 39.7 28.5 40 29.5L41.3 34.3C41.3 34.7 41.5 35.6 41.7 36.8ZM40.9 21.9C41.2 21.2 41.2 20.5 41 19.8C40.8 19.1 40.3 18.5 39.7 18.1C39.1 17.6 38.4 17.5 37.7 17.6C37.7 19.2 37.7 21.2 37.6 23.6C37.7 23.6 37.9 23.5 38.1 23.5C38.3 23.5 38.5 23.4 38.7 23.4C38.8 23.4 39 23.3 39.2 23.3C39.4 23.2 39.6 23.2 39.7 23.1C39.8 23 40 22.9 40.1 22.9C40.3 22.8 40.4 22.7 40.5 22.6C40.6 22.5 40.9 22 40.9 21.9Z" fill="#053E48"/>
<path d="M45.1 35.1C45.1 32.2 45.3 28.5 45.7 24.2C45.7 24 45.7 23.4 45.8 22.5C45.9 21.6 46 20.9 46 20.5C46 20.1 46.2 19.6 46.3 18.9C46.5 18.2 46.7 17.6 46.9 17.1C47.4 16 48.1 15.2 49.1 14.8C50.1 14.4 51.1 14.4 52.3 15C53.4 15.6 54.2 16.5 54.5 17.5C54.9 18.6 55 19.9 54.9 21.4C54.9 21.8 54.8 22 54.5 22.2C54.2 22.3 53.9 22.3 53.6 22.2C53.3 22.1 53.1 21.8 53.1 21.4C53.1 20.9 53.1 20.5 53 20.2C53 19.9 52.9 19.5 52.8 19C52.7 18.5 52.6 18.1 52.4 17.8C52.2 17.5 52 17.2 51.7 17C51.4 16.8 51 16.6 50.5 16.6C50.2 16.6 49.8 16.7 49.6 16.9C49.3 17.1 49.1 17.3 49 17.6C48.8 17.8 48.7 18.2 48.6 18.6C48.5 19 48.4 19.4 48.3 19.6C48.3 19.8 48.2 20.2 48.2 20.6C47.5 25.4 47.2 30.1 47.3 34.8C47.3 34.8 47.3 35 47.3 35.4C47.3 35.8 47.3 36 47.3 36.1C47.3 36.2 47.3 36.4 47.3 36.8C47.3 37.2 47.3 37.4 47.4 37.5C47.4 37.6 47.5 37.9 47.5 38.2C47.5 38.5 47.6 38.7 47.7 38.9C47.8 39.1 47.9 39.3 47.9 39.5C48 39.7 48.1 39.9 48.2 40.1C48.3 40.3 48.5 40.4 48.7 40.6C49.1 40.9 49.5 41.2 50.1 41.5C50.6 41.7 51.1 41.8 51.4 41.6C51.9 41.3 52.3 40.7 52.7 39.8C53 38.9 53.4 37.5 53.6 35.6C53.7 34.4 53.8 33.6 53.9 33.4C53.9 32.6 54 32.1 53.9 32.1C53.9 32 53.8 31.9 53.8 31.7C53.8 31.7 53.7 31.7 53.6 31.7C53.5 31.7 53.5 31.7 53.4 31.7C53.2 31.7 53 31.6 52.7 31.5C52.4 31.4 52.2 31.4 52.2 31.4H52.1C51.8 31.3 51.5 31.3 51.3 31.2C51.1 31.1 50.9 31 50.7 30.8C50.5 30.6 50.4 30.4 50.4 30.1C50.4 29.8 50.5 29.5 50.8 29.4C50.9 29.4 51 29.3 51.1 29.3C51.2 29.3 51.3 29.3 51.4 29.3C51.5 29.3 51.6 29.3 51.7 29.4C51.9 29.5 52 29.5 52 29.5C52.3 29.6 52.8 29.6 53.3 29.7C53.7 29.8 54 29.8 54.2 29.9C54.4 29.9 54.6 30 54.9 30.2C55.2 30.3 55.4 30.6 55.6 30.8C55.7 31 55.8 31.2 55.7 31.5C55.9 31.9 55.9 32.3 55.9 32.8C55.9 33.3 55.9 33.8 55.8 34.1C55.8 34.5 55.7 35 55.5 35.6C55.4 36.2 55.3 36.6 55.3 36.8C55.2 37.7 55.1 38.4 55 38.9C54.9 39.4 54.7 40 54.4 40.7C54.1 41.4 53.8 42 53.4 42.5C52.5 43.4 51.5 43.9 50.3 43.8C49.1 43.7 48.1 43.3 47.1 42.4C46.5 41.9 46 41.1 45.6 40.3C45.3 39.4 45 38.6 44.9 37.9C45.2 37 45.2 36.2 45.1 35.1Z" fill="#053E48"/>
<path d="M67.6 35.2C67.9 38.3 68.2 40.4 68.6 41.7C68.7 42.1 68.6 42.5 68.4 42.7C68.1 43 67.8 43.1 67.4 43C67 42.9 66.8 42.6999 66.7 42.2999C66.3 41 66 38.9 65.7 36C65.7 35.1 65.6 34.3 65.4 33.4C65 33.3 64.2 33.2999 63 33.2999C61.7 33.4 61.1 33.4 61.1 33.4C60.6 35.5 60.3 37.1 60.2 38.2C60.2 38.4 60.1 38.6999 60.1 39.0999C60.1 39.4999 60 39.7999 60 40C60 40.2 59.9 40.5 59.9 40.7999C59.9 41.0999 59.8 41.4 59.7 41.7C59.6 42 59.5 42.2999 59.4 42.5C59.2 42.7999 59 43 58.7 43C58.4 43 58 43 57.8 42.7C57.6 42.4 57.6 42.1 57.7 41.7C57.9 41.2 58.1 40.2 58.2 39C58.3 37.7 58.4 37 58.4 36.7999C58.8 34.5999 59.2 32.2 59.8 29.7C59.9 29.4 60 28.6 60.3 27.4C60.6 26.2 60.7 25.4 60.8 25C60.9 24.5 61.1 23.8 61.3 22.8C61.5 21.8 61.7 21 61.9 20.4C62.1 19.8 62.3 19.1 62.5 18.2C62.7 17.4 63 16.6 63.2 15.9C63.3 15.4 63.7 15.2 64.2 15.2C64.7 15.2 65 15.5 65.2 15.9C65.3 16.2 65.4 16.6 65.5 17C65.6 17.4 65.6 17.8 65.7 18.2C65.7 18.6 65.8 19 65.8 19.3C65.8 19.6 65.8 20 65.9 20.5C65.9 21 65.9 21.3 66 21.6C66 22 66.1 22.5 66.1 22.9C66.1 23.4 66.2 23.8 66.2 24.3C66.3 24.8 66.3 25.2 66.4 25.6C66.5 26 66.5 26.5 66.6 27C66.7 27.5 66.7 28 66.8 28.3C66.8 28.7 67 29.8 67.2 31.5C67.4 33.1 67.6 34.4 67.6 35.2ZM63.8 31.5C64.3 31.5 64.7 31.4 65 31.5C65 31.2999 64.9 30.9 64.9 30.4C64.8 29.9 64.8 29.5 64.8 29.3C64.7 29 64.6 28 64.4 26.3C64.2 24.6 64 23.3 63.9 22.4C63.9 22.3 63.9 22.1 63.9 21.9C63.9 21.7 63.9 21.5 63.9 21.4C63.5 23 62.7 26.2 61.6 31.2C61.6 31.3 61.6 31.5 61.5 31.7999C62.5 31.5 63.3 31.5 63.8 31.5Z" fill="#053E48"/>
<path d="M79.6 40.9999C79.6 41.3999 79.5 41.6999 79.2 41.8999C78.9 42.0999 78.6 42.0999 78.2 41.9999C77.8 41.8999 77.6 41.6999 77.5 41.2999C74.7 32.4999 72.8 26.6999 71.8 23.5999C71.9 25.2999 72 28.1999 72.3 32.3999C72.6 36.5999 72.7 39.7999 72.8 42.0999C72.8 42.4999 72.7 42.7999 72.3 42.9999C72 43.1999 71.6 43.1999 71.3 42.9999C70.9 42.7999 70.7 42.4999 70.7 42.0999C70.6 41.4999 70.6 40.9999 70.6 40.6999C70.5 40.4999 70.6 40.3999 70.6 40.1999C70.6 38.5999 70.4 36.0999 70.2 32.8999C70 29.6999 69.8 26.6999 69.7 24.0999C69.6 21.4999 69.6 18.9999 69.7 16.6999C69.7 16.4999 69.8 16.1999 69.9 16.0999C70 15.8999 70.2 15.7999 70.4 15.7999C70.6 15.7999 70.8 15.7999 71 15.7999C71.2 15.7999 71.3 15.8999 71.5 16.0999C71.6 16.2999 71.7 16.4999 71.7 16.6999C71.7 16.7999 71.7 16.8999 71.7 16.9999C72.6 19.9999 74.6 25.9999 77.7 35.1999C77.9 31.2999 78.1 28.7999 78.1 27.5999C78.1 27.0999 78.1 26.1999 78.1 25.0999C78.1 23.9999 78.1 23.0999 78.1 22.3999C78.1 21.6999 78.1 20.8999 78.2 19.8999C78.2 18.8999 78.3 18.0999 78.4 17.2999C78 16.9999 78 16.5999 78.3 16.1999C78.5 15.8999 78.7 15.6999 78.9 15.4999C79.3 15.0999 79.7 14.9999 80.1 15.2999C80.5 15.5999 80.7 15.9999 80.6 16.4999C80.4 17.5999 80.2 18.7999 80.2 20.0999C80.2 21.2999 80.1 22.7999 80.2 24.4999C80.2 26.1999 80.2 27.3999 80.2 28.0999C80.2 29.3999 80.1 31.4999 79.9 34.3999C79.7 37.2999 79.6 39.4999 79.6 40.9999Z" fill="#053E48"/>
<path d="M82.5 17.4001C82.1 17.4001 81.9 17.3001 81.7 17.0001C81.5 16.7001 81.5 16.4001 81.7 16.1001C81.9 15.8001 82.1 15.6001 82.5 15.6001C82.6 15.6001 83.2 15.7001 84.3 15.8001C85.4 15.9001 86.2 16.0001 86.8 15.9001C87.2 15.9001 87.5 16.1001 87.7 16.4001C87.9 16.7001 87.9 17.1001 87.7 17.4001C87.5 17.7001 87.2 17.9001 86.8 18.0001C86.6 18.0001 86.3 18.0001 86.1 18.0001C86.2 22.6001 86.1 26.2001 86 28.9001C86 29.5001 86 30.6001 85.9 32.1001C85.9 33.6001 85.8 34.7001 85.8 35.5001C85.8 35.7001 85.8 36.1001 85.8 36.5001C85.8 36.9001 85.8 37.3001 85.7 37.6001C85.7 37.9001 85.7 38.2001 85.7 38.6001C85.7 39.0001 85.7 39.4001 85.7 39.7001C85.7 40.1001 85.8 40.4001 85.8 40.8001C86.2 40.8001 86.5 40.7001 86.7 40.6001C87.1 40.5001 87.4 40.6001 87.7 40.8001C88 41.1001 88.1 41.4001 88 41.8001C87.9 42.2001 87.7 42.5001 87.3 42.6001C86.4 42.9001 85 42.9001 83.1 42.5001C83 42.5001 82.9 42.4001 82.7 42.3001C82.6 42.2001 82.5 42.1001 82.4 42.0001C82.3 41.8001 82.3 41.5001 82.4 41.2001C82.5 40.9001 82.7 40.8001 82.9 40.7001C83.1 40.7001 83.2 40.6001 83.3 40.6001H83.6C83.5 39.8001 83.5 38.2001 83.6 35.7001C83.6 34.9001 83.7 33.7001 83.7 32.2001C83.7 30.6001 83.8 29.5001 83.8 28.7001C83.8 27.7001 83.9 26.5001 83.9 25.1001C83.9 23.7001 83.9 22.4001 83.9 21.1001C83.9 19.8001 83.9 18.6001 84 17.5001C83.9 17.5001 83.8 17.5001 83.6 17.4001C83.4 17.4001 83.3 17.3001 83.2 17.3001C83.1 17.3001 83 17.2001 82.9 17.2001C82.8 17.2001 82.7 17.1001 82.7 17.1001C82.7 17.4001 82.6 17.4001 82.5 17.4001Z" fill="#053E48"/>
<path d="M99.3 34.5C99.6 35 99.8 35.7 99.8 36.6C99.8 37.4 99.7 38.2 99.5 38.9C99.3 39.6 99 40.3 98.7 40.9C98.2 42.1 97.4 42.9 96.4 43.4C95.4 43.9 94.3 43.9 93.1 43.3C92.7 43.1 92.2 42.8 91.9 42.5C91.5 42.2 91.2 41.8 91 41.4C90.8 41 90.5 40.6 90.3 40.3C90.1 40 90 39.5 89.9 38.9C89.8 38.3 89.7 37.9 89.6 37.5C89.5 37.1 89.5 36.6 89.5 36C89.5 35.4 89.5 34.9 89.5 34.6C89.5 34.3 89.5 33.8 89.5 33.1C89.5 32.4 89.5 32 89.5 31.8C89.5 28.6 89.6 24.9 89.7 20.8C89.7 19.4 90 18.2 90.3 17.2C90.7 16.2 91.4 15.4 92.4 15C93.2 14.6 93.9 14.5 94.6 14.6C95.2 14.8 95.8 15.1 96.2 15.5C96.6 15.9 97 16.5 97.3 17.2C97.6 17.9 97.8 18.6 98 19.2C98.1 19.9 98.2 20.5 98.3 21.2C98.3 21.5 98.2 21.8 97.9 21.9C97.6 22.1 97.3 22.1 97 22C96.7 21.9 96.5 21.7 96.5 21.4C96.2 19.7 95.9 18.6 95.6 18C95.4 17.6 95.2 17.3 94.9 17C94.6 16.7 94.2 16.6 93.8 16.6C93.4 16.6 93 16.8 92.7 17.2C92.4 17.6 92.2 18 92 18.6C91.8 19.2 91.7 19.6 91.7 20C91.7 20.4 91.7 20.9 91.7 21.7C91.7 22.5 91.7 22.9 91.7 23.1C91.6 27.1 91.5 29.8 91.5 30.9C91.5 31.2 91.5 31.8 91.5 32.5C91.5 33.2 91.5 33.9 91.5 34.4C91.5 35 91.5 35.5 91.6 36C91.7 38.2 92.2 39.7 93 40.6C93.9 41.5 94.7 41.9 95.3 41.7C96.1 41.4 96.7 40.8 97.1 39.8C98 37.8 98.2 36.3 97.7 35.6C97.5 35.2 97.5 34.9 97.7 34.5C97.9 34.2 98.2 34 98.6 34C98.7 33.9 99 34.1 99.3 34.5Z" fill="#053E48"/>
<path d="M24.4 94.9001C24.2 94.3001 24.1 93.7001 24.1 93.0001C24.1 92.7001 24.1 92.4001 24.3 92.1001C24.2 83.1001 24.5 69.7001 25.3 51.9001C25.3 51.2001 25.6 50.7001 26.3 50.5001C26.7 50.2001 27.1 50.1001 27.6 50.3001C27.8 50.3001 28.1 50.4001 28.6 50.5001C29.1 50.6001 29.4 50.7001 29.7 50.7001C29.9 50.7001 30.3 50.8001 30.7 50.9001C31.1 51.0001 31.5 51.0001 31.8 51.1001C32.1 51.1001 32.4 51.1001 32.8 51.2001C33.2 51.2001 33.5 51.2001 33.9 51.2001C34.2 51.2001 34.6 51.2001 34.9 51.1001C35.7 51.0001 36.3 51.2001 36.7 51.7001C37.1 52.3001 37.2 52.8001 36.9 53.5001C36.7 54.1001 36.1 54.4001 35.4 54.4001C33.1 54.5001 30.8 54.2001 28.5 53.7001C28.5 56.5001 28.5 60.7001 28.4 66.2001H29.8H34.4C35.1 66.2001 35.6 66.5001 35.9 67.1001C36.2 67.7001 36.2 68.2001 35.9 68.8001C35.6 69.4001 35.1 69.7001 34.4 69.7001L30.3 69.6001C30.2 69.6001 30 69.6001 29.8 69.6001C29.6 69.6001 29.3 69.6001 29 69.6001C28.7 69.6001 28.5 69.5001 28.3 69.5001C28 80.7001 27.9 89.1001 27.9 94.6001C27.9 95.2001 27.7 95.7001 27.2 96.0001C26.7 96.3001 26.2 96.4001 25.6 96.2001C25 96.0001 24.6 95.5001 24.4 94.9001Z" fill="#053E48"/>
<path d="M57.7 67.8999C57.7 68.3999 57.8 69.1999 57.8 70.0999C57.8 71.0999 57.9 71.7999 57.9 72.3999C57.9 72.9999 57.9 73.6999 58 74.5999C58 75.4999 58 76.2999 58 76.8999C58 77.4999 58 78.2999 58 79.0999C58 79.9999 57.9 80.6999 57.9 81.3999C57.9 82.0999 57.8 82.7999 57.7 83.5999C57.6 84.3999 57.5 85.0999 57.4 85.8999C57.2 86.9999 56.9 88.0999 56.6 89.0999C56.3 90.0999 55.8 91.1999 55.2 92.1999C54.6 93.1999 53.9 93.9999 53.1 94.6999C52.3 95.2999 51.4 95.7999 50.3 95.9999C49.2 96.2999 48.1 96.1999 46.8 95.7999C45.7 95.3999 44.7 94.8999 43.9 94.2999C43.1 93.5999 42.4 92.7999 41.9 91.8999C41.4 90.8999 41 89.9999 40.7 89.0999C40.4 88.1999 40.1 87.0999 39.9 85.7999C38.8 80.2999 38.4 74.5999 38.5 68.7999C38.5 68.6999 38.7 65.4999 39 59.3999C39 59.2999 39 59.0999 39 58.6999C39 58.2999 39 58.0999 39 57.9999C39 57.8999 39 57.5999 39.1 57.2999C39.1 56.9999 39.2 56.6999 39.2 56.4999C39.2 56.2999 39.3 56.0999 39.3 55.7999C39.3 55.4999 39.4 55.1999 39.5 55.0999C39.6 54.8999 39.6 54.6999 39.7 54.4999C39.8 54.2999 39.8 53.9999 39.9 53.7999C40 53.5999 40.1 53.3999 40.2 53.1999C40.9 52.0999 41.7 51.1999 42.9 50.6999C44 50.0999 45.2 49.8999 46.5 50.0999C47 49.6999 47.5 49.5999 48.2 49.6999C48.8 49.7999 49.4 49.8999 49.9 50.1999C50.4 50.3999 51 50.7999 51.5 51.2999C52.1 51.7999 52.5 52.2999 52.9 52.6999C53.3 53.0999 53.6 53.5999 54 54.0999C55.4 55.8999 56.3 57.8999 56.8 60.0999C57.3 62.2999 57.6 64.8999 57.7 67.8999ZM53 89.2999C53.9 86.9999 54.4 84.1999 54.6 80.8999C54.8 77.6999 54.8 74.7999 54.5 72.2999C54.5 71.7999 54.4 70.6999 54.4 69.0999C54.4 67.4999 54.3 66.2999 54.3 65.3999C54.2 64.5999 54.1 63.4999 53.9 62.2999C53.7 61.0999 53.4 59.8999 53 58.9999C52.5 57.7999 51.7 56.4999 50.7 55.2999C50.4 54.9999 50.1 54.5999 49.8 54.2999C49.3 54.3999 48.9 54.3999 48.6 54.1999C48.3 53.9999 48 53.7999 47.7 53.6999C47.2 53.8999 46.6 53.8999 46.1 53.4999C45.4 53.4999 44.7 53.6999 44.2 54.0999C43.7 54.4999 43.3 55.0999 43.1 55.7999C42.9 56.3999 42.8 56.9999 42.7 57.6999C42.6 58.3999 42.6 58.9999 42.5 59.4999C42.5 59.9999 42.4 60.6999 42.4 61.5999C42.4 62.4999 42.3 63.0999 42.3 63.3999C41.9 70.9999 42 76.8999 42.6 80.8999C43.2 84.9999 43.7 87.6999 44.3 89.2999C45.1 91.4999 46.5 92.5999 48.5 92.7999C50.5 92.9999 52.1 91.7999 53 89.2999Z" fill="#053E48"/>
<path d="M79 67.8999C79 68.3999 79.1 69.1999 79.1 70.0999C79.1 71.0999 79.2 71.7999 79.2 72.3999C79.2 72.9999 79.2 73.6999 79.3 74.5999C79.3 75.4999 79.3 76.2999 79.3 76.8999C79.3 77.4999 79.3 78.2999 79.3 79.0999C79.3 79.9999 79.2 80.6999 79.2 81.3999C79.2 82.0999 79.1 82.7999 79 83.5999C78.9 84.3999 78.8 85.0999 78.7 85.8999C78.5 86.9999 78.2 88.0999 77.9 89.0999C77.6 90.0999 77.1 91.1999 76.5 92.1999C75.9 93.1999 75.2 93.9999 74.4 94.6999C73.6 95.2999 72.7 95.7999 71.6 95.9999C70.5 96.2999 69.4 96.1999 68.1 95.7999C67 95.3999 66 94.8999 65.2 94.2999C64.4 93.5999 63.7 92.7999 63.2 91.8999C62.7 90.8999 62.3 89.9999 62 89.0999C61.7 88.1999 61.4 87.0999 61.2 85.7999C60.1 80.2999 59.7 74.5999 59.8 68.7999C59.8 68.6999 60 65.4999 60.3 59.3999C60.3 59.2999 60.3 59.0999 60.3 58.6999C60.3 58.2999 60.3 58.0999 60.3 57.9999C60.3 57.8999 60.3 57.5999 60.4 57.2999C60.4 56.9999 60.5 56.6999 60.5 56.4999C60.5 56.2999 60.6 56.0999 60.6 55.7999C60.6 55.4999 60.7 55.1999 60.8 55.0999C60.9 54.9999 60.9 54.6999 61 54.4999C61.1 54.2999 61.1 53.9999 61.2 53.7999C61.3 53.5999 61.4 53.3999 61.5 53.1999C62.2 52.0999 63 51.1999 64.2 50.6999C65.3 50.0999 66.5 49.8999 67.8 50.0999C68.3 49.6999 68.8 49.5999 69.5 49.6999C70.1 49.7999 70.7 49.8999 71.2 50.1999C71.7 50.3999 72.3 50.7999 72.8 51.2999C73.4 51.7999 73.8 52.2999 74.2 52.6999C74.6 53.0999 74.9 53.5999 75.3 54.0999C76.7 55.8999 77.6 57.8999 78.1 60.0999C78.6 62.2999 78.9 64.8999 79 67.8999ZM74.3 89.2999C75.2 86.9999 75.7 84.1999 75.9 80.8999C76.1 77.6999 76.1 74.7999 75.8 72.2999C75.8 71.7999 75.7 70.6999 75.7 69.0999C75.7 67.4999 75.6 66.2999 75.6 65.3999C75.5 64.5999 75.4 63.4999 75.2 62.2999C75 61.0999 74.7 59.8999 74.3 58.9999C73.8 57.7999 73 56.4999 72 55.2999C71.7 54.9999 71.4 54.5999 71.1 54.2999C70.6 54.3999 70.2 54.3999 69.9 54.1999C69.6 53.9999 69.3 53.7999 69 53.6999C68.5 53.8999 67.9 53.8999 67.4 53.4999C66.7 53.4999 66 53.6999 65.5 54.0999C65 54.4999 64.6 55.0999 64.4 55.7999C64.2 56.3999 64.1 56.9999 64 57.6999C63.9 58.3999 63.9 58.9999 63.8 59.4999C63.8 59.9999 63.7 60.6999 63.7 61.5999C63.7 62.4999 63.6 63.0999 63.6 63.3999C63.2 71.0999 63.3 76.9999 63.9 81.0999C64.5 85.1999 65 87.8999 65.6 89.4999C66.4 91.6999 67.8 92.7999 69.8 92.9999C71.9 92.9999 73.4 91.7999 74.3 89.2999Z" fill="#053E48"/>
<path d="M96.7 71.7001C96.5 76.6001 95.5 81.3001 93.6 85.6001C91.7 90.0001 88.8 93.3001 85.1 95.7001C84.2 96.3001 83.5 96.1001 82.9 95.3001C82.2 95.2001 81.8 94.8001 81.7 94.1001C81.7 94.0001 81.6 93.9001 81.6 93.7001C81.6 93.5001 81.5 93.4001 81.5 93.3001C81.4 92.8001 81.4 92.4001 81.6 92.1001C81.6 89.9001 81.7 86.7001 82 82.5001C82.3 78.3001 82.4 75.2001 82.4 73.1001C82.4 71.5001 82.4 69.3001 82.4 66.6001C82.3 63.9001 82.3 61.4001 82.3 59.0001C82.3 56.7001 82.4 54.5001 82.6 52.5001C82.6 52.2001 82.8 51.9001 83 51.6001C83.1 51.1001 83.4 50.8001 83.8 50.5001C84.2 50.3001 84.7 50.3001 85.2 50.5001C89 52.4001 92 55.2001 94 59.1001C96 63.1001 96.9 67.2001 96.7 71.7001ZM93.4 71.7001C93.4 68.1001 92.8 64.9001 91.5 61.8001C90.2 58.8001 88.2 56.3001 85.6 54.4001C85.8 62.7001 85.8 69.0001 85.8 73.1001C85.8 75.1001 85.7 78.2001 85.4 82.3001C85.2 86.4001 85 89.5001 85 91.5001C87.7 89.3001 89.7 86.4001 91.1 82.7001C92.5 79.2001 93.3 75.5001 93.4 71.7001Z" fill="#053E48"/>
<path d="M73.7 108.9C70.7 108.9 67.6 108.7 64.6 108.3C62 107.9 59.4 107.4 56.9 106.8C53.9 106.2 50.8 105.5 47.7 105.1C37.5 104 27.3 106.2 17.3 108.5C17 108.6 16.8 108.4 16.7 108.1C16.6 107.8 16.8 107.6 17.1 107.5C27.1 105.3 37.5 103 47.8 104.1C50.9 104.5 54.1 105.1 57.1 105.8C59.6 106.3 62.2 106.9 64.7 107.3C77.5 109.1 90.4 106.5 102.9 103.9C103.2 103.8 103.4 104 103.5 104.3C103.6 104.6 103.4 104.8 103.1 104.9C93.5 106.8 83.6 108.9 73.7 108.9Z" fill="#053E48"/>
<path d="M73.4 7.39989C65.9 7.39989 58.4 6.99989 51 6.59989C39 5.89989 26.6 5.29989 14.5 6.29989C14.2 6.29989 14 6.09989 14 5.79989C14 5.49989 14.2 5.29989 14.5 5.29989C26.6 4.29989 39 4.89989 51 5.59989C67 6.49989 83.6 7.39989 99.6 3.99989C99.9 3.89989 100.1 4.09989 100.2 4.39989C100.3 4.69989 100.1 4.89989 99.8 4.99989C91.1 6.79989 82.2 7.39989 73.4 7.39989Z" fill="#053E48"/>
<path d="M100.4 1.1L13.1 1C12.8 1 12.6 0.8 12.6 0.5C12.6 0.2 12.8 0 13.1 0L100.4 0.1C100.7 0.1 100.9 0.3 100.9 0.6C100.9 0.9 100.7 1.1 100.4 1.1Z" fill="#053E48"/>
<path d="M75.4 113.5C73.7 113.5 72 113.5 70.2 113.4C65.4 113.2 60.7 112.8 56 112.3C50.5 111.8 44.8 111.2 39.2 111.2C32 111.1 24.8 111.7 17.9 113C17.6 113 17.4 112.9 17.3 112.6C17.2 112.3 17.4 112.1 17.7 112C24.7 110.7 32 110.1 39.2 110.2C44.9 110.3 50.6 110.8 56.1 111.4C60.7 111.8 65.5 112.3 70.2 112.5C80.9 112.9 91.6 112 101.9 109.8C102.2 109.7 102.4 109.9 102.5 110.2C102.6 110.5 102.4 110.7 102.1 110.8C93.5 112.6 84.5 113.5 75.4 113.5Z" fill="#053E48"/>
<path d="M117.3 59.8C119.3 57.5 120.9 54.2001 121.1 49.5C121.4 44.7 120.9 38.1 116.5 29.8C111.9 36.3 99.9 41.3001 99.2 51.9001C98.9 57.6001 102.1 62.3 103.8 63.6C104 63.7 104.1 63.8001 104.3 63.9001C104.5 64 104.7 64 104.9 64.1C105 64.1 105.2 64.2 105.4 64.2C107.9 64.6 113.5 64 117.3 59.8Z" fill="#7ABD39"/>
<path d="M112.9 24.7C113 23.1 112.6 21.2 111.2 19.2C109.8 17.1 107.4 14.5 103 12.5C103.2 16.7 99.8 22.6 102.9 27.2C104.6 29.7 107.4 30.6 108.6 30.6C108.7 30.6 108.8 30.6 108.9 30.6C109 30.6 109.1 30.5 109.2 30.5C109.3 30.5 109.3 30.4 109.4 30.4C110.6 29.7 112.7 27.7 112.9 24.7Z" fill="#7ABD39"/>
<path d="M3.90001 101C1.90001 98.7001 0.300013 95.4001 0.100013 90.7001C-0.199987 86.0001 0.300013 79.3001 4.70001 71.1001C9.30001 77.6001 21.3 82.6001 22 93.2001C22.3 98.9001 19.1 103.6 17.4 104.9C17.2 105 17.1 105.1 16.9 105.2C16.7 105.3 16.5 105.3 16.3 105.4C16.2 105.4 16 105.5 15.8 105.5C13.2 105.9 7.70001 105.3 3.90001 101Z" fill="#7ABD39"/>
<path d="M7.00002 61.4001C6.90002 59.7001 7.30002 57.6001 8.90002 55.4001C10.5 53.1001 13 50.3001 17.9 48.1001C17.7 52.7001 21.4 59.1001 18 64.2001C16.1 66.9001 13.1 67.9001 11.8 67.9001C11.7 67.9001 11.6 67.9001 11.5 67.9001C11.4 67.9001 11.3 67.8001 11.1 67.8001C11 67.8001 10.9 67.7001 10.8 67.7001C9.50002 66.9001 7.30002 64.7001 7.00002 61.4001Z" fill="#7ABD39"/>
<path d="M112.5 97.5001C112.4 97.5001 112.4 97.5001 112.3 97.5001C109.3 96.3001 106.2 95.3001 103.1 94.6001C102.8 94.5001 102.7 94.3001 102.7 94.0001C102.8 93.7001 103 93.6001 103.3 93.6001C106.5 94.3001 109.7 95.3001 112.7 96.5001C113 96.6001 113.1 96.9001 113 97.2001C112.9 97.4001 112.7 97.5001 112.5 97.5001Z" fill="#053E48"/>
<path d="M116 89.1H115.9C112.9 88.4 109.9 88 106.8 88C106.5 88 106.3 87.8 106.3 87.5C106.3 87.2 106.5 87 106.8 87C109.9 87.1 113 87.5 116.1 88.2C116.4 88.3 116.5 88.5 116.5 88.8C116.4 88.9 116.2 89.1 116 89.1Z" fill="#053E48"/>
<path d="M109 80.3999C108.7 80.3999 108.5 80.1999 108.5 79.8999C108.5 79.5999 108.7 79.3999 109 79.3999L118.4 78.8999C118.7 78.8999 118.9 79.0999 118.9 79.3999C118.9 79.6999 118.7 79.8999 118.4 79.8999L109 80.3999Z" fill="#053E48"/>
<path d="M107.2 74C107 74 106.8 73.9 106.7 73.7C106.6 73.5 106.7 73.2 106.9 73L114.6 69.3C114.8 69.2 115.1 69.3 115.3 69.5C115.4 69.7 115.3 70 115.1 70.2L107.4 73.9C107.3 74 107.2 74 107.2 74Z" fill="#053E48"/>
<path d="M14.5 14.9C11.2 14.7 7.90002 14.1 4.70002 13.3C4.40002 13.2 4.30002 13 4.30002 12.7C4.40002 12.4 4.60002 12.3 4.90002 12.3C8.00002 13.1 11.2 13.6 14.4 13.8C14.7 13.8 14.9 14.1 14.9 14.3C15 14.7 14.8 14.9 14.5 14.9Z" fill="#053E48"/>
<path d="M6.5 22.4001C5.2 22.4001 3.8 22.3001 2.5 22.2001C2.2 22.2001 2 21.9001 2 21.7001C2 21.4001 2.3 21.2001 2.5 21.2001C5.5 21.5001 8.6 21.4001 11.6 21.1001C11.9 21.1001 12.1 21.3001 12.2 21.5001C12.2 21.8001 12 22.0001 11.8 22.1001C10.1 22.3001 8.3 22.4001 6.5 22.4001Z" fill="#053E48"/>
<path d="M1.5 31.7C1.3 31.7 1.1 31.5 1 31.3C1 31 1.2 30.8 1.4 30.7L10.6 28.9C10.9 28.8 11.1 29 11.2 29.3C11.3 29.6 11.1 29.8 10.8 29.9L1.5 31.7C1.6 31.7 1.6 31.7 1.5 31.7Z" fill="#053E48"/>
<path d="M6.3 40.7C6.1 40.7 6 40.6 5.9 40.5C5.7 40.3 5.8 40 6 39.8L13.1 35.1C13.3 34.9 13.6 35 13.8 35.2C14 35.4 13.9 35.7 13.7 35.9L6.6 40.6C6.5 40.7 6.4 40.7 6.3 40.7Z" fill="#053E48"/>
</svg>
