<svg width="15" height="15" viewBox="0 0 15 15" fill="none" xmlns="http://www.w3.org/2000/svg">
<path d="M14.9986 12.0865C14.9776 11.5063 14.7359 10.9649 14.318 10.5619C13.4997 9.77282 12.8141 9.31731 12.1604 9.12841C11.2597 8.86808 10.4253 9.10479 9.68068 9.832C9.67957 9.83309 9.67845 9.8342 9.67734 9.83531L8.88515 10.6216C8.39006 10.3425 7.42737 9.72973 6.38727 8.68963L6.31016 8.61258C5.26989 7.57233 4.65714 6.60946 4.37833 6.11493L5.16465 5.32271C5.16577 5.3216 5.16688 5.32049 5.16799 5.31934C5.89517 4.57479 6.13189 3.74048 5.87159 2.83963C5.68265 2.18593 5.22717 1.50032 4.43809 0.682031C4.03514 0.26417 3.49371 0.0224708 2.91348 0.00155282C2.33291 -0.0193944 1.7758 0.182695 1.34373 0.570527L1.32691 0.585645C1.31912 0.592647 1.3115 0.599883 1.30406 0.607295C0.443931 1.46742 -0.00694836 2.67155 0.000112185 4.08955C0.0121532 6.4984 1.33605 9.25313 3.54149 11.4585C3.95736 11.8744 4.43001 12.286 4.94627 12.6818C5.20306 12.8787 5.57085 12.8302 5.76776 12.5734C5.96469 12.3166 5.91612 11.9488 5.6593 11.7519C5.18367 11.3871 4.74993 11.0097 4.37012 10.63C2.37805 8.63789 1.18248 6.19072 1.17196 4.08372C1.16654 2.99165 1.49504 2.08014 2.12208 1.44656L2.12657 1.44252C2.55246 1.06022 3.19725 1.08349 3.59458 1.49549C5.11154 3.06867 5.0017 3.81138 4.33139 4.49874L3.24524 5.59304C3.07491 5.76466 3.02748 6.02329 3.12583 6.24419C3.15339 6.30612 3.82045 7.78014 5.48173 9.44142L5.55887 9.51844C7.21995 11.1795 8.69399 11.8466 8.75592 11.8741C8.97676 11.9725 9.23545 11.9251 9.40705 11.7548L10.5014 10.6686C11.1888 9.99823 11.9315 9.88846 13.5046 11.4054C13.9166 11.8027 13.9399 12.4475 13.5577 12.8733L13.5535 12.8779C12.9251 13.4999 12.0233 13.8281 10.9431 13.8281C10.9342 13.8281 10.9253 13.8281 10.9164 13.8281C10.053 13.8238 9.05317 13.5871 8.02511 13.1436C7.72804 13.0154 7.38319 13.1524 7.25504 13.4496C7.12687 13.7467 7.26383 14.0915 7.56099 14.2197C8.74933 14.7323 9.87626 14.9948 10.9106 14.9999C10.9215 15 10.9324 15 10.9434 15C12.3472 15 13.5393 14.5494 14.3928 13.696C14.4002 13.6886 14.4074 13.681 14.4144 13.6731L14.4296 13.6562C14.8174 13.2242 15.0195 12.6667 14.9986 12.0865Z" fill="white"/>
</svg>
