<svg width="33" height="58" viewBox="0 0 33 58" fill="none" xmlns="http://www.w3.org/2000/svg">
<path d="M16.758 19.0601C32.816 19.0601 32.702 27.5671 32.702 38.0601C32.702 48.5531 25.563 57.0601 16.758 57.0601H16.302C7.49599 57.0601 0.357994 48.5531 0.357994 38.0601C0.357994 27.5671 0.243993 19.0601 16.302 19.0601" fill="#D6A550"/>
<path d="M20.51 13.389C21.025 12.745 21.605 12.143 22.238 11.619C23.029 7.059 28.472 3.341 32.357 2.339C32.357 2.339 29.039 -0.421001 24.924 0.0549988C20.66 0.547999 18.236 2.639 16.869 5.111C19.75 7.361 20.429 10.904 20.51 13.389Z" fill="#88C057"/>
<path d="M11.255 19.411C12.731 19.183 14.4 19.06 16.303 19.06H16.359C16.359 19.06 16.526 14.018 11.359 13.06C6.19201 12.102 5.35901 15.06 5.35901 15.06C9.82501 16.131 10.963 18.321 11.255 19.411Z" fill="#659C35"/>
<path d="M22.612 19.553C23.431 18.001 27.292 14.274 32.358 13.06C32.358 13.06 30.525 9.10201 25.358 10.06C20.191 11.018 17.359 19.06 17.359 19.06C17.359 19.06 17.387 19.065 17.428 19.071C19.399 19.102 21.117 19.267 22.612 19.553Z" fill="#659C35"/>
<path d="M13.988 14.156C16.248 15.808 16.355 18.555 16.358 18.994C16.693 19.01 17.037 19.008 17.383 18.994C17.528 18.599 18.404 16.312 19.948 14.135C20.007 14.02 20.067 13.931 20.129 13.893C20.203 13.792 20.281 13.692 20.357 13.592C20.409 13.525 20.457 13.456 20.511 13.389C20.392 9.76302 19.005 3.88202 11.358 3.06002C7.48297 2.64302 4.35797 5.06002 4.35797 5.06002C8.30897 6.00702 13.983 9.72702 13.988 14.156Z" fill="#A4E869"/>
<path d="M9.358 44.646L5.651 48.353L7.065 49.767L9.358 47.474L11.651 49.767L13.065 48.353L9.358 44.646Z" fill="#F4C44E"/>
<path d="M12.651 53.353L14.065 54.767L16.358 52.474L18.651 54.767L20.065 53.353L16.358 49.646L12.651 53.353Z" fill="#F4C44E"/>
<path d="M19.651 48.353L21.065 49.767L23.358 47.474L25.651 49.767L27.065 48.353L23.358 44.646L19.651 48.353Z" fill="#F4C44E"/>
<path d="M7.065 41.767L9.358 39.474L11.651 41.767L13.065 40.353L9.358 36.646L5.651 40.353L7.065 41.767Z" fill="#F4C44E"/>
<path d="M16.358 43.474L18.651 45.767L20.065 44.353L16.358 40.646L12.651 44.353L14.065 45.767L16.358 43.474Z" fill="#F4C44E"/>
<path d="M2.49802 40.646L0.791016 42.353L2.20502 43.767L2.49802 43.474L4.79102 45.767L6.20502 44.353L2.49802 40.646Z" fill="#F4C44E"/>
<path d="M23.358 39.474L25.651 41.767L27.065 40.353L23.358 36.646L19.651 40.353L21.065 41.767L23.358 39.474Z" fill="#F4C44E"/>
<path d="M5.651 32.353L7.065 33.767L9.358 31.474L11.651 33.767L13.065 32.353L9.358 28.646L5.651 32.353Z" fill="#F4C44E"/>
<path d="M16.358 35.474L18.651 37.767L20.065 36.353L16.358 32.646L12.651 36.353L14.065 37.767L16.358 35.474Z" fill="#F4C44E"/>
<path d="M23.358 28.646L19.651 32.353L21.065 33.767L23.358 31.474L25.651 33.767L27.065 32.353L23.358 28.646Z" fill="#F4C44E"/>
<path d="M9.358 23.474L11.651 25.767L13.065 24.353L9.358 20.646L5.651 24.353L7.065 25.767L9.358 23.474Z" fill="#F4C44E"/>
<path d="M14.065 29.767L16.358 27.474L18.651 29.767L20.065 28.353L16.358 24.646L12.651 28.353L14.065 29.767Z" fill="#F4C44E"/>
<path d="M23.358 23.474L25.651 25.767L27.065 24.353L23.358 20.646L19.651 24.353L21.065 25.767L23.358 23.474Z" fill="#F4C44E"/>
<path d="M31.212 25.538L30.513 24.49L26.651 28.353L28.065 29.767L30.203 27.63L31.526 29.615L32.258 29.127C32.038 27.833 31.705 26.631 31.212 25.538Z" fill="#F4C44E"/>
<path d="M30.16 40.843L26.65 44.353L28.064 45.767L30.554 43.277L31.909 43.955C32.089 43.299 32.245 42.632 32.365 41.947L30.16 40.843Z" fill="#F4C44E"/>
<path d="M2.23005 24.774C1.84705 25.467 1.54205 26.212 1.30005 27.002L2.06505 27.767L2.35805 27.474L4.65105 29.767L6.06505 28.353L2.35805 24.646L2.23005 24.774Z" fill="#F4C44E"/>
<path d="M32.689 34.977L30.358 32.646L26.651 36.353L28.065 37.767L30.358 35.474L31.651 36.767L32.697 35.721C32.695 35.472 32.692 35.223 32.689 34.977Z" fill="#F4C44E"/>
<path d="M0.378023 34.626C0.370023 35.1 0.364023 35.578 0.361023 36.063L1.06502 36.767L2.35802 35.474L4.65102 37.767L6.06502 36.353L2.35802 32.646L0.378023 34.626Z" fill="#F4C44E"/>
</svg>
