<svg width="13" height="14" viewBox="0 0 13 14" fill="none" xmlns="http://www.w3.org/2000/svg">
<path d="M12.5938 7.09668C12.5938 8.23079 12.306 9.28027 11.7305 10.2451C11.1719 11.21 10.4102 11.9717 9.44531 12.5303C8.48047 13.1058 7.43099 13.3936 6.29688 13.3936C5.65365 13.3936 5.03581 13.3005 4.44336 13.1143C4.84961 12.4372 5.10352 11.887 5.20508 11.4639L5.61133 9.96582C5.71289 10.1689 5.89909 10.3382 6.16992 10.4736C6.44076 10.609 6.73698 10.6768 7.05859 10.6768C7.66797 10.6768 8.2181 10.5075 8.70898 10.1689C9.2168 9.81348 9.60612 9.33952 9.87695 8.74707C10.1647 8.15462 10.3086 7.51139 10.3086 6.81738C10.3086 6.10645 10.1393 5.47168 9.80078 4.91309C9.46224 4.35449 8.99674 3.92285 8.4043 3.61816C7.81185 3.29655 7.15169 3.13574 6.42383 3.13574C5.56055 3.13574 4.79883 3.31348 4.13867 3.66895C3.54622 4.00749 3.08073 4.47298 2.74219 5.06543C2.42057 5.64095 2.25977 6.26725 2.25977 6.94434C2.25977 7.43522 2.37826 7.92611 2.61523 8.41699C2.86914 8.89095 3.18229 9.21257 3.55469 9.38184C3.67318 9.43262 3.74089 9.40723 3.75781 9.30566L3.93555 8.59473C3.95247 8.52702 3.93555 8.46777 3.88477 8.41699C3.74935 8.24772 3.63932 8.03613 3.55469 7.78223C3.47005 7.51139 3.42773 7.24056 3.42773 6.96973C3.42773 6.49577 3.53776 6.05566 3.75781 5.64941C3.99479 5.22624 4.32487 4.8877 4.74805 4.63379C5.18815 4.36296 5.69596 4.22754 6.27148 4.22754C7.05013 4.22754 7.6849 4.47298 8.17578 4.96387C8.66667 5.43783 8.91211 6.0472 8.91211 6.79199C8.91211 7.63835 8.71745 8.33236 8.32812 8.87402C7.95573 9.41569 7.49023 9.68652 6.93164 9.68652C6.61003 9.68652 6.35612 9.5765 6.16992 9.35645C5.98372 9.11947 5.92448 8.84863 5.99219 8.54395C6.02604 8.35775 6.10221 8.08691 6.2207 7.73145C6.4069 7.10514 6.5 6.6735 6.5 6.43652C6.5 6.18262 6.43229 5.97949 6.29688 5.82715C6.16146 5.65788 5.9668 5.57324 5.71289 5.57324C5.39128 5.57324 5.12044 5.71712 4.90039 6.00488C4.68034 6.29264 4.57031 6.65658 4.57031 7.09668C4.57031 7.46908 4.62956 7.78223 4.74805 8.03613L4.03711 11.1592C3.93555 11.5824 3.92708 12.1833 4.01172 12.9619C2.8099 12.5049 1.83659 11.7432 1.0918 10.6768C0.363932 9.61035 0 8.41699 0 7.09668C0 5.96257 0.279297 4.91309 0.837891 3.94824C1.41341 2.9834 2.18359 2.22168 3.14844 1.66309C4.11328 1.08757 5.16276 0.799805 6.29688 0.799805C7.43099 0.799805 8.48047 1.08757 9.44531 1.66309C10.4102 2.22168 11.1719 2.9834 11.7305 3.94824C12.306 4.91309 12.5938 5.96257 12.5938 7.09668Z" fill="white"/>
</svg>
