<svg width="70" height="70" viewBox="0 0 70 70" fill="none" xmlns="http://www.w3.org/2000/svg">
<g clip-path="url(#clip0_44_127)">
<path d="M61.2382 30.4087L61.25 9.66324C61.2516 7.12807 59.1971 5.07141 56.6619 5.06981L35.8892 5.05859C35.0769 5.05806 34.2977 5.38063 33.7231 5.95474L2.71193 36.9664C0.919102 38.7592 0.919102 41.6656 2.71193 43.4584L22.8368 63.5838C24.6297 65.3767 27.5365 65.3767 29.3294 63.5838L60.3421 32.5711C60.9157 31.9975 61.2377 31.2199 61.2382 30.4087Z" fill="#FFCB7C"/>
<path d="M54.044 15.9242C54.044 17.9525 52.3996 19.5969 50.3718 19.5969C48.3435 19.5969 46.6991 17.9525 46.6991 15.9242C46.6991 13.8958 48.3435 12.2515 50.3718 12.2515C52.3996 12.2515 54.044 13.8958 54.044 15.9242Z" fill="white"/>
<path d="M8.74622 40.2125L34.6672 14.2915L52.0038 31.6276L26.0828 57.5491L8.74622 40.2125Z" fill="#FF6977"/>
<path d="M33.7605 42.8406C33.7605 44.312 32.5679 45.5051 31.0966 45.5051C29.6253 45.5051 28.4327 44.312 28.4327 42.8406C28.4327 41.3693 29.6253 40.1768 31.0966 40.1768C32.5679 40.1768 33.7605 41.3693 33.7605 42.8406Z" fill="white"/>
<path d="M34.4382 28.9993C34.4382 30.4707 33.2451 31.6632 31.7737 31.6632C30.3029 31.6632 29.1099 30.4707 29.1099 28.9993C29.1099 27.528 30.3029 26.3354 31.7737 26.3354C33.2451 26.3354 34.4382 27.528 34.4382 28.9993Z" fill="white"/>
<path d="M65.3516 14.5568H62.6145L62.6172 9.66377C62.6188 6.37878 59.948 3.70476 56.6624 3.70316L35.8897 3.69141C35.8887 3.69141 35.8881 3.69141 35.8871 3.69141C34.7047 3.69141 33.5928 4.15176 32.7564 4.9881L1.74477 35.9998C0.619507 37.125 0 38.6209 0 40.2124C0 41.8039 0.619507 43.2998 1.74477 44.425L21.8702 64.5505C23.0318 65.7121 24.5576 66.2926 26.0828 66.2926C27.6086 66.2926 29.1344 65.7121 30.296 64.5505L49.8212 45.0253C50.3552 44.4913 50.3552 43.6256 49.8212 43.092C49.2871 42.558 48.4214 42.558 47.8873 43.092L28.3622 62.6172C27.1056 63.8738 25.0607 63.8738 23.804 62.6172L3.67859 42.4918C3.06976 41.8829 2.73438 41.0733 2.73438 40.2124C2.73438 39.3515 3.06976 38.5419 3.67859 37.933L34.6897 6.92192C35.0096 6.60202 35.4347 6.42578 35.8871 6.42578H35.8881L56.6608 6.43753C58.4382 6.43806 59.8839 7.88536 59.8828 9.6627L59.8764 21.1193H53.7182C53.1879 21.1193 52.7077 20.9025 52.3606 20.5532C52.9326 20.3081 53.4688 19.954 53.935 19.4878C55.8998 17.5224 55.8998 14.3256 53.935 12.3608C51.9697 10.3954 48.7728 10.3954 46.8075 12.3608C44.8427 14.3256 44.8427 17.5224 46.8075 19.4878C47.5359 20.2162 48.4342 20.6739 49.3758 20.8624C50.0449 22.6093 51.7384 23.8537 53.7182 23.8537H59.8748L59.8711 30.4076C59.8711 30.86 59.6948 31.2846 59.3749 31.6039L55.6216 35.3578C55.0875 35.8919 55.0875 36.7576 55.6216 37.2916C56.1551 37.8252 57.0208 37.8252 57.5549 37.2916L61.3087 33.5378C62.144 32.702 62.6049 31.5911 62.6054 30.4092L62.6092 23.8537H65.3516C67.9145 23.8537 70 21.7687 70 19.2052C70 16.6423 67.9145 14.5568 65.3516 14.5568ZM48.7413 14.2941C49.191 13.8444 49.7811 13.6201 50.3718 13.6201C50.9619 13.6201 51.552 13.8449 52.0017 14.2941C52.1438 14.4366 52.2613 14.5942 52.3585 14.7603C50.8578 15.2201 49.6786 16.4212 49.2476 17.9347C49.0665 17.8338 48.8951 17.7083 48.7413 17.5545C47.8425 16.6551 47.8425 15.1929 48.7413 14.2941ZM65.3516 21.1193H62.6108L62.6129 17.2912H65.3516C66.4069 17.2912 67.2656 18.1499 67.2656 19.2052C67.2656 20.2605 66.4069 21.1193 65.3516 21.1193Z" fill="black"/>
<path d="M22.0683 38.1863C22.2366 38.7913 22.7861 39.1871 23.3842 39.1871C23.506 39.1871 23.6294 39.1711 23.7517 39.1369L37.7867 35.2303C38.5141 35.0278 38.9397 34.2738 38.7373 33.5464C38.5349 32.8195 37.7814 32.3939 37.0534 32.5963L23.0184 36.5024C22.2916 36.7053 21.8659 37.4589 22.0683 38.1863Z" fill="black"/>
<path d="M28.2464 39.9903C27.4848 40.7519 27.0656 41.7639 27.0656 42.8411C27.0656 43.9178 27.4848 44.9298 28.2464 45.6914C29.0325 46.477 30.0643 46.8701 31.0966 46.8701C32.129 46.8701 33.1613 46.477 33.9474 45.6914C35.5191 44.1197 35.5191 41.5621 33.9474 39.9903C32.3757 38.4186 29.8181 38.4186 28.2464 39.9903ZM32.0136 43.7576C31.5078 44.2633 30.6854 44.2633 30.1796 43.7576C29.9345 43.513 29.7999 43.1872 29.7999 42.8406C29.7999 42.4945 29.935 42.1687 30.1796 41.9236C30.4328 41.671 30.765 41.5444 31.0966 41.5444C31.4288 41.5444 31.761 41.671 32.0136 41.9236C32.5193 42.4294 32.5193 43.2523 32.0136 43.7576Z" fill="black"/>
<path d="M34.6246 31.8501C36.1964 30.2779 36.1964 27.7208 34.6246 26.1491C33.8631 25.3875 32.8505 24.9683 31.7738 24.9683C30.6972 24.9683 29.6846 25.3875 28.9236 26.1491C27.3518 27.7208 27.3518 30.2779 28.9236 31.8501C29.7097 32.6357 30.7415 33.0288 31.7738 33.0288C32.8062 33.0288 33.8385 32.6357 34.6246 31.8501ZM30.8568 28.0824C31.102 27.8372 31.4277 27.7026 31.7738 27.7026C32.1204 27.7026 32.4462 27.8372 32.6908 28.0824C33.1965 28.5881 33.1965 29.4106 32.6908 29.9163C32.1856 30.4221 31.3626 30.4221 30.8568 29.9163C30.3516 29.4106 30.3516 28.5881 30.8568 28.0824Z" fill="black"/>
<path d="M13.5981 35.3612C13.0641 34.8271 12.1984 34.8271 11.6643 35.3612L7.77957 39.2459C7.52322 39.5023 7.37903 39.8499 7.37903 40.2126C7.37903 40.5752 7.52322 40.9229 7.77957 41.1792L25.1167 58.5163C25.3832 58.7828 25.7335 58.9163 26.0833 58.9163C26.4331 58.9163 26.7829 58.7828 27.05 58.5163L52.971 32.5948C53.5051 32.0607 53.5051 31.195 52.971 30.6609L35.6344 13.3244C35.3781 13.068 35.0304 12.9238 34.6678 12.9238C34.3051 12.9238 33.9575 13.068 33.7011 13.3244L19.3985 27.627C18.8645 28.161 18.8645 29.0267 19.3985 29.5608C19.9321 30.0943 20.7978 30.0943 21.3318 29.5608L34.6678 16.2248L50.0711 31.6281L26.0833 55.6159L10.68 40.2126L13.5981 37.2945C14.1317 36.7604 14.1322 35.8952 13.5981 35.3612Z" fill="black"/>
<path d="M52.7217 38.8242C52.3617 38.8242 52.0092 38.9706 51.755 39.2248C51.5008 39.479 51.3545 39.832 51.3545 40.1914C51.3545 40.5508 51.5008 40.9038 51.755 41.1581C52.0092 41.4123 52.3617 41.5586 52.7217 41.5586C53.0811 41.5586 53.4336 41.4123 53.6883 41.1581C53.9425 40.9038 54.0889 40.5508 54.0889 40.1914C54.0889 39.832 53.9425 39.479 53.6883 39.2248C53.4336 38.9706 53.0811 38.8242 52.7217 38.8242Z" fill="black"/>
<path d="M17.4642 33.4266C17.72 33.1724 17.8652 32.821 17.8652 32.46C17.8652 32.1005 17.72 31.7491 17.4642 31.4933C17.2099 31.2391 16.8585 31.0928 16.498 31.0928C16.1381 31.0928 15.7856 31.2391 15.5314 31.4933C15.2767 31.7475 15.1309 32.1005 15.1309 32.46C15.1309 32.821 15.2767 33.1724 15.5314 33.4266C15.7867 33.6824 16.1381 33.8271 16.498 33.8271C16.8585 33.8271 17.2099 33.6824 17.4642 33.4266Z" fill="black"/>
</g>
<defs>
<clipPath id="clip0_44_127">
<rect width="70" height="70" fill="white"/>
</clipPath>
</defs>
</svg>
