<svg width="50" height="56" viewBox="0 0 50 56" fill="none" xmlns="http://www.w3.org/2000/svg">
<path d="M49.729 20.146C48.678 12.387 43.026 5.982 35.926 2.168C35.568 1.976 35.206 1.797 34.839 1.63C32.769 0.692 25.338 0.13 22.094 0.021C21.978 0.018 21.86 0 21.744 0C21.687 0 21.629 0.005 21.572 0.006C21.401 0.002 21.243 0 21.113 0L21.119 0.022C20.656 0.042 20.193 0.076 19.732 0.139C18.579 0.297 17.443 0.585 16.336 0.989C7.509 4.208 0.575004 11.784 0.132004 21.261C-0.0459961 25.073 1 28.836 2.854 32.172C5.153 36.309 9.32 44.377 9.043 48.054C8.985 48.817 9.015 49.542 9.204 50.195C10.197 53.625 12.567 56 15.744 56C15.868 56 15.982 55.966 16.102 55.95L16.113 56H20.191C21.253 56 22.113 55.139 22.113 54.078V46.148C22.113 45.187 22.315 44.221 22.8 43.391C24.282 40.858 22.848 38.849 23.157 34.655C23.315 32.512 26.474 32.377 26.702 34.514C26.73 34.773 26.744 35.036 26.744 35.304L24.432 51.082C24.056 53.373 25.319 55.508 27.128 55.915L34.113 56C37.289 56 39.291 53.625 40.284 50.195C40.432 49.685 40.471 49.135 40.445 48.562C40.277 44.959 44.739 36.659 47.125 32.498C49.27 28.755 50.308 24.422 49.729 20.146Z" fill="#445A66"/>
<path d="M19.732 0.139C18.579 0.297 17.443 0.585 16.336 0.989C7.509 4.208 0.575004 11.784 0.132004 21.261C-0.0459961 25.073 1 28.836 2.854 32.172C5.153 36.309 9.32 44.377 9.043 48.054C8.985 48.817 9.015 49.542 9.204 50.195C10.197 53.625 12.567 56 15.744 56C17.875 56 19.474 53.626 19.056 51.082L16.744 35.304C16.744 31.942 18.983 29.217 21.744 29.217C24.505 29.217 26.744 31.942 26.744 35.304L24.432 51.082C24.014 53.626 25.612 56 27.744 56C30.92 56 33.291 53.625 34.284 50.195C34.432 49.685 34.471 49.136 34.445 48.562C34.277 44.96 38.739 36.659 41.125 32.498C43.271 28.755 44.309 24.421 43.73 20.146C42.679 12.387 37.027 5.982 29.927 2.168C29.569 1.976 29.207 1.797 28.84 1.63C26.521 0.581 24.094 0 21.744 0C21.073 0 20.401 0.047 19.732 0.139Z" fill="#FFD3B9"/>
<path d="M20.743 16.0429V12.1069C14.988 12.2649 8.49798 13.6169 1.48698 16.9999C1.26198 17.1089 1.01798 17.1149 0.792981 17.0539C0.436981 18.4079 0.199981 19.8089 0.131981 21.2609C0.130981 21.2929 0.132981 21.3249 0.130981 21.3569C7.63698 17.6499 14.601 16.1979 20.743 16.0429Z" fill="#FFA89C"/>
<path d="M20.743 5.03297V0.0349731C20.405 0.0579731 20.068 0.0929731 19.731 0.138973C18.578 0.296973 17.442 0.584973 16.335 0.988973C12.305 2.45897 8.67796 4.84597 5.87396 7.89997C11.203 5.97997 16.191 5.15097 20.743 5.03297Z" fill="#FFA89C"/>
<path d="M3.52997 33.408C4.09997 34.462 4.72897 35.662 5.35697 36.935C5.64697 36.795 5.99097 36.781 6.29097 36.957C8.74497 38.395 12.677 40.208 17.547 40.791L16.96 36.783L16.709 36.757C12.163 36.291 7.73797 35.161 3.52997 33.408Z" fill="#FFA89C"/>
<path d="M20.743 7.03699C15.941 7.16699 10.637 8.11099 4.938 10.383C4.605 10.518 4.247 10.442 3.976 10.238C2.98 11.652 2.153 13.176 1.521 14.791C8.497 11.571 14.974 10.251 20.743 10.1V7.03699Z" fill="#FFA89C"/>
<path d="M43.164 17.456C43.066 17.487 42.965 17.508 42.862 17.508C42.699 17.508 42.533 17.468 42.38 17.383C38.168 15.059 31.359 12.279 22.744 12.105V16.035C32.47 16.226 39.916 19.559 43.872 21.821C43.85 21.263 43.805 20.704 43.73 20.147C43.605 19.229 43.411 18.333 43.164 17.456Z" fill="#FFA89C"/>
<path d="M22.7429 10.098C31.1169 10.26 37.8659 12.781 42.3279 15.091C41.6119 13.388 40.6719 11.781 39.5509 10.284C39.3769 10.418 39.1659 10.499 38.9449 10.499C38.8139 10.499 38.6809 10.474 38.5529 10.419C34.4939 8.69298 29.1099 7.15498 22.7429 7.02698V10.098Z" fill="#FFA89C"/>
<path d="M22.7429 5.02196C28.4929 5.13296 33.4749 6.34796 37.4689 7.83796C35.3089 5.59496 32.7339 3.67596 29.9249 2.16696C29.5669 1.97496 29.2049 1.79596 28.8379 1.62896C26.8469 0.72696 24.7769 0.19796 22.7429 0.05896V5.02196Z" fill="#FFA89C"/>
<path d="M24.72 53.7109C25.267 55.0499 26.397 55.9999 27.744 55.9999C30.679 55.9999 32.91 53.9599 34.018 50.9459C30.935 52.3589 27.813 53.2899 24.72 53.7109Z" fill="#FFA89C"/>
<path d="M26.009 42.5159C25.948 42.5269 25.889 42.5319 25.83 42.5319C25.781 42.5319 25.736 42.5139 25.688 42.5069L25.1 46.5209C28.409 45.9909 31.734 44.8619 34.988 43.1509C35.253 43.0119 35.549 43.0129 35.808 43.1129C36.513 41.3409 37.413 39.4409 38.327 37.6489C34.271 40.1329 30.134 41.7709 26.009 42.5159Z" fill="#FFA89C"/>
<path d="M24.947 48.563C24.898 48.563 24.853 48.544 24.805 48.537L24.432 51.082C24.396 51.304 24.393 51.521 24.387 51.738C27.556 51.313 30.77 50.319 33.941 48.777C34.103 48.698 34.274 48.683 34.442 48.694C34.441 48.649 34.447 48.607 34.444 48.562C34.405 47.722 34.625 46.619 35.005 45.38C31.744 46.986 28.415 48.057 25.096 48.551C25.045 48.559 24.995 48.563 24.947 48.563Z" fill="#FFA89C"/>
<path d="M18.717 48.7759C18.669 48.7829 18.625 48.8029 18.575 48.8029C18.55 48.8029 18.523 48.8019 18.497 48.7999C15.244 48.5479 12.032 47.7409 8.93604 46.4139C9.03604 47.0219 9.07804 47.5759 9.04204 48.0539C9.00004 48.6179 9.00604 49.1589 9.08704 49.6679C9.29904 49.6089 9.52704 49.6039 9.74504 49.6959C12.76 50.9859 15.897 51.7399 19.071 51.9369C19.086 51.9379 19.099 51.9469 19.114 51.9479C19.117 51.6629 19.102 51.3739 19.054 51.0809L18.717 48.7759Z" fill="#FFA89C"/>
<path d="M26.801 36.686C26.762 36.691 26.724 36.693 26.686 36.693C26.636 36.693 26.592 36.674 26.544 36.667L25.986 40.478C30.233 39.66 34.509 37.838 38.699 35.046C39.017 34.835 39.407 34.841 39.722 35.009C40.136 34.248 40.529 33.546 40.887 32.917C36.229 34.873 31.497 36.146 26.801 36.686Z" fill="#FFA89C"/>
<path d="M9.09098 44.303C12.108 45.679 15.247 46.505 18.424 46.778L17.841 42.796C17.793 42.803 17.749 42.822 17.699 42.822C17.663 42.822 17.626 42.82 17.59 42.816C13.804 42.402 9.99998 41.208 6.50098 39.356C7.26098 41.039 7.93998 42.731 8.40798 44.261C8.62798 44.2 8.86698 44.2 9.09098 44.303Z" fill="#FFA89C"/>
<path d="M26.718 34.6799C31.556 34.1079 36.44 32.7359 41.237 30.5949C41.517 30.4689 41.816 30.4939 42.072 30.6169C43.026 28.5049 43.631 26.2569 43.813 23.9649C43.658 23.9569 43.502 23.9169 43.36 23.8329C39.731 21.6859 32.421 18.2369 22.744 18.0399V23.2179C22.744 23.7709 22.297 24.2179 21.744 24.2179C21.191 24.2179 20.744 23.7709 20.744 23.2179V18.0499C14.747 18.2089 7.932 19.6449 0.574002 23.3579C0.446002 23.4219 0.311002 23.4539 0.177002 23.4619C0.374002 26.1199 1.128 28.7169 2.312 31.1229C2.573 30.9879 2.884 30.9559 3.173 31.0849C7.247 32.9129 11.55 34.1149 15.979 34.6619C16.131 34.4809 16.347 34.3529 16.599 34.3159C16.674 34.3039 16.743 34.3209 16.815 34.3259C17.2 31.4309 19.257 29.2179 21.744 29.2179C24.332 29.2169 26.461 31.6109 26.718 34.6799Z" fill="#FFA89C"/>
<path d="M9.86401 51.879C11.067 54.369 13.124 56 15.744 56C17.023 56 18.099 55.137 18.674 53.905C15.681 53.69 12.725 53 9.86401 51.879Z" fill="#FFA89C"/>
<path d="M21.638 23.355C18.039 23.355 15.111 25.99 15.111 29.229C15.111 30.169 15.361 31.083 15.831 31.904C17.298 29.991 19.399 28.86 21.638 28.86C23.877 28.86 25.979 29.991 27.445 31.904C27.915 31.082 28.165 30.169 28.165 29.229C28.165 25.99 25.237 23.355 21.638 23.355Z" fill="#FFD3B9"/>
</svg>
