<svg width="70" height="70" viewBox="0 0 70 70" fill="none" xmlns="http://www.w3.org/2000/svg">
<g clip-path="url(#clip0_44_140)">
<path d="M53.4613 13.5371H45.3906C44.2606 13.5371 43.3441 14.4536 43.3441 15.5836V18.0536C43.3441 19.1837 44.2606 20.1001 45.3906 20.1001H53.4613C54.5914 20.1001 55.5078 19.1837 55.5078 18.0536V15.5836C55.5078 14.4536 54.5914 13.5371 53.4613 13.5371Z" fill="#FFC15A"/>
<path d="M38.9648 15.7246H43.3441V20.0996H38.9648C37.7568 20.0996 36.7773 19.1207 36.7773 17.9121C36.7773 16.7041 37.7568 15.7246 38.9648 15.7246Z" fill="#AAC0C1"/>
<path d="M65.625 53.5918C65.625 57.2159 62.6866 60.1543 59.0625 60.1543C55.4384 60.1543 52.5 57.2159 52.5 53.5918C52.5 49.9671 55.4384 47.0293 59.0625 47.0293C62.6866 47.0293 65.625 49.9671 65.625 53.5918Z" fill="#AAC0C1"/>
<path d="M68.6504 49.2122H49.2743C48.3215 50.9041 46.5308 51.9508 44.5895 51.9508H1.3848V50.9174C1.3848 40.1647 10.1017 31.4478 20.8544 31.4478H30.5524C32.0744 31.4478 33.3081 32.6815 33.3081 34.2035V46.4821H40.5836C43.0536 46.4821 45.3292 45.1394 46.5239 42.977C47.0777 41.9746 47.3693 40.8478 47.3704 39.7022L47.3901 20.0996H52.2436L56.0258 37.1873H56.625C63.2666 37.1873 68.6504 42.5712 68.6504 49.2122Z" fill="#FFC15A"/>
<path d="M23.5156 53.5918C23.5156 57.2159 20.5772 60.1543 16.9531 60.1543C13.329 60.1543 10.3906 57.2159 10.3906 53.5918C10.3906 49.9671 13.329 47.0293 16.9531 47.0293C20.5772 47.0293 23.5156 49.9671 23.5156 53.5918Z" fill="#AAC0C1"/>
<path d="M27.074 51.9511C27.074 46.3611 22.5431 41.8296 16.9531 41.8296C14.5968 41.8296 12.4286 42.6349 10.7084 43.9856C10.7078 43.9861 10.7073 43.9866 10.7068 43.9866C8.34731 45.8398 6.83218 48.7184 6.83218 51.9511H27.074Z" fill="#FFE6C0"/>
<path d="M60.9766 19.5029H58.2422C56.7319 19.5029 55.5078 18.2789 55.5078 16.7686C55.5078 15.2582 56.7319 14.0342 58.2422 14.0342H60.9766V19.5029Z" fill="#EFF3F3"/>
<path d="M12.8494 10.1177H21.6689C23.1792 10.1177 24.4032 11.3417 24.4032 12.8521V28.7114C24.4032 30.2212 23.1792 31.4458 21.6689 31.4458H4.10156C2.59125 31.4458 1.36719 30.2212 1.36719 28.7114V21.5994C1.36719 15.258 6.50803 10.1177 12.8494 10.1177Z" fill="#FF6977"/>
<path d="M32.1278 31.4458H27.1376C25.6278 31.4458 24.4032 30.2212 24.4032 28.7114C24.4032 27.2011 25.6278 25.9771 27.1376 25.9771H32.1278C33.6381 25.9771 34.8622 27.2011 34.8622 28.7114C34.8622 30.2212 33.6381 31.4458 32.1278 31.4458Z" fill="#AAC0C1"/>
<path d="M29.8773 58.7827C29.5174 58.7827 29.1649 58.929 28.9107 59.1833C28.6565 59.4375 28.5101 59.7905 28.5101 60.1499C28.5101 60.5093 28.6565 60.8623 28.9107 61.1165C29.1649 61.3708 29.5174 61.5171 29.8773 61.5171C30.2367 61.5171 30.5892 61.3708 30.844 61.1165C31.0982 60.8623 31.2445 60.5109 31.2445 60.1499C31.2445 59.7905 31.0982 59.4375 30.844 59.1833C30.5892 58.929 30.2367 58.7827 29.8773 58.7827Z" fill="black"/>
<path d="M57.1084 35.8294L53.9222 21.4349C54.782 21.3185 55.5404 20.8811 56.0739 20.2477C56.7036 20.6413 57.4464 20.8699 58.2422 20.8699H60.9766C61.7317 20.8699 62.3438 20.2579 62.3438 19.5027V14.034C62.3438 13.2788 61.7317 12.6668 60.9766 12.6668H58.2422C57.4229 12.6668 56.6592 12.9092 56.0178 13.3253C55.3919 12.6176 54.4781 12.1701 53.4613 12.1701H45.3906C43.9407 12.1701 42.6995 13.0796 42.2055 14.3576H38.9648C37.0049 14.3576 35.4102 15.9523 35.4102 17.9123C35.4102 19.8723 37.0049 21.467 38.9648 21.467H46.0021V24.2222C46.0021 24.9773 46.6142 25.5894 47.3693 25.5894C48.1245 25.5894 48.7365 24.9773 48.7365 24.2222V21.467H51.1291L54.5609 36.9733L48.0657 48.5421C47.356 49.8014 46.0176 50.5838 44.5719 50.5838H28.3574C27.6786 44.8913 22.8251 40.4623 16.9531 40.4623C14.3549 40.4623 11.9036 41.3088 9.86404 42.9099C9.86137 42.9121 9.8587 42.9142 9.85603 42.9163C7.42767 44.8261 5.90134 47.5669 5.54565 50.5838H2.73758C2.91595 40.755 10.9669 32.8146 20.8368 32.8146H30.5353C31.3006 32.8146 31.9238 33.4379 31.9238 34.2037V46.4822C31.9238 47.2374 32.5359 47.8494 33.291 47.8494H40.5659C43.5337 47.8494 46.2686 46.2355 47.7031 43.6384C48.3669 42.4368 48.7189 41.076 48.7199 39.704L48.7269 35.1618C48.728 34.4067 48.1165 33.7936 47.3613 33.7925C47.3608 33.7925 47.3602 33.7925 47.3597 33.7925C46.6056 33.7925 45.9936 34.4035 45.9925 35.1575L45.9856 39.7008C45.985 40.6129 45.7511 41.5176 45.31 42.3161C44.3562 44.0421 42.5382 45.1145 40.5659 45.1145H34.6582V34.2032C34.6582 33.503 34.482 32.8429 34.1727 32.2646C35.4011 31.5548 36.2299 30.2282 36.2299 28.7109C36.2299 26.4492 34.3896 24.6094 32.1284 24.6094H27.1381C26.6586 24.6094 26.1987 24.6927 25.771 24.8444V12.8516C25.771 10.5898 23.9306 8.75 21.6694 8.75H12.8494C6.45569 8.75 1.13861 13.4444 0.161285 19.5668C0.120163 19.6971 0.0977326 19.8354 0.0977326 19.9791C0.0977326 19.9876 0.0988006 19.9957 0.0988006 20.0037C0.0336457 20.527 0 21.0595 0 21.5994V28.7115C0 30.7649 1.51726 32.4707 3.48953 32.7671L6.51711 35.7947C2.5058 39.595 0 44.9687 0 50.9176V51.951C0 52.7061 0.61203 53.3182 1.36719 53.3182H9.05067C9.03305 53.4063 9.02344 53.4982 9.02344 53.5916C9.02344 55.5756 9.75777 57.3909 10.9669 58.7827H1.36719C0.61203 58.7827 0 59.3952 0 60.1498C0 60.905 0.61203 61.517 1.36719 61.517H16.795C16.8479 61.5186 16.9003 61.5213 16.9531 61.5213C21.3255 61.5213 24.8828 57.9639 24.8828 53.5916C24.8828 53.4982 24.8732 53.4063 24.8556 53.3182H44.5719C46.7247 53.3182 48.7365 52.2864 49.9974 50.5795H51.7288C51.3395 51.5269 51.1328 52.5481 51.1328 53.5916C51.1328 55.5756 51.8671 57.3909 53.0762 58.7827H35.3461C34.5909 58.7827 33.9789 59.3952 33.9789 60.1498C33.9789 60.905 34.5909 61.517 35.3461 61.517H58.9044C58.9573 61.5186 59.0096 61.5213 59.0625 61.5213C63.4348 61.5213 66.9922 57.9639 66.9922 53.5916C66.9922 52.5481 66.7855 51.5269 66.3962 50.5795H68.6328C69.388 50.5795 70 49.9675 70 49.2123C70 41.9956 64.2616 36.0938 57.1084 35.8294ZM27.1381 27.3443H32.1284C32.8819 27.3443 33.4956 27.9574 33.4956 28.7115C33.4956 29.465 32.8819 30.0787 32.1284 30.0787H27.1381C26.384 30.0787 25.771 29.465 25.771 28.7115C25.771 27.9574 26.384 27.3443 27.1381 27.3443ZM2.73438 21.5994C2.73438 21.515 2.73865 21.4312 2.74078 21.3468H17.7013C18.4565 21.3468 19.0685 20.7348 19.0685 19.9796C19.0685 19.2245 18.4565 18.6124 17.7013 18.6124H3.18512C4.46259 14.4884 8.31154 11.4849 12.8494 11.4849H21.6689C22.4229 11.4849 23.036 12.098 23.036 12.8521V28.7115C23.036 29.465 22.4229 30.0787 21.6689 30.0787H4.1021C4.1021 30.0787 4.10156 30.0787 4.10103 30.0787C3.34747 30.0787 2.73438 29.465 2.73438 28.7115V21.5994ZM7.40257 32.813H10.5311C9.87419 33.1879 9.24026 33.5986 8.63037 34.0408L7.40257 32.813ZM22.1484 53.5916C22.1484 56.4387 19.8461 58.757 17.006 58.7853C16.9884 58.7848 16.9707 58.7827 16.9531 58.7827H16.7956C14.0035 58.6988 11.7578 56.4034 11.7578 53.5916C11.7578 53.4982 11.7482 53.4063 11.7306 53.3182H22.1757C22.1581 53.4063 22.1484 53.4982 22.1484 53.5916ZM8.3046 50.5838C8.64319 48.4118 9.78394 46.4497 11.5458 45.0659C11.5501 45.0632 11.5538 45.0595 11.5581 45.0568C13.11 43.8403 14.9755 43.1967 16.9531 43.1967C21.3153 43.1967 24.9421 46.4037 25.6006 50.5838H8.3046ZM58.2422 15.4012H59.6094V18.1355H58.2422C57.4881 18.1355 56.875 17.5224 56.875 16.7683C56.875 16.0148 57.4881 15.4012 58.2422 15.4012ZM38.1445 17.9123C38.1445 17.4599 38.5125 17.092 38.9648 17.092H41.9769V18.0533C41.9769 18.2861 42.0004 18.5131 42.0448 18.7326H38.9648C38.5125 18.7326 38.1445 18.3646 38.1445 17.9123ZM47.3693 18.7326H45.3906C45.0163 18.7326 44.7113 18.4282 44.7113 18.0533V15.5838C44.7113 15.2094 45.0163 14.9045 45.3906 14.9045H53.4613C53.8357 14.9045 54.1406 15.2094 54.1406 15.5838V18.0533C54.1406 18.4282 53.8357 18.7326 53.4613 18.7326H47.3693ZM64.2578 53.5916C64.2578 56.4387 61.9555 58.757 59.1154 58.7853C59.0977 58.7848 59.0801 58.7827 59.0625 58.7827H58.905C56.1129 58.6988 53.8672 56.4034 53.8672 53.5916C53.8672 52.5053 54.2058 51.4554 54.8296 50.5795H63.2954C63.9192 51.4554 64.2578 52.5053 64.2578 53.5916ZM51.5926 47.8452L56.8061 38.5595C62.1301 38.6572 66.5137 42.676 67.178 47.8452H51.5926Z" fill="black"/>
<path d="M47.3693 31.0581C48.1245 31.0581 48.7365 30.4461 48.7365 29.6909C48.7365 28.9358 48.1245 28.3237 47.3693 28.3237H47.3645C46.6093 28.3237 45.9995 28.9358 45.9995 29.6909C45.9995 30.4461 46.6142 31.0581 47.3693 31.0581Z" fill="black"/>
</g>
<defs>
<clipPath id="clip0_44_140">
<rect width="70" height="70" fill="white"/>
</clipPath>
</defs>
</svg>
