<svg width="20" height="18" viewBox="0 0 20 18" fill="none" xmlns="http://www.w3.org/2000/svg">
<path d="M20 5.99021C20 5.90439 19.9796 5.82266 19.9346 5.7491L16.9595 0.518206C16.8737 0.367 16.7103 0.268921 16.5345 0.268921H3.46138C3.28566 0.268921 3.12219 0.362914 3.03637 0.518206L0.0653862 5.7491C0.0245198 5.82266 0 5.90439 0 5.99021C0 7.16308 0.706988 8.16839 1.71639 8.61383V17.2407C1.71639 17.5104 1.93707 17.7311 2.20678 17.7311H4.91622C4.92031 17.7311 4.9244 17.7311 4.92848 17.7311H8.72906C8.73314 17.7311 8.73723 17.7311 8.74132 17.7311H17.7891C18.0588 17.7311 18.2795 17.5104 18.2795 17.2407V8.67513C18.2795 8.6547 18.2795 8.63835 18.2754 8.62201C19.2889 8.17656 20 7.16716 20 5.99021ZM3.74745 1.2538H16.2485L18.5738 5.34452H1.42624L3.74745 1.2538ZM14.2338 6.32123C14.0785 7.20394 13.3061 7.87415 12.3784 7.87415C11.4508 7.87415 10.6784 7.20394 10.5231 6.32123H14.2338ZM9.481 6.32123C9.32571 7.20394 8.55333 7.87415 7.62566 7.87415C6.698 7.87415 5.92562 7.20394 5.76624 6.32123H9.481ZM1.01349 6.32123H4.72824C4.57295 7.20394 3.79649 7.87415 2.86882 7.87415C1.94115 7.87824 1.16878 7.20394 1.01349 6.32123ZM8.23866 16.7503H5.41888V11.4581C5.41888 11.074 5.72946 10.7593 6.11769 10.7593H7.54393C7.92808 10.7593 8.24275 11.0699 8.24275 11.4581V16.7503H8.23866ZM17.2987 16.7503H9.21945V11.4581C9.21945 10.5346 8.46751 9.77852 7.53984 9.77852H6.11361C5.19003 9.77852 4.434 10.5305 4.434 11.4581V16.7544H2.69718V8.85494C2.75439 8.85903 2.81161 8.85903 2.86882 8.85903C3.85778 8.85903 4.73233 8.35637 5.24724 7.59217C5.76216 8.35637 6.6367 8.85903 7.62566 8.85903C8.61463 8.85903 9.48508 8.35637 10.0041 7.59217C10.519 8.35637 11.3935 8.85903 12.3784 8.85903C13.3674 8.85903 14.2378 8.35637 14.7528 7.59217C15.2677 8.35637 16.1422 8.85903 17.1312 8.85903C17.1884 8.85903 17.2415 8.85494 17.2987 8.85494V16.7503ZM17.1312 7.87824C16.2035 7.87824 15.4311 7.20803 15.2758 6.32532H18.9906C18.8312 7.20394 18.0588 7.87824 17.1312 7.87824Z" fill="#121212"/>
</svg>
