<svg width="13" height="12" viewBox="0 0 13 12" fill="none" xmlns="http://www.w3.org/2000/svg">
<path d="M11.6543 3.45605C11.6712 3.52376 11.6797 3.63379 11.6797 3.78613C11.6797 5.00488 11.3835 6.18132 10.791 7.31543C10.1816 8.51725 9.32682 9.47363 8.22656 10.1846C7.02474 10.9801 5.64518 11.3779 4.08789 11.3779C2.59831 11.3779 1.23568 10.9801 0 10.1846C0.186198 10.2015 0.397786 10.21 0.634766 10.21C1.87044 10.21 2.97917 9.8291 3.96094 9.06738C3.36849 9.06738 2.84375 8.89811 2.38672 8.55957C1.94661 8.2041 1.64193 7.764 1.47266 7.23926C1.64193 7.25618 1.80273 7.26465 1.95508 7.26465C2.19206 7.26465 2.42904 7.23926 2.66602 7.18848C2.05664 7.05306 1.54883 6.73991 1.14258 6.24902C0.736328 5.75814 0.533203 5.19954 0.533203 4.57324V4.52246C0.905599 4.74251 1.30339 4.861 1.72656 4.87793C1.37109 4.62402 1.08333 4.30241 0.863281 3.91309C0.643229 3.52376 0.533203 3.10059 0.533203 2.64355C0.533203 2.1696 0.660156 1.72103 0.914062 1.29785C1.57422 2.12728 2.37826 2.78743 3.32617 3.27832C4.29102 3.76921 5.3151 4.04004 6.39844 4.09082C6.36458 3.8877 6.34766 3.68457 6.34766 3.48145C6.34766 3.00749 6.46615 2.56738 6.70312 2.16113C6.9401 1.73796 7.26172 1.40788 7.66797 1.1709C8.07422 0.933919 8.51432 0.81543 8.98828 0.81543C9.3776 0.81543 9.73307 0.891602 10.0547 1.04395C10.3932 1.19629 10.6895 1.39941 10.9434 1.65332C11.5527 1.53483 12.1198 1.32324 12.6445 1.01855C12.4414 1.64486 12.0521 2.13574 11.4766 2.49121C11.9844 2.4235 12.4922 2.27962 13 2.05957C12.6276 2.60124 12.179 3.06673 11.6543 3.45605Z" fill="white"/>
</svg>
