<svg width="50" height="56" viewBox="0 0 50 56" fill="none" xmlns="http://www.w3.org/2000/svg">
<path d="M38.971 27.098C40.522 27.466 42.217 27.458 44.025 26.695C47.133 25.384 49.343 22.403 49.412 19.03C49.49 15.252 47.093 12.03 43.735 10.852C43.499 7.42201 40.649 4.71201 37.16 4.71201C37.15 4.71201 37.14 4.71301 37.13 4.71301C37.192 4.19401 37.157 3.64501 36.989 3.07201C36.517 1.46201 35.102 0.227008 33.436 0.0290084C32.07 -0.132992 30.816 0.356008 29.937 1.22501C29.103 0.472008 28.007 8.41403e-06 26.792 8.41403e-06C24.189 8.41403e-06 22.079 2.11001 22.079 4.71301C22.079 4.72101 22.081 4.72901 22.081 4.73701C18.917 4.97701 16.423 7.61501 16.423 10.84C16.423 11.333 16.487 11.81 16.597 12.269C12.831 12.426 9.82402 15.519 9.82402 19.323C9.82402 20.612 10.174 21.816 10.777 22.857C9.62002 23.808 8.88202 25.25 8.88202 26.864C8.88202 29.121 10.327 31.036 12.341 31.748C12.081 40.965 15.37 46.403 21.733 53.728C21.847 53.859 21.962 53.991 22.078 54.122C22.103 54.15 22.128 54.178 22.153 54.206C24.799 57.175 30.767 54.901 29.483 51.137C22.628 31.027 43.758 33.934 43.758 33.934C43.758 33.934 44.362 27.851 38.911 27.566C38.918 27.414 38.925 27.261 38.932 27.109C38.946 27.106 38.957 27.101 38.971 27.098Z" fill="#88C057"/>
<path d="M22.154 54.206C22.129 54.178 22.104 54.15 22.079 54.122C21.963 53.991 21.848 53.86 21.734 53.728C15.37 46.403 12.081 40.965 12.342 31.748C10.328 31.036 8.883 29.121 8.883 26.864C8.883 25.249 9.621 23.808 10.778 22.857C10.176 21.816 9.825 20.612 9.825 19.323C9.825 15.519 12.832 12.425 16.598 12.269C16.488 11.81 16.424 11.333 16.424 10.84C16.424 8.27801 18 6.09201 20.233 5.17801C20.085 4.69301 19.897 4.20401 19.65 3.71501C18.418 1.27401 16.25 -0.258992 14.271 0.0630082C12.64 0.328008 11.499 1.65901 11.008 3.44901C9.64 2.52801 8.122 2.17001 6.751 2.65301C3.812 3.68801 2.885 7.91401 4.568 11.828C4.573 11.84 4.58 11.85 4.585 11.862C1.399 13.384 0.551996 17.909 2.572 21.991C2.867 22.586 3.21 23.133 3.584 23.638C0.0649955 25.093 -0.864004 29.511 1.352 33.372C2.06 34.606 3.006 35.622 4.058 36.389C3.56 37.58 3.668 39.045 4.46 40.397C5.523 42.213 7.51799 43.291 9.38599 43.278C12.669 49.725 16.697 52.226 22.796 54.814C22.86 54.841 22.924 54.868 22.988 54.894C22.688 54.704 22.403 54.486 22.154 54.206Z" fill="#659C35"/>
<path d="M24.545 24.419C24.603 24.291 24.63 24.157 24.632 24.025C25.349 22.221 26.212 20.707 27.11 19.444C31.594 18.512 34.977 19.913 35.052 19.945C35.183 20.003 35.319 20.029 35.451 20.029C35.836 20.029 36.203 19.805 36.368 19.431C36.59 18.925 36.359 18.335 35.854 18.113C35.715 18.053 32.956 16.875 28.989 17.164C30.927 15.143 32.628 14.226 32.882 14.098C34.335 13.402 36.458 14.302 37.155 14.708C37.314 14.802 37.488 14.846 37.661 14.846C38.003 14.846 38.337 14.67 38.523 14.354C38.803 13.878 38.646 13.266 38.169 12.985C38.055 12.917 35.807 11.618 33.504 11.879C33.701 11.068 34.138 10.33 34.361 10.034C34.696 9.596 34.612 8.969 34.173 8.634C33.736 8.299 33.107 8.381 32.772 8.821C32.709 8.902 31.397 10.642 31.4 12.645C29.945 13.536 26.186 16.237 23.556 21.665C23.414 21.957 23.277 22.271 23.141 22.586C20.413 20.721 20.862 17.403 20.887 17.242C20.972 16.698 20.601 16.187 20.056 16.1C19.512 16.013 18.998 16.385 18.911 16.93C18.621 18.745 19.037 22.485 22.406 24.494C21.662 26.682 21.098 29.294 20.924 32.377C20.904 32.474 20.9 32.568 20.908 32.664C20.804 34.825 20.904 37.222 21.252 39.847C19.984 39.149 19.404 38.128 19.367 38.059C19.106 37.574 18.504 37.389 18.018 37.645C17.53 37.902 17.341 38.507 17.599 38.996C17.652 39.097 18.849 41.31 21.616 42.165C22.337 46.121 23.622 50.563 25.7 55.548C26.385 55.503 27.052 55.322 27.642 55.028C27.639 55.02 27.64 55.011 27.637 55.002C25.456 49.813 24.14 45.242 23.44 41.203C23.436 41.179 23.434 41.156 23.429 41.133C22.909 38.103 22.74 35.38 22.838 32.941C24.238 30.554 28.353 30.458 28.395 30.457C28.947 30.448 29.388 29.995 29.38 29.443C29.372 28.895 28.927 28.457 28.381 28.457C28.377 28.457 28.373 28.457 28.369 28.457C28.206 28.459 25.355 28.521 23.093 29.939C23.369 27.959 23.828 26.205 24.397 24.647C24.456 24.578 24.507 24.503 24.545 24.419Z" fill="#659C35"/>
</svg>
