<svg width="18" height="18" viewBox="0 0 18 18" fill="none" xmlns="http://www.w3.org/2000/svg">
<path d="M17.8425 4.09163C17.7089 3.92738 17.5086 3.83203 17.2969 3.83203H4.56103L4.50886 3.35278L4.507 3.33738C4.25739 1.4348 2.62206 0 0.703125 0C0.314789 0 0 0.314789 0 0.703125C0 1.09146 0.314789 1.40625 0.703125 1.40625C1.91623 1.40625 2.95042 2.31149 3.11175 3.51309L3.94752 11.1913C3.21662 11.523 2.70703 12.2598 2.70703 13.1133C2.70703 13.1192 2.7071 13.125 2.70724 13.1309C2.7071 13.1367 2.70703 13.1426 2.70703 13.1484C2.70703 14.3115 3.6533 15.2578 4.81641 15.2578H5.10251C5.031 15.4675 4.99219 15.6922 4.99219 15.9258C4.99219 17.0695 5.92267 18 7.06641 18C8.21014 18 9.14062 17.0695 9.14062 15.9258C9.14062 15.6922 9.10181 15.4675 9.0303 15.2578H12.0635C11.992 15.4675 11.9532 15.6922 11.9532 15.9258C11.9532 17.0695 12.8836 18 14.0274 18C15.1711 18 16.1016 17.0695 16.1016 15.9258C16.1016 14.7821 15.1711 13.8516 14.0274 13.8516H4.81641C4.4287 13.8516 4.11328 13.5361 4.11328 13.1484C4.11328 13.1426 4.11321 13.1367 4.11307 13.1309C4.11321 13.125 4.11328 13.1192 4.11328 13.1133C4.11328 12.7256 4.4287 12.4102 4.81641 12.4102H13.7929C15.041 12.4102 16.1865 11.6379 16.7111 10.4427C16.8671 10.0872 16.7054 9.6724 16.3498 9.5163C15.9943 9.36025 15.5795 9.52197 15.4234 9.87753C15.1277 10.5513 14.4725 11.0039 13.7929 11.0039H5.34168L4.7141 5.23828H16.432L16.0879 6.88767C16.0086 7.26782 16.2525 7.64026 16.6327 7.71954C16.6811 7.72966 16.7293 7.73452 16.7769 7.73452C17.1029 7.73452 17.3953 7.50656 17.4645 7.17483L17.9852 4.67873C18.0284 4.47152 17.976 4.25588 17.8425 4.09163ZM14.0273 15.2578C14.3957 15.2578 14.6953 15.5574 14.6953 15.9258C14.6953 16.2941 14.3957 16.5938 14.0273 16.5938C13.659 16.5938 13.3594 16.2941 13.3594 15.9258C13.3594 15.5574 13.659 15.2578 14.0273 15.2578ZM7.06641 15.2578C7.43474 15.2578 7.73438 15.5575 7.73438 15.9258C7.73438 16.2941 7.43474 16.5938 7.06641 16.5938C6.69807 16.5938 6.39844 16.2941 6.39844 15.9258C6.39844 15.5574 6.69807 15.2578 7.06641 15.2578Z" fill="white"/>
</svg>
