<svg width="15" height="10" viewBox="0 0 15 10" fill="none" xmlns="http://www.w3.org/2000/svg">
<path d="M13.9648 1.74512C13.8802 1.44043 13.7279 1.17806 13.5078 0.958008C13.2878 0.737956 13.0254 0.585612 12.7207 0.500977C12.2806 0.382487 11.248 0.297852 9.62305 0.24707L7.3125 0.22168L5.00195 0.24707C3.37695 0.297852 2.3444 0.382487 1.9043 0.500977C1.59961 0.585612 1.33724 0.737956 1.11719 0.958008C0.897135 1.17806 0.744792 1.44043 0.660156 1.74512C0.541667 2.20215 0.457031 2.89616 0.40625 3.82715C0.389323 4.30111 0.380859 4.72428 0.380859 5.09668L0.40625 6.36621C0.457031 7.31413 0.541667 8.0166 0.660156 8.47363C0.744792 8.76139 0.897135 9.0153 1.11719 9.23535C1.33724 9.4554 1.59961 9.60775 1.9043 9.69238C2.3444 9.81087 3.37695 9.89551 5.00195 9.94629L7.3125 9.97168L9.62305 9.94629C11.248 9.89551 12.2806 9.81087 12.7207 9.69238C13.0254 9.60775 13.2878 9.4554 13.5078 9.23535C13.7279 9.0153 13.8802 8.76139 13.9648 8.47363C14.0833 8.0166 14.168 7.31413 14.2188 6.36621L14.2441 5.09668L14.2188 3.82715C14.168 2.89616 14.0833 2.20215 13.9648 1.74512ZM5.89062 7.17871V3.04004L9.52148 5.09668L5.89062 7.17871Z" fill="white"/>
</svg>
